<ttFont>
<head>
    <!-- Most of this table will be recalculated by the compiler -->
    <tableVersion value="1.0"/>
    <fontRevision value="1.0"/>
    <checkSumAdjustment value="0xbf1210cd"/>
    <magicNumber value="0x5f0f3cf5"/>
    <flags value="00000000 00000011"/>
    <unitsPerEm value="1000"/>
    <created value="Sat Feb  2 18:24:11 2019"/>
    <modified value="Sun Feb  3 08:27:39 2019"/>
    <xMin value="-380"/>
    <yMin value="-208"/>
    <xMax value="1002"/>
    <yMax value="678"/>
    <macStyle value="00000000 00000000"/>
    <lowestRecPPEM value="3"/>
    <fontDirectionHint value="2"/>
    <indexToLocFormat value="0"/>
    <glyphDataFormat value="0"/>
  </head>
          <CharString index="0">
            rmoveto
            -2 6 -11 -3 -8 11 -8 10 -3 11 -8 8 rrcurveto
            0 -4 4 -6 3 vhcurveto
            0 -1 0 -1 1 vhcurveto
            12 callsubr
            hhcurveto
            -7 1 -5 -71 callgsubr
            -11 -3 -7 -9 -12 -5 -12 -6 -8 8 -5 -4 rrcurveto
            -7 -6 14 -8 0 vvcurveto
            21 -11 19 2 13 5 9 -11 16 -10 24 -1 rrcurveto
            0 16 1 -3 8 vhcurveto
            endchar
          </CharString>
          <CharString index="1">
            645 561 rmoveto
            -19 -79 callsubr
            rrcurveto
            -187 -538 -37 5 0 vvcurveto
            -14 12 20 123 0 vvcurveto
            10 71 17 89 29 112 3 13 -8 13 -14 1 rrcurveto
            1 -8 -8 0 -6 hhcurveto
            -1 19 callgsubr
            hvcurveto
            97 callsubr
            -58 -206 51 -88 41 -71 59 -13 19 -3 rrcurveto
            5 108 callgsubr
            hvcurveto
            5 8 7 17 -12 25 -5 11 -9 8 -11 5 -23 10 -46 26 -12 54 -16 69 91 121 191 24 -17 -65 -25 -101 -20 -98 rrcurveto
            0 -27 -123 27 -31 vhcurveto
            0 39 -45 30 10 vhcurveto
            53 34 64 176 50 140 -15 -80 -13 -89 -4 -84 4 callgsubr
            2 -81 callsubr
            -6 44 -17 205 100 352 rrcurveto
            return
          </CharString>
          <CharString index="2">
            269 173 -7 callsubr
            0 -1 -1 -18 -14 -21 -12 -21 -7 17 115 -64 43 -43 2 -27 2 -32 -31 -6 -41 rrcurveto
            -22 -10 -10 -18 0 vvcurveto
            0 -46 -94 46 -79 vhcurveto
            0 28 -49 63 2 vhcurveto
            8 1 7 11 callsubr
            34 30 19 85 23 7 23 13 20 16 11 10 -6 9 -3 4 rrcurveto
            -139 91 rmoveto
            58 -13 -6 -98 -2 -20 -20 -3 -18 99 callsubr
            -59 50 59 72 0 vvcurveto
            -5 -254 rmoveto
            -77 11 24 124 0 vvcurveto
            2 0 3 1 2 vhcurveto
            15 -17 32 -27 55 3 rrcurveto
            -24 -102 -26 -58 callgsubr
            return
          </CharString>
          <CharString index="3">
            -12 -8 -2 -12 -2 -20 callsubr
            12 -2 11 -3 12 8 2 12 2 12 -7 11 -12 return
          </CharString>
          <CharString index="4">
            hstemhm
            0 75 79 65 32 15 hintmask 0010111110000000
            345 -65 callgsubr
            hvcurveto
            hintmask 1000111110000000
            -102 callgsubr
            hintmask 0010111110000000
            -92 callgsubr
            hintmask 1000111110000000
            2 -22 4 -17 3 -12 -99 callgsubr
            hintmask 0010111110000000
            -89 callsubr
            hintmask 0101011110000000
            -89 callgsubr
            hintmask 0010111110000000
            -21 callsubr
            return
          </CharString>
          <CharString index="5">
            rmoveto
            0 -25 16 -14 -21 vhcurveto
            -9 -13 34 -47 64 14 rrcurveto
            0 20 5 -7 9 vhcurveto
            -4 6 -13 -7 -14 10 -14 10 -6 12 -12 6 rrcurveto
            endchar
          </CharString>
          <CharString index="6">
            rmoveto
            -7 8 -20 23 -28 -5 -25 -4 -13 -8 -1 -7 rrcurveto
            0 -3 -14 12 3 vhcurveto
            16 4 18 -4 7 -10 6 -7 16 -12 27 12 rrcurveto
            0 11 5 1 9 vhcurveto
            9 -10 -10 -7 8 vhcurveto
            endchar
          </CharString>
          <CharString index="7">
            250 2 callgsubr
            -1 -51 callsubr
            -68 9 1 82 4 32 rrcurveto
            82 10 11 47 callsubr
            -32 16 -99 callsubr
            0 -25 -98 44 -60 vhcurveto
            0 30 -49 81 2 vhcurveto
            62 2 62 171 0 vvcurveto
            3 -20 callgsubr
            return
          </CharString>
          <CharString index="8">
            0 vvcurveto
            -33 20 -52 -26 0 vvcurveto
            -36 -22 -21 -82 0 vvcurveto
            return
          </CharString>
          <CharString index="9">
            -4 callgsubr
            hintmask 0011111010100000
            -35 callsubr
            hintmask 1001111010100000
            -70 callgsubr
            hintmask 0101111011100000
            -97 callgsubr
            hintmask 0011111110100000
            12 -13 callgsubr
            hintmask 0011111010100000
            -97 callsubr
            29 2 23 46 15 44 rrcurveto
            hintmask 1001111010100000
            1 -18 3 -15 2 -10 -99 callgsubr
            hintmask 0011111010100000
            3 callsubr
            return
          </CharString>
          <CharString index="10">
            -18 -49 callsubr
            -12 callgsubr
            -41 -95 2 -100 9 -35 rrcurveto
            0 17 -69 46 3 vhcurveto
            return
          </CharString>
          <CharString index="11">
            -87 callgsubr
            61 -32 callsubr
            return
          </CharString>
          <CharString index="12">
            631 -19 callsubr
            -1 -72 callsubr
            -28 -51 -38 -40 vhcurveto
            -31 -32 -39 -26 -30 6 -66 15 -63 198 104 172 20 7 20 9 20 10 rrcurveto
            0 42 19 37 34 vhcurveto
            27 25 26 37 3 34 rrcurveto
            6 58 -29 -41 callsubr
            -51 23 -138 -114 -74 -149 -118 -19 -87 42 -17 51 -18 52 25 46 15 21 7 10 3 12 -1 12 -3 26 -13 11 -9 4 -5 2 -6 0 -4 -4 -16 -14 -41 -42 2 -80 rrcurveto
            2 -79 95 -105 175 23 -21 -50 -14 -54 1 -53 return
          </CharString>
          <CharString index="13">
            56 callsubr
            2 -17 5 -34 callsubr
            46 -4 24 25 12 22 10 18 0 22 -10 18 rrcurveto
            return
          </CharString>
          <CharString index="14">
            -84 callsubr
            9 callgsubr
            -7 -26 -11 -34 -17 -43 rrcurveto
            -2 0 -2 2 -1 vhcurveto
            6 54 callsubr
            6 13 7 21 vhcurveto
            57 callgsubr
            return
          </CharString>
          <CharString index="15">
            1 -86 callgsubr
            return
          </CharString>
          <CharString index="16">
            -110 106 rmoveto
            0 24 -20 -17 -49 vhcurveto
            -14 -38 -30 -14 -18 -5 rrcurveto
            21 95 34 31 0 vvcurveto
            return
          </CharString>
          <CharString index="17">
            10 33 -21 10 0 vvcurveto
            -20 80 callgsubr
            -11 -31 -50 36 callsubr
            0 -80 25 -58 vhcurveto
            3 -6 4 -5 5 -3 11 -9 24 -15 21 3 rrcurveto
            9 -3 8 0 0 vvcurveto
            return
          </CharString>
          <CharString index="18">
            -61 callsubr
            -191 40 rmoveto
            -4 -19 -3 -17 -1 -16 rrcurveto
            return
          </CharString>
          <CharString index="19">
            82 callgsubr
            12 23 0 vvcurveto
            63 122 103 45 48 -24 return
          </CharString>
          <CharString index="20">
            33 callsubr
            13 23 0 vvcurveto
            62 122 103 -47 callsubr
            7 -24 callgsubr
            return
          </CharString>
          <CharString index="21">
            6 60 20 69 10 24 rrcurveto
            13 -56 callgsubr
            -5 -6 -76 callgsubr
            -10 -30 -92 -17 hhcurveto
            -15 -1 3 52 0 vvcurveto
            return
          </CharString>
          <CharString index="22">
            -41 callgsubr
            rrcurveto
            -63 -166 return
          </CharString>
          <CharString index="23">
            -57 callgsubr
            -3 2 -4 0 -3 -2 return
          </CharString>
          <CharString index="24">
            -19 -76 callsubr
            return
          </CharString>
          <CharString index="25">
            -64 callsubr
            42 -21 11 -43 4 -21 1 -10 5 -9 8 58 callgsubr
            return
          </CharString>
          <CharString index="26">
            -6 -16 callsubr
            99 callgsubr
            6 4 5 5 hvcurveto
            return
          </CharString>
          <CharString index="27">
            rrcurveto
            11 33 -21 10 0 callgsubr
            return
          </CharString>
          <CharString index="28">
            11 -25 -23 callsubr
            -5 -4 -2 -6 return
          </CharString>
          <CharString index="29">
            -62 callgsubr
            -4 -42 callsubr
            return
          </CharString>
          <CharString index="30">
            -31 callgsubr
            -4 42 callgsubr
            return
          </CharString>
          <CharString index="31">
            10 -21 -78 callsubr
            return
          </CharString>
          <CharString index="32">
            91 callgsubr
            70 -13 rmoveto
            -11 2 -104 callsubr
            3 rrcurveto
            endchar
          </CharString>
          <CharString index="33">
            0 -69 callgsubr
            return
          </CharString>
          <CharString index="34">
            15 8 25 16 23 21 27 25 27 37 3 34 rrcurveto
            6 58 -28 -41 callsubr
            return
          </CharString>
          <CharString index="35">
            -2 2 callsubr
            -15 -40 -13 -30 -12 -23 rrcurveto
            0 return
          </CharString>
          <CharString index="36">
            -39 callgsubr
            -15 -27 vhcurveto
            return
          </CharString>
          <CharString index="37">
            96 callsubr
            153 98 callsubr
            return
          </CharString>
          <CharString index="38">
            15 hintmask 11101000
            38 304 rmoveto
            -47 -110 5 -108 10 -36 27 callsubr
            4 13 -8 5 -6 -92 callsubr
            -37 -71 callgsubr
            -49 29 48 179 18 43 rrcurveto
            return
          </CharString>
          <CharString index="39">
            85 callgsubr
            21 65 24 -12 30 -43 callgsubr
            return
          </CharString>
          <CharString index="40">
            -127 -55 callsubr
            -10 59 callsubr
            return
          </CharString>
          <CharString index="41">
            -11 6 40 -1 19 rrcurveto
            4 return
          </CharString>
          <CharString index="42">
            38 callsubr
            -20 18 callsubr
            16 -13 7 -81 callgsubr
            18 2 22 58 12 41 rrcurveto
            return
          </CharString>
          <CharString index="43">
            0 vvcurveto
            26 -6 31 -88 callsubr
            return
          </CharString>
          <CharString index="44">
            hvcurveto
            -19 -44 -10 -44 -5 -39 rrcurveto
            -52 return
          </CharString>
          <CharString index="45">
            -19 rmoveto
            63 -1 61 174 0 vvcurveto
            4 13 -9 -94 callgsubr
            -29 17 9 71 16 64 3 -44 callsubr
            return
          </CharString>
          <CharString index="46">
            4 -20 callgsubr
            return
          </CharString>
          <CharString index="47" raw="1">
            9aa18a1e 80517b58 738e080b 
          </CharString>
          <CharString index="48">
            rmoveto
            0 25 3 -11 -45 vhcurveto
            0 -10 -37 -33 -43 vhcurveto
            -15 -19 -20 -20 -25 -19 13 52 37 126 39 2 rrcurveto
            endchar
          </CharString>
          <CharString index="49">
            0 callsubr
            4 1 3 1 2 1 29 14 27 21 21 22 return
          </CharString>
          <CharString index="50">
            260 rmoveto
            -84 callgsubr
            return
          </CharString>
          <CharString index="51">
            -63 -166 -75 callgsubr
            -2 callgsubr
            return
          </CharString>
          <CharString index="52">
            rmoveto
            0 -20 -78 callgsubr
            return
          </CharString>
          <CharString index="53">
            22 -3 37 -16 -21 -42 callgsubr
            return
          </CharString>
          <CharString index="54">
            32 -21 -41 callsubr
            return
          </CharString>
          <CharString index="55">
            -18 1 12 callgsubr
            rrcurveto
            10 -21 callgsubr
            1 -4 1 -3 67 callsubr
            -1 -80 17 -45 vhcurveto
            2 -6 3 -6 5 -4 return
          </CharString>
          <CharString index="56">
            8 callgsubr
            4 0 vvcurveto
            return
          </CharString>
          <CharString index="57">
            0 22 -5 -21 -119 vhcurveto
            return
          </CharString>
          <CharString index="58">
            9 -19 4 -11 1 -5 1 return
          </CharString>
          <CharString index="59">
            -33 105 20 35 20 23 -84 callsubr
            return
          </CharString>
          <CharString index="60">
            -9 callsubr
            2 -10 5 -9 return
          </CharString>
          <CharString index="61">
            13 0 vvcurveto
            return
          </CharString>
          <CharString index="62">
            rrcurveto
            -14 1 0 53 0 vvcurveto
            -3 56 19 75 9 32 rrcurveto
            10 -73 callgsubr
            -19 -49 callsubr
            -12 callgsubr
            -34 -94 9 -101 12 40 callgsubr
            return
          </CharString>
          <CharString index="63">
            16 -3 -37 callsubr
            return
          </CharString>
          <CharString index="64">
            27 61 219 14 98 callgsubr
            return
          </CharString>
          <CharString index="65">
            -4 -7 callgsubr
            return
          </CharString>
          <CharString index="66">
            11 0 vvcurveto
            return
          </CharString>
          <CharString index="67">
            0 vvcurveto
            26 -6 31 49 23 1 callgsubr
            12 23 0 vvcurveto
            62 122 103 -47 callsubr
            8 -6 17 -14 14 1 8 2 rrcurveto
            4 return
          </CharString>
          <CharString index="68">
            90 -77 5 0 vvcurveto
            -66 13 -44 -246 0 vvcurveto
            return
          </CharString>
          <CharString index="69">
            0 14 15 22 -1 vhcurveto
            return
          </CharString>
          <CharString index="70">
            -79 callgsubr
            -3 10 -7 7 -19 21 -21 10 -12 4 return
          </CharString>
          <CharString index="71">
            -27 callsubr
            rrcurveto
            return
          </CharString>
          <CharString index="72">
            333 -31 callsubr
            return
          </CharString>
          <CharString index="73">
            -10 rrcurveto
            11 -27 34 -71 callgsubr
            return
          </CharString>
          <CharString index="74">
            11 -26 13 -16 0 vvcurveto
            return
          </CharString>
          <CharString index="75">
            174 0 vvcurveto
            return
          </CharString>
          <CharString index="76">
            173 rmoveto
            -2 1 -3 -1 -2 vvcurveto
            return
          </CharString>
          <CharString index="77">
            -25 24 callgsubr
            3 return
          </CharString>
          <CharString index="78">
            hhcurveto
            -14 -1 2 52 0 vvcurveto
            return
          </CharString>
          <CharString index="79">
            -51 callgsubr
            -1 hvcurveto
            return
          </CharString>
          <CharString index="80">
            rmoveto
            -11 3 -12 -8 -2 -12 -2 -20 callsubr
            12 -2 11 -3 12 8 2 12 return
          </CharString>
          <CharString index="81">
            rrcurveto
            0 -5 -79 return
          </CharString>
          <CharString index="82">
            -57 callsubr
            0 return
          </CharString>
          <CharString index="83">
            -6 2 -6 7 callsubr
            return
          </CharString>
          <CharString index="84">
            4 -14 1 -6 1 return
          </CharString>
          <CharString index="85">
            -82 callgsubr
            -4 return
          </CharString>
          <CharString index="86">
            22 -9 -7 -57 0 vvcurveto
            return
          </CharString>
          <CharString index="87">
            -12 7 -11 return
          </CharString>
          <CharString index="88">
            174 rmoveto
            return
          </CharString>
          <CharString index="89">
            0 vvcurveto
            -12 -64 callgsubr
            return
          </CharString>
          <CharString index="90">
            -22 39 -66 -25 -176 rrcurveto
            return
          </CharString>
          <CharString index="91">
            9 callsubr
            18 return
          </CharString>
          <CharString index="92">
            -10 5 -9 8 -6 17 -14 return
          </CharString>
          <CharString index="93">
            22 -7 -84 0 vvcurveto
            return
          </CharString>
          <CharString index="94">
            -2 -1 -1 -2 return
          </CharString>
          <CharString index="95">
            3 4 2 6 5 vvcurveto
            1 35 -27 13 -99 callsubr
            0 -25 -98 44 -60 vhcurveto
            0 return
          </CharString>
          <CharString index="96">
            66 19 80 31 98 rrcurveto
            12 33 -20 10 0 vvcurveto
            -20 10 -20 -78 callsubr
            -12 -29 -51 -134 return
          </CharString>
          <CharString index="97">
            rrcurveto
            5 5 5 5 -1 45 callsubr
            return
          </CharString>
          <CharString index="98">
            95 callsubr
            12 -43 3 -21 return
          </CharString>
          <CharString index="99">
            8 10 2 13 -5 11 return
          </CharString>
          <CharString index="100">
            rmoveto
            -1 1 -2 return
          </CharString>
          <CharString index="101">
            -2 1 -3 -1 -2 vvcurveto
            51 callgsubr
            -4 16 -10 13 -22 29 -2 44 return
          </CharString>
          <CharString index="102">
            -1 61 -32 callsubr
            4 13 -9 5 -5 return
          </CharString>
          <CharString index="103">
            -18 10 -18 3 -11 2 rrcurveto
            -6 -5 -3 -5 return
          </CharString>
          <CharString index="104">
            -1 0 vvcurveto
            41 -2 -1 20 0 vvcurveto
            -1 19 return
          </CharString>
          <CharString index="105">
            2 -95 -183 rrcurveto
            return
          </CharString>
          <CharString index="106">
            rrcurveto
            -4 2 -4 -3 -3 vvcurveto
            -129 -42 -146 -15 2 vhcurveto
            -14 1 0 53 0 vvcurveto
            -3 56 18 75 10 32 rrcurveto
            return
          </CharString>
          <CharString index="107">
            105 callsubr
            2 0 1 -1 2 return
          </CharString>
          <CharString index="108">
            -9 5 -5 2 return
          </CharString>
          <CharString index="109">
            -1 -1 -1 hvcurveto
            return
          </CharString>
          <CharString index="110">
            4 60 callsubr
            return
          </CharString>
          <CharString index="111">
            -5 -25 -5 -21 -6 -18 -83 -37 -4 -42 11 -20 rrcurveto
            13 -23 29 105 callgsubr
            return
          </CharString>
          <CharString index="112">
            0 -2 -71 24 -19 vhcurveto
            0 23 -23 25 10 vhcurveto
            23 10 11 179 55 78 rrcurveto
            0 -9 -27 -3 -16 vhcurveto
            return
          </CharString>
          <CharString index="113">
            -15 25 -4 rrcurveto
            63 -11 5 40 19 vvcurveto
            return
          </CharString>
          <CharString index="114">
            -3 -2 -5 -33 callgsubr
            rrcurveto
            return
          </CharString>
          <CharString index="115">
            436 292 29 213 35 return
          </CharString>
          <CharString index="116">
            109 callgsubr
            10 -8 return
          </CharString>
          <CharString index="117">
            11 32 -20 -41 callsubr
            return
          </CharString>
          <CharString index="118">
            1 6 4 18 11 return
          </CharString>
          <CharString index="119">
            -1 -1 0 -1 return
          </CharString>
          <CharString index="120">
            -21 12 -42 3 -21 2 -10 5 -10 8 -6 17 -14 14 1 8 3 rrcurveto
            5 1 3 4 4 vvcurveto
            return
          </CharString>
          <CharString index="121">
            -30 -12 -23 rrcurveto
            0 -27 -51 -39 -40 vhcurveto
            -32 -30 -39 -20 -30 hhcurveto
            -167 10 callgsubr
            return
          </CharString>
          <CharString index="122">
            50 -65 14 11 24 -3 69 callsubr
            70 -67 57 36 14 return
          </CharString>
          <CharString index="123">
            -63 -166 -75 callgsubr
            -29 17 9 71 15 64 return
          </CharString>
          <CharString index="124">
            9 44 3 25 13 vvcurveto
            1 7 -1 7 -2 7 rrcurveto
            return
          </CharString>
          <CharString index="125">
            -6 -18 rrcurveto
            -8 return
          </CharString>
          <CharString index="126">
            -63 -167 return
          </CharString>
          <CharString index="127">
            45 rrcurveto
            1 -69 callgsubr
            0 vlineto
            return
          </CharString>
          <CharString index="128">
            0 vvcurveto
            35 callsubr
            return
          </CharString>
          <CharString index="129">
            -84 -18 callsubr
            return
          </CharString>
          <CharString index="130">
            1 -6 1 -6 -4 return
          </CharString>
          <CharString index="131">
            20 -37 38 -8 0 vvcurveto
            26 -6 31 50 23 41 rrcurveto
            14 25 12 24 0 vvcurveto
            63 121 return
          </CharString>
          <CharString index="132">
            -88 callsubr
            41 -21 12 -43 return
          </CharString>
          <CharString index="133">
            7 -6 10 -1 0 vvcurveto
            42 -2 -2 20 0 vvcurveto
            return
          </CharString>
          <CharString index="134">
            3 -12 7 -96 callsubr
            return
          </CharString>
          <CharString index="135">
            -2 -19 -4 86 callsubr
            -13 -64 callgsubr
            return
          </CharString>
          <CharString index="136">
            11 -8 19 -11 94 callsubr
            -3 -2 9 callgsubr
            return
          </CharString>
          <CharString index="137">
            -203 rrcurveto
            0 0 -80 26 -58 vhcurveto
            2 -6 4 -5 5 -3 12 -9 23 -15 return
          </CharString>
          <CharString index="138">
            -4 -25 -6 -21 -5 -18 -84 -37 -3 -42 11 -20 rrcurveto
            12 -23 30 0 0 vvcurveto
            return
          </CharString>
          <CharString index="139">
            -19 21 -21 10 -12 4 -24 callsubr
            return
          </CharString>
          <CharString index="140">
            0 vvcurveto
            23 callgsubr
            return
          </CharString>
          <CharString index="141">
            9 -19 4 -11 1 -6 1 -5 -3 -2 -5 return
          </CharString>
          <CharString index="142">
            -15 4 6 109 callsubr
            return
          </CharString>
          <CharString index="143">
            -152 -6 -203 rrcurveto
            0 return
          </CharString>
          <CharString index="144">
            -77 callsubr
            -41 11 return
          </CharString>
          <CharString index="145">
            0 callgsubr
            -9 -20 -7 return
          </CharString>
          <CharString index="146">
            -1 -2 1 -2 2 -1 5 -2 return
          </CharString>
          <CharString index="147">
            58 callgsubr
            4 return
          </CharString>
          <CharString index="148">
            85 callgsubr
            22 65 23 -12 return
          </CharString>
          <CharString index="149">
            10 63 callgsubr
            return
          </CharString>
          <CharString index="150">
            -28 10 -33 rrcurveto
            -39 -10 -12 -34 0 vvcurveto
            -7 -15 3 -17 4 -10 rrcurveto
            return
          </CharString>
          <CharString index="151">
            3 63 11 84 25 112 30 1 38 2 18 5 61 17 -14 36 return
          </CharString>
          <CharString index="152">
            hvcurveto
            -6 44 -17 205 100 352 rrcurveto
            return
          </CharString>
          <CharString index="153">
            0 vvcurveto
            -20 10 -21 return
          </CharString>
          <CharString index="154">
            97 0 vvcurveto
            6 41 return
          </CharString>
          <CharString index="155">
            0 vvcurveto
            16 75 -61 2 0 vvcurveto
            -114 4 -51 -200 -12 -57 return
          </CharString>
          <CharString index="156">
            -36 0 vvcurveto
            25 -37 34 0 0 vvcurveto
            62 -1 61 -32 callsubr
            return
          </CharString>
          <CharString index="157">
            -6 5 -4 9 -10 20 55 callgsubr
            -3 6 return
          </CharString>
          <CharString index="158">
            161 139 31 49 -39 37 -30 3 -44 -1 -21 -1 -10 return
          </CharString>
          <CharString index="159">
            93 callgsubr
            -2 -1 return
          </CharString>
          <CharString index="160">
            -29 -51 -134 -21 -182 rrcurveto
            0 return
          </CharString>
          <CharString index="161">
            -2 9 11 callgsubr
            return
          </CharString>
          <CharString index="162">
            rrcurveto
            0 -6 -93 27 -51 vhcurveto
            return
          </CharString>
          <CharString index="163">
            -10 -13 -34 0 vvcurveto
            -6 -15 return
          </CharString>
          <CharString index="164">
            vhcurveto
            62 callgsubr
            return
          </CharString>
          <CharString index="165">
            -32 callgsubr
            22 return
          </CharString>
          <CharString index="166">
            -58 -17 -51 -23 3 rrcurveto
            return
          </CharString>
          <CharString index="167">
            95 callgsubr
            rrcurveto
            return
          </CharString>
          <CharString index="168">
            3 -20 callsubr
            8 -9 return
          </CharString>
          <CharString index="169">
            2 10 3 9 rrcurveto
            return
          </CharString>
          <CharString index="170">
            580 463 rmoveto
            return
          </CharString>
          <CharString index="171">
            11 3 9 62 callsubr
            18 -12 10 -58 callgsubr
            return
          </CharString>
          <CharString index="172">
            143 77 23 79 19 64 -25 44 -10 14 rrcurveto
            endchar
          </CharString>
          <CharString index="173">
            1 17 1 50 -48 47 rrcurveto
            endchar
          </CharString>
          <CharString index="174">
            -2 -1 -34 callgsubr
            return
          </CharString>
          <CharString index="175">
            3 -7 91 callsubr
            -12 18 -2 rrcurveto
            return
          </CharString>
          <CharString index="176">
            -70 callsubr
            hstemhm
            0 return
          </CharString>
          <CharString index="177">
            -19 57 callsubr
            return
          </CharString>
          <CharString index="178">
            9 callgsubr
            rrcurveto
            0 return
          </CharString>
          <CharString index="179">
            1 90 callsubr
            return
          </CharString>
          <CharString index="180">
            33 -69 -19 -125 return
          </CharString>
          <CharString index="181">
            -37 -4 -33 -1 -28 return
          </CharString>
          <CharString index="182">
            54 34 38 vhcurveto
            return
          </CharString>
          <CharString index="183">
            -20 21 -20 10 -12 4 -6 97 callgsubr
            return
          </CharString>
          <CharString index="184">
            -15 callsubr
            14 1 8 2 rrcurveto
            return
          </CharString>
          <CharString index="185">
            2 -12 -45 vhcurveto
            0 -9 -36 -34 -43 vhcurveto
            -15 -20 return
          </CharString>
          <CharString index="186">
            1 81 37 104 0 vvcurveto
            13 -73 callgsubr
            return
          </CharString>
          <CharString index="187">
            3 54 58 22 76 rrcurveto
            40 21 30 23 0 vvcurveto
            return
          </CharString>
          <CharString index="188">
            rmoveto
            4 7 rlineto
            0 13 61 callgsubr
            return
          </CharString>
          <CharString index="189">
            15 -6 1 -30 -1 -18 return
          </CharString>
          <CharString index="190">
            -21 1 18 107 0 vvcurveto
            return
          </CharString>
          <CharString index="191">
            -5 -6 -3 -5 -2 hvcurveto
            return
          </CharString>
          <CharString index="192">
            -43 -25 -64 39 callsubr
            return
          </CharString>
          <CharString index="193">
            -56 -9 -55 -59 callgsubr
            return
          </CharString>
          <CharString index="194">
            145 9 rmoveto
            -85 11 23 125 0 vvcurveto
            return
          </CharString>
          <CharString index="195">
            107 24 hstemhm
            -17 74 15 14 21 14 56 81 return
          </CharString>
          <CharString index="196">
            -1 5 3 3 4 5 9 6 16 -11 24 return
          </CharString>
          <CharString index="197">
            rrcurveto
            -3 -42 callsubr
            return
          </CharString>
          <CharString index="198">
            4 -5 5 -4 11 -8 18 return
          </CharString>
          <CharString index="199">
            -11 -23 -20 -39 -24 -29 rrcurveto
            return
          </CharString>
          <CharString index="200">
            10 -21 3 -10 1 -4 1 return
          </CharString>
          <CharString index="201">
            12 -13 8 -3 2 -4 0 return
          </CharString>
          <CharString index="202">
            45 48 -24 42 -21 return
          </CharString>
          <CharString index="203">
            22 -2 32 -11 -21 return
          </CharString>
          <CharString index="204">
            0 vlineto
            -306 -34 return
          </CharString>
          <CharString index="205">
            19 139 -20 return
          </CharString>
          <CharString index="206">
            3 -12 9 rrcurveto
            return
          </CharString>
          <CharString index="207">
            55 callsubr
            20 -37 38 return
          </CharString>
          <CharString index="208">
            2 -1 2 hhcurveto
            4 3 3 4 1 hvcurveto
            return
          </CharString>
          <CharString index="209">
            -31 -5 -41 rrcurveto
            -23 -10 -9 -18 0 vvcurveto
            return
          </CharString>
          <CharString index="210">
            3 1 4 rrcurveto
            22 76 -57 6 0 vvcurveto
            return
          </CharString>
          <CharString index="211">
            24 hstemhm
            -17 75 14 15 20 14 56 82 return
          </CharString>
          <CharString index="212">
            21 callgsubr
            -1 return
          </CharString>
          <CharString index="213">
            hvcurveto
            -63 -166 -75 callgsubr
            -37 22 return
          </CharString>
          <CharString index="214">
            2 -3 -2 vhcurveto
            return
          </CharString>
          <CharString index="215">
            -19 11 -25 4 return
          </CharString>
          <CharString index="216">
            113 0 vvcurveto
            return
          </CharString>
        <CharString name=".notdef">
          -17 endchar
        </CharString>
        <CharString name="A">
          139 29 hstem
          15 58 345 74 73 13 vstem
          -107 callgsubr
          endchar
        </CharString>
        <CharString name="AE">
          605 -92 28 203 29 366 35 hstemhm
          20 58 345 91 56 13 5 72 107 25 hintmask 11011100
          829 174 rmoveto
          -2 -2 -1 -1 -1 hvcurveto
          -15 -40 -13 14 callsubr
          hintmask 11111011
          47 112 101 39 31 9 5 2 3 5 -2 5 -7 18 rcurveline
          -2 4 -3 3 -4 1 -15 4 -10 6 -6 7 15 8 25 16 23 21 27 25 27 37 3 34 rrcurveto
          6 26 callgsubr
          12 -5 vhcurveto
          13 -6 17 -4 21 -3 rrcurveto
          hintmask 11011100
          0 -87 -7 -75 -69 vhcurveto
          12 78 20 91 30 104 54 callgsubr
          -19 11 -24 4 -14 23 callsubr
          -2 -6 -3 -15 -9 -31 -9 -41 -53 -131 -47 -98 -40 -74 -133 -32 -101 47 -20 54 -18 52 24 47 15 21 6 10 3 12 -1 12 rrcurveto
          -3 25 -14 11 -9 5 -4 2 -6 -1 -4 -3 -16 -14 -41 -42 4 -80 3 -83 107 -111 189 36 -90 -154 -55 -27 -21 -5 -6 -1 -3 -6 1 -5 10 -27 27 -9 11 -3 rrcurveto
          4 -1 4 1 4 1 39 15 64 114 58 118 18 6 20 7 19 8 -3 -32 -3 -33 -2 -31 -52 callgsubr
          -58 vhcurveto
          2 -7 5 -5 5 65 callgsubr
          4 -1 5 -1 6 vhcurveto
          -15 27 35 -9 44 hhcurveto
          120 1 75 159 0 vvcurveto
          23 43 15 43 0 vvcurveto
          -61 callsubr
          -169 208 rmoveto
          hintmask 11111101
          -2 39 callgsubr
          hintmask 11011100
          -1 0 0 -1 hhcurveto
          -278 -190 rmoveto
          25 52 23 51 18 43 -8 -41 -7 -43 -5 -43 -16 -8 -15 -6 -15 -5 rrcurveto
          endchar
        </CharString>
        <CharString name="Aacute">
          139 29 436 53 hstem
          15 58 345 74 73 13 vstem
          -107 callgsubr
          199 462 -103 callgsubr
        </CharString>
        <CharString name="Acircumflex">
          139 29 445 41 hstem
          15 58 345 74 73 13 vstem
          -107 callgsubr
          233 412 -107 callsubr
        </CharString>
        <CharString name="Adieresis">
          139 29 hstemhm
          15 58 345 74 6 42 25 13 -10 42 hintmask 11101000
          -107 callgsubr
          hintmask 11011000
          146 457 rmoveto
          -11 3 -104 callsubr
          2 rrcurveto
          hintmask 11100100
          70 -13 rmoveto
          -11 2 -104 callsubr
          3 rrcurveto
          endchar
        </CharString>
        <CharString name="Agrave">
          139 29 431 60 hstem
          15 58 345 74 73 13 vstem
          -107 callgsubr
          177 461 -102 callsubr
        </CharString>
        <CharString name="Aring">
          139 29 438 15 25 16 hstemhm
          15 58 345 74 38 16 19 13 -6 16 hintmask 11011010
          -107 callgsubr
          hintmask 11111001
          182 470 rmoveto
          hintmask 11111110
          -16 -13 -13 -15 hvcurveto
          hintmask 11011110
          -16 13 -12 16 vhcurveto
          hintmask 11011001
          16 13 12 16 hvcurveto
          hintmask 11111001
          15 -13 13 -16 vhcurveto
          hintmask 11011001
          -41 vmoveto
          hintmask 11011110
          -7 -6 6 7 hvcurveto
          hintmask 11111110
          7 6 5 7 vhcurveto
          hintmask 11111001
          7 6 -5 -7 hvcurveto
          hintmask 11011001
          107 callgsubr
        </CharString>
        <CharString name="Atilde">
          139 29 428 52 hstemhm
          15 58 345 74 73 13 25 12 hintmask 10111000
          -107 callgsubr
          hintmask 11111100
          221 430 -101 callsubr
        </CharString>
        <CharString name="B">
          174 -102 25 512 36 hstemhm
          46 82 3 21 49 13 63 67 12 74 hintmask 10101010
          458 173 rmoveto
          -2 -1 2 callsubr
          hintmask 10101110
          -10 -26 -15 -33 -20 -19 -24 -25 -24 -11 -43 -13 17 35 10 36 -1 31 -1 40 -21 28 -24 18 rrcurveto
          hintmask 11101010
          48 1 48 21 22 40 rrcurveto
          30 57 -26 80 0 vvcurveto
          35 -12 -34 5 -23 hhcurveto
          -23 1 -17 -21 0 vvcurveto
          -106 -124 -55 -211 -22 -98 1 100 15 168 67 232 54 callgsubr
          -19 11 -24 4 -14 23 callsubr
          -1 -6 -14 -50 -60 -234 -11 -202 -52 callgsubr
          -58 vhcurveto
          hintmask 10011010
          68 callsubr
          3 3 2 2 1 hvcurveto
          9 -11 15 -71 callgsubr
          54 2 58 54 37 64 15 4 14 4 16 5 21 7 15 6 16 13 rrcurveto
          24 17 14 22 0 vvcurveto
          19 30 11 27 0 vvcurveto
          hintmask 10101010
          4 13 -10 5 -5 2 rrcurveto
          hintmask 10101110
          -185 -57 rmoveto
          -8 -32 -12 -33 -13 -29 -38 -15 -32 -17 -21 -18 8 71 28 92 42 106 21 -16 42 -40 -17 -69 rrcurveto
          hintmask 11011010
          75 319 rmoveto
          0 18 5 -19 -97 vhcurveto
          -11 -57 -59 -29 -40 9 1 3 1 3 2 3 rrcurveto
          61 148 46 12 0 vvcurveto
          -187 -512 rmoveto
          -8 -19 15 35 57 hvcurveto
          11 7 12 6 11 5 -21 -39 -24 -27 -19 -2 rrcurveto
          endchar
        </CharString>
        <CharString name="C">
          -30 callgsubr
          34 hstem
          19 58 180 84 225 25 vstem
          -95 callsubr
          rrcurveto
          2 -15 callgsubr
          105 -12 89 172 0 vvcurveto
          23 43 16 43 0 vvcurveto
          -19 callgsubr
        </CharString>
        <CharString name="CR">
          -17 endchar
        </CharString>
        <CharString name="Ccedilla">
          348 -191 15 467 30 213 34 hstemhm
          19 58 180 84 2 22 37 18 146 25 hintmask 11111011
          -95 callsubr
          1 -162 84 -48 42 -13 5 -13 rcurveline
          -1 1 0 -1 vvcurveto
          1 -3 -3 -5 -2 -3 -2 -3 -2 -4 2 -5 1 -3 2 -2 3 -1 rrcurveto
          -1 2 3 -1 2 hhcurveto
          1 2 0 1 2 hvcurveto
          -8 -3 -10 -1 -3 vhcurveto
          -1 -2 rlineto
          hintmask 11110111
          -2 -5 -3 -5 -4 -4 rrcurveto
          0 -8 -8 -8 vhcurveto
          -1 hlineto
          -4 1 -1 1 -1 1 -1 2 -1 10 8 6 5 4 2 5 -1 4 -1 3 -3 3 -2 1 rrcurveto
          1 -2 -3 1 -2 hhcurveto
          -6 -4 -3 -3 -3 hvcurveto
          -13 -13 5 -16 -2 vvcurveto
          3 -10 7 -6 9 -3 rrcurveto
          -1 3 4 -1 5 hhcurveto
          3 3 0 1 3 hvcurveto
          6 1 4 1 1 1 12 4 11 8 7 9 7 11 rcurveline
          2 5 1 5 2 10 -3 10 rlinecurve
          -1 5 -3 4 -3 4 -1 2 -2 2 -3 2 2 4 -1 5 -1 3 -1 2 rcurveline
          100 -1 84 161 0 vvcurveto
          23 43 16 43 0 vvcurveto
          hintmask 11111011
          -19 callgsubr
        </CharString>
        <CharString name="D">
          204 -103 680 -679 25 hstemhm
          45 82 3 21 49 12 145 80 hintmask 10101100
          489 -65 callgsubr
          hvcurveto
          -10 -26 -16 -32 -19 -20 -22 -23 -18 -13 -56 -13 27 41 24 47 16 49 46 140 -27 89 -10 23 -10 23 -47 11 -17 3 rrcurveto
          -16 3 -20 -23 0 vvcurveto
          -106 -124 -56 -211 -21 -98 1 100 15 168 66 232 rrcurveto
          10 callsubr
          -19 -79 callsubr
          -13 -50 -60 -234 -11 -202 rrcurveto
          hintmask 01101100
          0 -5 -79 24 -58 vhcurveto
          hintmask 01011100
          2 -7 -16 callsubr
          -12 18 -2 rrcurveto
          3 3 2 2 2 hvcurveto
          9 -11 14 -71 callgsubr
          42 -10 70 51 60 79 19 5 19 4 17 5 21 7 16 9 15 10 rrcurveto
          24 16 14 23 0 vvcurveto
          19 30 10 27 0 vvcurveto
          hintmask 10101100
          -61 callsubr
          -143 261 rmoveto
          35 -58 -58 -203 0 vvcurveto
          -18 -61 -23 -48 -22 -38 -49 -14 -39 -21 -24 -20 9 78 33 105 49 120 rrcurveto
          61 148 46 12 0 vvcurveto
          hintmask 01011100
          -187 -512 rmoveto
          -8 1 -15 13 55 36 15 10 16 7 18 6 -36 -51 -32 -23 -13 1 rrcurveto
          endchar
        </CharString>
        <CharString name="E">
          -30 callgsubr
          35 hstem
          20 callgsubr
          vstem
          -105 callgsubr
          endchar
        </CharString>
        <CharString name="Eacute">
          -30 callgsubr
          35 31 53 hstem
          20 callgsubr
          vstem
          -105 callgsubr
          105 199 -103 callgsubr
        </CharString>
        <CharString name="Ecircumflex">
          -30 callgsubr
          35 35 41 hstem
          20 callgsubr
          vstem
          -105 callgsubr
          147 144 -107 callsubr
        </CharString>
        <CharString name="Edieresis">
          -30 callgsubr
          35 hstemhm
          23 58 154 83 74 73 62 42 2 25 1 42 hintmask 1111110100000000
          -105 callgsubr
          hintmask 1111111000000000
          65 190 rmoveto
          -11 3 -104 callsubr
          2 rrcurveto
          hintmask 1111110010000000
          70 -13 rmoveto
          -11 2 -104 callsubr
          3 rrcurveto
          endchar
        </CharString>
        <CharString name="Egrave">
          -30 callgsubr
          35 29 60 hstemhm
          20 callgsubr
          hintmask 11011110
          632 -19 callsubr
          -1 -72 callsubr
          -27 -51 -39 -40 vhcurveto
          -32 -31 -38 -20 -31 hhcurveto
          -166 10 callgsubr
          47 112 101 39 31 9 5 2 3 5 -2 5 -7 18 rcurveline
          -2 4 -3 3 -5 1 -14 4 -10 6 -6 7 rrcurveto
          hintmask 11111111
          -73 callsubr
          -32 14 -74 -21 -51 -81 rrcurveto
          0 -50 -77 40 -46 vhcurveto
          -168 -70 -131 51 -21 64 -18 52 26 46 15 21 7 10 3 12 -1 12 -3 28 -15 10 -8 75 callgsubr
          -3 -3 -15 -12 -44 -43 1 -82 2 -98 145 -137 263 114 rrcurveto
          13 -6 17 -4 21 -3 rrcurveto
          0 -130 -11 -78 -119 vhcurveto
          -79 -120 27 -164 186 1 rrcurveto
          120 1 74 159 0 vvcurveto
          24 43 15 43 0 vvcurveto
          hintmask 11011110
          4 13 -9 5 -6 2 rrcurveto
          hintmask 11111111
          -145 277 rmoveto
          24 38 46 51 14 -6 rrcurveto
          0 -9 -93 -97 -59 vhcurveto
          19 callgsubr
          -1 vhcurveto
          -3 32 26 37 0 vvcurveto
          hintmask 11011110
          86 201 -102 callsubr
        </CharString>
        <CharString name="Euro">
          87 7 48 187 31 29 31 172 58 hstemhm
          71 57 -56 52 141 16 hintmask 10111010
          281 518 rmoveto
          -14 19 -14 11 -12 7 rrcurveto
          6 -12 -12 2 -11 hhcurveto
          96 callgsubr
          -1 -2 0 -1 hhcurveto
          -43 -5 -31 -47 -15 -29 -3 -7 -6 -14 -6 -19 -3 -8 -2 -9 -3 -9 rrcurveto
          -2 -1 -3 -1 -4 vhcurveto
          -4 -14 -5 -26 -4 -34 rrcurveto
          -49 18 callgsubr
          41 hlineto
          hintmask 11111010
          -8 -1 -10 -11 vvcurveto
          hintmask 11110110
          -48 18 callgsubr
          43 hlineto
          -2 0 -1 -2 vvcurveto
          2 -25 4 -27 6 -27 rrcurveto
          0 2 -7 3 -12 vhcurveto
          0 1 -5 3 -6 vhcurveto
          1 -2 0 -3 1 -2 3 -6 10 -29 18 -27 11 -15 29 -34 40 -3 rrcurveto
          1 0 0 1 3 3 0 3 hhcurveto
          0 vlineto
          29 2 23 16 17 19 rrcurveto
          0 vlineto
          0 4 4 2 8 vhcurveto
          hintmask 11111010
          3 21 -6 18 -6 12 -4 6 -4 -3 -2 -3 -80 -109 -80 72 11 173 rrcurveto
          47 hlineto
          7 3 6 9 -1 hvcurveto
          hintmask 10111010
          9 -2 -6 6 -7 hhcurveto
          -37 hlineto
          1 11 2 10 1 8 rrcurveto
          40 hlineto
          7 3 7 9 -1 hvcurveto
          8 -2 -6 7 -7 hhcurveto
          -28 hlineto
          1 5 1 3 0 vvcurveto
          0 vlineto
          27 102 57 81 35 -23 rrcurveto
          19 -13 -29 -72 0 vvcurveto
          0 -19 -44 19 -26 vhcurveto
          0 vlineto
          4 -5 4 -4 4 -3 4 -2 8 -2 9 13 rrcurveto
          0 vlineto
          52 99 -53 76 0 vvcurveto
          endchar
        </CharString>
        <CharString name="F">
          200 323 44 172 53 hstem
          44 149 61 82 vstem
          330 534 rmoveto
          -7 -30 -10 -40 -12 -54 -12 -61 rlinecurve
          -28 -7 -30 -8 -12 1 rrcurveto
          -2 1 -2 -2 -2 vvcurveto
          1 -23 21 -14 18 6 9 3 9 2 9 3 -13 -72 -11 -79 -4 -76 -52 callgsubr
          -58 vhcurveto
          3 -7 4 -5 5 65 callgsubr
          -4 36 -13 136 47 234 rrcurveto
          8 8 0 8 hhcurveto
          14 -1 43 0 12 -16 3 -3 4 0 2 3 10 22 -2 29 -30 8 -23 5 -24 0 -24 -3 11 46 12 48 15 52 4 11 0 9 -2 6 104 3 37 -21 13 -11 rrcurveto
          4 -4 7 1 3 5 17 24 -10 27 -4 10 -2 4 -3 3 -3 2 -14 9 -30 2 -39 -1 rrcurveto
          -131 -3 -94 -32 0 vvcurveto
          -214 -61 -46 -171 43 -78 38 -70 57 -15 21 -4 5 89 callsubr
          -4 11 -9 8 -11 5 -23 11 -45 27 -11 54 -14 66 86 112 174 27 rrcurveto
          endchar
        </CharString>
        <CharString name="G">
          380 176 46 69 30 213 34 hstemhm
          19 57 160 82 214 55 24 7 hintmask 11011100
          hintmask 11011110
          594 216 rmoveto
          0 -41 11 -99 -8 vhcurveto
          -20 -1 -17 -1 -37 -2 rrcurveto
          0 -7 0 -3 8 vhcurveto
          -1 2 -2 0 -1 -1 rrcurveto
          -3 -4 -2 -4 -5 vvcurveto
          -13 3 -23 30 1 vhcurveto
          hintmask 11111100
          47 2 46 0 36 -2 17 -20 -9 -52 -18 -47 rrcurveto
          0 -56 -135 -70 14 vhcurveto
          -65 14 -50 199 115 172 20 7 21 9 21 10 rrcurveto
          0 43 19 39 34 vhcurveto
          29 25 29 37 5 34 rrcurveto
          10 58 -28 -41 callsubr
          -50 23 -145 -114 -84 -149 -120 -19 -84 42 -14 51 -14 52 28 46 16 21 8 10 4 12 -1 12 -1 26 -12 11 -9 4 -4 2 -6 0 -5 -4 -17 -14 -44 -42 -3 -80 rrcurveto
          -3 -79 88 -105 177 23 -25 -50 -17 -54 -3 -53 rrcurveto
          -13 -218 149 -11 0 vvcurveto
          0 122 -24 70 143 vhcurveto
          0 20 36 3 43 vhcurveto
          1 25 -4 25 -19 15 rrcurveto
          hintmask 11011110
          22 -4 14 -7 1 -12 1 -3 3 -2 2 3 1 1 1 1 1 1 rrcurveto
          0 23 56 -40 11 vhcurveto
          hintmask 11111100
          -23 318 rmoveto
          0 -15 -93 -99 -59 vhcurveto
          -14 -7 -14 -7 -13 -6 42 60 91 123 22 -11 rrcurveto
          endchar
        </CharString>
        <CharString name="H">
          291 139 29 hstem
          16 59 345 74 73 13 vstem
          567 -29 callgsubr
          -13 23 callsubr
          -2 -6 -10 -40 -40 -154 -22 -163 -35 -17 -34 -11 -32 -7 25 100 20 103 11 62 2 8 89 callgsubr
          -4 1 -4 -3 -1 -4 -24 -130 -25 -97 -24 -73 -92 -2 -66 38 -16 43 -18 52 24 47 14 21 7 10 3 12 -1 12 -4 27 -14 11 -9 3 -4 2 -5 0 -3 -3 rrcurveto
          -15 -13 -43 -43 3 -81 rrcurveto
          -72 3 81 -93 146 hhcurveto
          -51 -145 -44 -34 -19 -8 -5 -2 -2 -6 3 -5 19 -31 37 -4 19 1 rrcurveto
          11 10 5 8 7 hvcurveto
          29 34 30 93 26 101 32 6 35 10 37 16 -3 -32 -3 -33 -2 -31 -52 callgsubr
          -58 vhcurveto
          2 -7 4 -5 6 -4 11 -8 18 -12 18 -2 -10 callsubr
          12 -53 callsubr
          endchar
        </CharString>
        <CharString name="I">
          59 callgsubr
          hstem
          40 154 vstem
          -106 callgsubr
          endchar
        </CharString>
        <CharString name="Iacute">
          59 callgsubr
          33 53 hstem
          40 154 vstem
          -106 callgsubr
          6 151 -103 callgsubr
        </CharString>
        <CharString name="Icircumflex">
          59 callgsubr
          32 41 hstem
          40 154 vstem
          -106 callgsubr
          46 91 -107 callsubr
        </CharString>
        <CharString name="Idieresis">
          59 callgsubr
          hstemhm
          40 154 53 42 28 42 hintmask 11110000
          -106 callgsubr
          -42 148 rmoveto
          -11 3 -104 callsubr
          2 rrcurveto
          hintmask 11111000
          70 -13 rmoveto
          -11 2 -104 callsubr
          3 rrcurveto
          endchar
        </CharString>
        <CharString name="Igrave">
          59 callgsubr
          30 60 hstemhm
          40 154 hintmask 10110000
          hintmask 11110000
          -106 callgsubr
          hintmask 10110000
          -9 152 -102 callsubr
        </CharString>
        <CharString name="J">
          215 -207 35 -14 14 698 48 hstemhm
          35 33 hintmask 10110000
          506 496 rmoveto
          3 4 3 5 1 5 rrcurveto
          8 35 -54 24 0 vvcurveto
          -64 28 -28 -86 -7 -29 -39 15 -22 32 -9 18 -6 11 -9 8 -11 4 -28 11 -17 -10 -7 -6 -2 -3 -1 -3 1 -3 3 -17 17 -60 76 -36 13 -6 14 -4 15 -2 rrcurveto
          -19 -86 -49 -203 -61 -148 -77 -14 -48 -22 -28 -29 rrcurveto
          hintmask 01110000
          -70 -71 45 -44 0 vvcurveto
          hintmask 10110000
          71 -72 109 133 0 vvcurveto
          23 29 21 35 20 38 50 8 36 11 28 16 rrcurveto
          53 30 24 52 0 vvcurveto
          15 32 9 28 0 vvcurveto
          -61 callsubr
          -2 -2 -1 -1 hvcurveto
          -11 -29 -10 -24 -9 -19 rrcurveto
          0 -21 -48 -51 -25 vhcurveto
          -22 -10 -28 -7 -35 -5 80 165 50 211 15 70 18 10 18 15 18 20 rrcurveto
          -29 30 rmoveto
          4 4 -2 -3 hvcurveto
          3 -8 -9 -7 0 vvcurveto
          -6 -5 -6 -5 -7 -4 4 15 5 18 8 1 rrcurveto
          -319 -654 rmoveto
          0 -55 -72 -30 39 vhcurveto
          -22 29 58 48 0 vvcurveto
          27 24 43 15 35 8 -11 -23 -21 -39 -24 -29 rrcurveto
          endchar
        </CharString>
        <CharString name="K">
          393 243 62 110 43 68 46 hstem
          41 31 292 30 168 19 55 87 vstem
          714 446 rmoveto
          -19 19 -30 9 -27 -7 -5 -2 -3 -5 2 -4 15 -40 -27 -45 -24 -32 -27 -38 -35 -31 -40 -26 22 86 12 79 5 39 16 11 15 14 14 17 rrcurveto
          22 29 -19 30 0 vvcurveto
          -13 20 -28 3 0 vvcurveto
          -80 9 -15 -104 -2 -19 -42 -2 -36 10 -16 5 -57 20 -27 36 -13 22 -6 11 -10 8 -11 4 -29 10 -16 -10 -6 -6 -2 -2 -1 -3 1 -3 4 -18 21 -62 75 -37 rrcurveto
          30 -15 67 -19 68 8 -5 -32 -8 -47 -11 -53 -8 12 -6 11 -5 10 -1 3 -4 1 -3 -2 -17 -14 -17 -30 25 -40 6 -9 6 -10 6 -10 -19 -74 -25 -75 -32 -52 rrcurveto
          0 -44 -79 -84 14 vhcurveto
          -130 23 11 159 0 vvcurveto
          3 52 23 42 27 15 47 26 51 -18 23 -11 11 -5 13 -1 11 3 26 8 8 16 2 9 1 4 -2 5 -3 3 -16 13 -50 35 -79 -15 -57 -11 -65 -71 -5 -100 rrcurveto
          0 -15 -178 163 -31 vhcurveto
          135 -24 69 111 0 vvcurveto
          22 31 19 37 16 40 36 -71 27 -68 7 -54 rrcurveto
          -5 5 -4 5 1 vhcurveto
          32 4 51 32 -12 44 rrcurveto
          0 -11 58 -102 134 vhcurveto
          19 callgsubr
          -1 vhcurveto
          14 7 14 7 14 8 52 30 46 38 39 46 26 30 25 35 6 39 2 11 -3 11 -8 7 rrcurveto
          -161 80 rmoveto
          4 4 -2 -3 1 hvcurveto
          3 -8 -8 -7 0 vvcurveto
          -6 -6 -7 -5 -6 -5 2 15 5 20 8 1 rrcurveto
          endchar
        </CharString>
        <CharString name="L">
          271 -125 22 74 41 10 -21 290 29 217 36 hstemhm
          30 58 490 25 hintmask 10111110
          700 -53 rmoveto
          -26 -2 -90 -4 -105 29 -47 12 -42 11 -39 8 rrcurveto
          39 76 16 80 0 vvcurveto
          20 83 15 56 14 45 4 2 4 2 4 2 rrcurveto
          0 42 19 37 34 vhcurveto
          27 25 25 37 5 34 rrcurveto
          9 59 -31 -46 callsubr
          -32 14 -48 -17 -40 -49 rrcurveto
          0 -55 -56 -40 -123 vhcurveto
          -144 -43 -109 47 -19 58 -18 52 26 46 15 21 7 10 3 12 -1 12 -3 28 -15 10 -8 75 callgsubr
          -3 -3 -15 -12 -44 -43 1 -82 2 -87 114 -118 210 55 rrcurveto
          -10 -38 -11 -47 -8 -41 rrcurveto
          hintmask 11011110
          0 -21 -89 -30 -78 vhcurveto
          -36 3 -31 -4 -27 -13 -72 -36 26 -47 20 -23 9 -10 13 -6 14 -1 57 -2 43 37 33 47 100 -31 126 -72 95 6 17 1 15 10 9 15 rrcurveto
          hintmask 10111110
          9 14 9 20 2 20 rrcurveto
          4 -3 3 -4 vhcurveto
          -233 432 rmoveto
          22 70 15 25 0 vvcurveto
          25 48 41 22 8 -7 rrcurveto
          0 -7 -72 -64 -57 vhcurveto
          0 -24 -20 -16 -9 vhcurveto
          hintmask 11011110
          -289 -479 rmoveto
          0 -19 79 100 -8 vhcurveto
          -24 -50 -28 -35 -29 14 rrcurveto
          endchar
        </CharString>
        <CharString name="M">
          434 21 -21 568 9 hstem
          48 153 340 82 72 13 vstem
          695 561 rmoveto
          -18 -79 callsubr
          rrcurveto
          0 -119 -231 -39 -272 vhcurveto
          -24 78 -27 131 7 166 2 9 89 callgsubr
          -2 -1 0 -1 -2 hvcurveto
          -306 -34 -57 -206 51 -88 41 -70 59 -14 19 -2 4 -1 5 2 2 4 6 8 6 16 -11 26 -6 10 -9 9 -11 5 -23 9 -45 27 -13 54 -15 70 95 125 199 20 rrcurveto
          -79 -409 -85 -70 -27 -12 -5 -3 -2 -6 3 -4 rrcurveto
          -31 19 37 -4 19 hhcurveto
          11 1 10 5 7 8 38 45 40 149 31 135 4 -110 11 -119 27 -18 rrcurveto
          0 27 -16 28 -2 vhcurveto
          6 5 5 6 -1 hvcurveto
          1 5 19 194 71 187 -18 -89 -18 -108 -5 -100 -26 callsubr
          23 -59 vhcurveto
          3 -81 callsubr
          -6 44 -18 205 101 352 54 callgsubr
          endchar
        </CharString>
        <CharString name="N">
          369 -96 673 hstem
          47 153 297 76 73 13 vstem
          -98 callgsubr
          12 -53 callsubr
          endchar
        </CharString>
        <CharString name="NULL">
          -267 endchar
        </CharString>
        <CharString name="Ntilde">
          369 616 52 hstemhm
          47 153 297 76 0 12 61 13 hintmask 11101000
          -98 callgsubr
          hintmask 11011000
          12 -53 callsubr
          -78 81 -101 callsubr
        </CharString>
        <CharString name="O">
          8 callsubr
          -50 callgsubr
          hintmask 10110100
          63 callsubr
          hintmask 11111100
          -104 callgsubr
          rrcurveto
          14 -15 callgsubr
          hintmask 10110100
          -77 callgsubr
          hintmask 11111100
          -20 71 -95 callgsubr
          hintmask 10110100
          -100 callgsubr
          endchar
        </CharString>
        <CharString name="OE">
          764 -92 28 356 29 213 35 hstemhm
          26 59 197 84 202 28 21 44 89 74 105 26 hintmask 1111101110000000
          991 -65 callgsubr
          hvcurveto
          -15 -40 -14 14 callsubr
          47 112 101 39 32 9 5 2 2 5 -2 5 -7 18 rcurveline
          -2 4 -3 3 -4 1 -14 4 -10 6 -7 7 15 8 25 16 23 21 27 25 27 37 4 34 rrcurveto
          5 26 callgsubr
          13 -5 vhcurveto
          13 -6 16 -4 22 -3 rrcurveto
          0 -104 -9 -78 -87 vhcurveto
          9 169 -54 53 -28 16 rrcurveto
          hintmask 1111111110000000
          5 12 3 11 11 vvcurveto
          2 58 -29 -41 callsubr
          -52 23 -132 -114 -65 -149 -118 -20 -89 43 -20 50 -21 53 23 46 13 21 7 10 2 12 -2 12 -4 26 -14 10 1 callsubr
          -5 -1 -4 -3 -16 -14 -39 -43 7 -79 rrcurveto
          6 -80 101 -104 174 23 -18 -51 -11 -53 4 -53 rrcurveto
          14 -15 callgsubr
          0 94 -19 64 108 vhcurveto
          -53 22 53 -37 89 hhcurveto
          120 1 75 159 0 vvcurveto
          23 43 15 43 0 vvcurveto
          hintmask 1111101110000000
          -61 callsubr
          -168 208 rmoveto
          -3 39 callgsubr
          -1 19 callgsubr
          hvcurveto
          hintmask 1111111110000000
          -255 152 -95 callgsubr
          -110 -597 rmoveto
          -68 14 -74 198 95 173 19 7 19 9 20 10 rrcurveto
          hintmask 1111101110000000
          0 40 19 36 34 vhcurveto
          10 10 10 12 8 12 22 -17 callsubr
          hintmask 1111111110000000
          -37 -266 -114 32 0 vvcurveto
          endchar
        </CharString>
        <CharString name="Oacute">
          8 callsubr
          28 53 -50 callgsubr
          hintmask 10111010
          63 callsubr
          hintmask 11111110
          -104 callgsubr
          rrcurveto
          14 -15 callgsubr
          hintmask 10111010
          -77 callgsubr
          hintmask 11111110
          -20 71 -95 callgsubr
          hintmask 10111010
          -100 callgsubr
          -26 476 -103 callgsubr
        </CharString>
        <CharString name="Ocircumflex">
          8 callsubr
          37 41 -50 callgsubr
          hintmask 11111010
          63 callsubr
          hintmask 11111110
          -104 callgsubr
          rrcurveto
          14 -15 callgsubr
          hintmask 11111010
          -77 callgsubr
          hintmask 11111110
          -20 71 -95 callgsubr
          hintmask 11111010
          -100 callgsubr
          16 426 -107 callsubr
        </CharString>
        <CharString name="Odieresis">
          8 callsubr
          hstemhm
          18 59 197 84 146 42 14 28 -14 42 -7 44 hintmask 10110001
          63 callsubr
          hintmask 11110101
          -104 callgsubr
          rrcurveto
          14 -15 callgsubr
          hintmask 10110001
          -77 callgsubr
          hintmask 11110101
          -20 71 -95 callgsubr
          hintmask 10111001
          -100 callgsubr
          -72 472 rmoveto
          -11 3 -104 callsubr
          2 rrcurveto
          hintmask 10110010
          70 -13 rmoveto
          -11 2 -104 callsubr
          3 rrcurveto
          endchar
        </CharString>
        <CharString name="Ograve">
          8 callsubr
          31 60 -50 callgsubr
          hintmask 11111010
          63 callsubr
          hintmask 11111110
          -104 callgsubr
          rrcurveto
          14 -15 callgsubr
          hintmask 11111010
          -77 callgsubr
          hintmask 11111110
          -20 71 -95 callgsubr
          hintmask 11111010
          -100 callgsubr
          -48 483 -102 callsubr
        </CharString>
        <CharString name="Oslash">
          436 -91 28 355 29 213 35 -50 callgsubr
          hintmask 01011010
          hintmask 11111110
          63 callsubr
          -104 callgsubr
          5 -85 26 -53 30 -33 -6 -10 -5 -12 -3 -14 -3 -8 1 -15 6 -4 19 -12 6 12 10 14 10 17 rcurveline
          36 -23 32 -3 0 vvcurveto
          hintmask 11011010
          0 176 -35 34 301 vhcurveto
          14 127 -17 72 -22 42 rrcurveto
          hintmask 01011110
          18 38 13 29 5 13 rrcurveto
          1 0 1 1 1 vhcurveto
          3 11 -1 20 -18 12 -16 10 2 -21 -3 -6 -35 -71 rcurveline
          hintmask 11111110
          -4 4 -5 3 -3 2 rrcurveto
          hintmask 11011010
          21 -292 rmoveto
          -37 -266 -114 32 0 vvcurveto
          -18 4 -18 16 -16 25 5 6 rcurveline
          19 30 107 206 70 142 10 -41 5 -62 -13 -92 rrcurveto
          -226 -138 rmoveto
          -26 77 -2 110 56 102 19 7 19 9 20 10 rrcurveto
          0 41 19 35 34 vhcurveto
          10 10 10 12 8 12 11 -13 rcurveline
          -60 -119 -93 -181 -48 -89 rrcurveto
          hintmask 01111110
          185 501 -95 callgsubr
          endchar
        </CharString>
        <CharString name="Otilde">
          8 callsubr
          23 52 -50 callgsubr
          -41 12 hintmask 10011010
          63 callsubr
          hintmask 11011110
          -104 callgsubr
          rrcurveto
          14 -15 callgsubr
          hintmask 10011010
          -77 callgsubr
          hintmask 11011110
          -20 71 -95 callgsubr
          hintmask 10011010
          -100 callgsubr
          hintmask 10111001
          6 447 -101 callsubr
        </CharString>
        <CharString name="P">
          157 134 24 77 20 208 25 hstemhm
          40 83 37 22 13 12 135 65 hintmask 01110110
          455 259 rmoveto
          -24 -1 -39 -3 0 vvcurveto
          -10 -1 -8 -1 -8 -1 22 32 15 33 4 30 rrcurveto
          14 96 -112 42 0 vvcurveto
          -38 13 -26 -35 0 vvcurveto
          -49 -67 -34 -90 -23 -84 12 83 21 99 32 114 rrcurveto
          10 callsubr
          -19 -79 callsubr
          -13 -50 -60 -234 -11 -202 4 callgsubr
          2 -81 callsubr
          -1 9 -2 17 -1 24 rrcurveto
          hintmask 11111110
          1 53 11 66 20 77 rrcurveto
          2 -21 23 -8 0 vvcurveto
          54 -8 67 45 47 57 17 2 16 2 13 1 48 4 rcurveline
          6 1 4 2 3 4 2 4 1 4 1 3 rrcurveto
          hintmask 01110110
          1 2 -2 3 -3 -1 rrcurveto
          hintmask 11111110
          -295 -74 rmoveto
          9 31 9 33 11 34 rrcurveto
          49 152 45 16 0 vvcurveto
          0 87 -35 -38 -87 vhcurveto
          -13 -31 -17 -30 -18 -27 -60 -11 -48 -22 -16 -23 rrcurveto
          30 -27 rmoveto
          -8 -15 19 25 61 hvcurveto
          12 5 12 4 12 3 -27 -35 -28 -23 -19 2 rrcurveto
          endchar
        </CharString>
        <CharString name="Q">
          440 -117 46 363 29 213 35 hstemhm
          21 59 197 84 202 28 21 45 hintmask 11111010
          584 463 rmoveto
          hintmask 11111110
          4 12 3 11 11 vvcurveto
          2 58 -29 -41 callsubr
          -52 23 -131 -114 -66 -149 -118 -20 -89 43 -20 50 -21 53 23 46 13 21 7 10 2 12 -2 12 -4 26 -13 10 1 callsubr
          -6 0 -4 -4 -15 -14 -39 -43 6 -79 rrcurveto
          6 -80 102 -104 173 23 -18 -51 -10 -53 3 -53 8 -128 55 -56 44 -25 -19 1 -18 -1 -18 -4 -30 -8 -2 -29 10 -22 2 -3 4 0 3 3 12 16 43 0 14 1 rrcurveto
          hintmask 11111010
          47 1 50 -9 43 -14 18 -6 21 14 1 24 rrcurveto
          1 -2 2 -2 -1 vhcurveto
          -13 -1 -33 9 -31 7 55 11 89 49 24 205 23 209 -61 62 -30 17 rrcurveto
          hintmask 11111110
          -21 71 rmoveto
          0 -3 -93 -93 -58 vhcurveto
          -12 -7 -13 -7 -13 -6 35 60 76 122 23 -11 rrcurveto
          hintmask 11111010
          41 -363 rmoveto
          -37 -266 -114 32 0 vvcurveto
          -67 14 -75 198 95 173 19 7 19 9 21 10 rrcurveto
          0 40 19 35 34 vhcurveto
          10 10 10 12 9 12 21 -17 callsubr
          endchar
        </CharString>
        <CharString name="R">
          118 171 27 265 25 hstem
          37 83 72 13 111 68 vstem
          306 485 rmoveto
          -38 13 -26 -35 0 vvcurveto
          -49 -67 -33 -90 -23 -84 12 83 20 99 33 114 54 callgsubr
          -19 11 -24 4 -14 23 callsubr
          -1 -6 -14 -50 -60 -234 -11 -202 4 callgsubr
          3 -6 91 callsubr
          104 callgsubr
          -1 9 -2 17 -1 24 1 46 9 57 15 64 54 -75 52 -85 12 -60 rrcurveto
          -4 4 -2 4 vhcurveto
          22 5 35 25 -11 31 rrcurveto
          0 -11 41 -80 90 vhcurveto
          -11 13 -29 33 -19 26 rrcurveto
          3 -1 1 0 0 vvcurveto
          89 -12 112 92 12 96 rrcurveto
          12 101 -90 37 0 vvcurveto
          -2 -156 rmoveto
          -34 -89 -57 -46 -36 4 rrcurveto
          0 -9 0 -5 5 vhcurveto
          7 26 8 26 9 28 rrcurveto
          48 152 45 16 0 vvcurveto
          0 61 -21 -37 -101 vhcurveto
          endchar
        </CharString>
        <CharString name="S">
          236 -94 57 172 41 hstemhm
          19 71 -24 25 hintmask 11010000
          360 253 rmoveto
          -20 31 -14 25 1 vhcurveto
          4 3 2 4 1 hvcurveto
          13 50 82 135 -4 50 -3 42 -21 33 -12 16 rrcurveto
          0 -24 30 -46 -11 vhcurveto
          hintmask 11100000
          -45 -12 -208 -73 -133 -297 -7 -16 2 -20 10 -16 12 -20 21 -24 32 -6 rrcurveto
          0 59 -5 103 35 vhcurveto
          84 28 56 -10 -8 -12 rrcurveto
          hintmask 11010000
          -111 -166 -185 6 0 vvcurveto
          15 51 112 7 21 7 4 2 6 12 -6 9 -5 10 -12 6 -9 2 -6 2 -6 0 -6 -1 -80 -14 -38 -51 -12 -22 -3 -5 -1 -6 1 -6 6 -29 23 -16 6 -4 rrcurveto
          1 -1 1 0 1 -1 rrcurveto
          69 -28 100 45 0 vvcurveto
          109 51 35 82 6 31 3 18 -19 40 -17 9 rrcurveto
          hintmask 11100000
          -71 39 -192 -60 -17 -3 rrcurveto
          -21 -3 1 8 0 vvcurveto
          175 339 200 39 0 vvcurveto
          hintmask 11010000
          11 -31 -117 -191 1 -47 rrcurveto
          endchar
        </CharString>
        <CharString name="T">
          169 539 53 hstem
          41 150 61 82 vstem
          588 573 rmoveto
          -1 4 -3 3 -3 2 -14 9 -30 2 -39 -1 rrcurveto
          -131 -4 -94 -31 0 vvcurveto
          -214 -62 -46 -170 42 -78 39 -70 57 -15 20 -4 6 89 callsubr
          -5 10 -9 9 -10 5 -23 11 -46 27 -11 54 -13 66 85 112 175 27 rrcurveto
          -1 0 0 -1 -1 vhcurveto
          -21 -83 -44 -193 -10 -174 4 callgsubr
          2 -6 5 -5 5 -4 11 -8 18 104 callgsubr
          -6 44 -18 200 100 352 4 11 0 8 -1 7 104 2 37 -20 13 -11 4 -4 7 1 3 4 17 24 -10 28 -5 10 rrcurveto
          endchar
        </CharString>
        <CharString name="U">
          382 -93 670 hstem
          41 153 80 71 145 82 73 12 vstem
          -106 callsubr
          10 callsubr
          endchar
        </CharString>
        <CharString name="Uacute">
          382 607 53 hstem
          41 153 80 71 145 82 73 12 vstem
          -106 callsubr
          10 callsubr
          -89 96 -103 callgsubr
        </CharString>
        <CharString name="Ucircumflex">
          382 625 41 hstem
          41 153 80 71 145 82 73 12 vstem
          -106 callsubr
          10 callsubr
          -46 55 -107 callsubr
        </CharString>
        <CharString name="Udieresis">
          382 -93 754 hstemhm
          41 153 80 71 132 42 -29 82 -25 42 56 12 hintmask 11101010
          -106 callsubr
          hintmask 11110010
          10 callsubr
          -143 100 -36 callsubr
          hintmask 11100110
          -75 callsubr
        </CharString>
        <CharString name="Ugrave">
          382 618 60 hstem
          41 153 80 71 145 82 73 12 vstem
          -106 callsubr
          10 callsubr
          -136 111 -102 callsubr
        </CharString>
        <CharString name="V">
          375 -97 670 hstem
          42 153 124 54 171 93 vstem
          637 492 rmoveto
          -2 28 -17 26 -25 12 -11 6 -13 5 -16 4 -7 2 -8 -6 1 -8 6 -44 10 -130 -48 -176 -38 -137 -56 -89 -27 -34 -37 376 54 100 20 17 4 3 0 6 -3 3 rrcurveto
          -17 15 -21 1 -16 -2 -305 -35 -58 -205 51 -88 41 -71 59 -13 19 -3 rrcurveto
          5 4 2 3 2 hvcurveto
          6 8 7 17 -12 25 -5 11 -9 9 -11 4 -23 10 -46 26 -12 55 -15 65 84 115 176 30 -25 -94 32 -317 10 -101 1 -3 2 -3 3 -2 5 -4 9 -6 9 -2 rrcurveto
          4 -1 3 1 3 2 102 75 63 101 38 109 rrcurveto
          0 58 166 -8 136 vhcurveto
          endchar
        </CharString>
        <CharString name="W">
          568 -96 677 hstemhm
          42 153 162 72 -23 75 58 87 114 93 hintmask 10011100
          713 218 rmoveto
          -38 -169 -69 -98 -15 -13 -9 67 35 142 9 68 4 23 -9 23 -18 15 -8 6 -8 5 -10 3 -6 2 -6 -3 -3 -5 rrcurveto
          hintmask 10101100
          -25 -46 -76 -142 -32 -99 rrcurveto
          hintmask 11011100
          -10 100 80 157 -22 120 rrcurveto
          -24 134 -123 -21 0 vvcurveto
          -271 -46 -50 -192 49 -84 41 -70 59 -14 19 -2 4 -1 5 2 2 3 6 9 6 16 -11 25 -6 11 -9 9 -11 4 -23 10 -45 26 -13 55 -15 70 74 121 205 18 rrcurveto
          0 79 -10 -23 -131 vhcurveto
          hintmask 10101100
          -23 -131 -33 -79 11 -79 rrcurveto
          0 9 -57 79 -20 vhcurveto
          7 -2 5 3 2 5 8 26 39 124 39 89 rrcurveto
          -8 -58 2 -47 0 vvcurveto
          6 -97 8 -47 11 -23 2 -3 2 -3 3 -2 5 -4 9 -5 9 -2 4 -1 4 1 2 2 99 80 58 104 33 110 rrcurveto
          0 51 168 -15 136 vhcurveto
          -3 28 -17 25 -26 11 -11 5 -13 5 -16 3 -8 2 -7 -7 1 -7 rrcurveto
          hintmask 10011100
          8 -44 15 -129 -40 -178 rrcurveto
          endchar
        </CharString>
        <CharString name="X">
          242 444 27 hstem
          41 45 64 80 91 73 vstem
          596 581 rmoveto
          -5 1 -6 -3 -1 -5 -23 -78 -77 -104 -81 -94 13 82 26 56 8 8 4 3 -1 6 -4 3 rrcurveto
          12 -12 -15 3 -13 hhcurveto
          -308 15 -89 -194 36 -95 29 -76 56 -23 19 -5 4 -2 5 2 3 3 6 7 10 15 -8 27 -3 12 -8 9 -10 7 -21 13 -41 33 -3 56 -4 66 99 99 175 4 rrcurveto
          -20 -55 -15 -87 -92 vvcurveto
          -12 -9 -12 -10 -12 -10 -42 -38 -35 -44 -26 -48 -18 -33 -15 -37 1 -37 1 -10 4 -9 9 -6 21 -13 29 -2 23 12 5 2 1 5 -2 4 -22 33 16 47 15 33 rrcurveto
          18 39 25 35 31 31 6 -78 19 -77 37 -57 18 -23 33 -3 20 1 rrcurveto
          5 3 5 4 -2 hvcurveto
          -55 97 -16 100 2 87 26 36 65 62 23 21 rrcurveto
          123 115 21 55 0 vvcurveto
          20 42 -46 39 -30 10 rrcurveto
          endchar
        </CharString>
        <CharString name="Y">
          37 callgsubr
          -101 callgsubr
          92 callsubr
          endchar
        </CharString>
        <CharString name="Yacute">
          385 -207 35 -14 14 326 19 433 53 hstemhm
          42 152 39 33 9 70 hintmask 10110100
          667 173 rmoveto
          -1 -41 callgsubr
          -11 -29 -9 -23 -9 -19 rrcurveto
          0 -17 -43 -62 -33 vhcurveto
          -17 -10 -14 -5 -19 -3 rrcurveto
          96 197 52 262 0 vvcurveto
          16 62 -19 21 0 vvcurveto
          23 -18 -23 3 -16 hhcurveto
          -7 -4 -4 -6 -1 hvcurveto
          hintmask 10111110
          -187 -537 -44 8 0 vvcurveto
          -13 12 19 123 0 vvcurveto
          10 71 18 89 28 112 4 13 -9 13 -13 1 rrcurveto
          1 -9 -8 0 -6 hhcurveto
          96 callgsubr
          97 callsubr
          -57 -206 51 -88 40 -71 59 -13 20 -3 rrcurveto
          4 108 callgsubr
          hvcurveto
          5 8 7 17 -12 25 -5 11 -9 8 -11 5 -23 10 -46 26 -12 54 -15 69 91 121 190 24 -17 -65 -25 -101 -19 -98 rrcurveto
          0 -27 -123 26 -31 vhcurveto
          0 39 -45 30 10 vhcurveto
          63 40 76 232 53 140 rrcurveto
          hintmask 01110100
          -22 -93 -45 -176 -55 -135 -77 -14 -48 -22 -29 -28 rrcurveto
          hintmask 10110100
          -69 -71 45 -44 0 vvcurveto
          70 -72 110 133 0 vvcurveto
          23 29 21 35 20 38 40 7 20 11 21 11 rrcurveto
          52 28 29 60 0 vvcurveto
          15 32 10 28 0 vvcurveto
          4 13 -9 5 -6 1 rrcurveto
          -311 -301 rmoveto
          0 -56 -72 -29 39 vhcurveto
          -22 29 58 47 0 vvcurveto
          27 25 43 15 34 8 92 callsubr
          203 784 -103 callgsubr
        </CharString>
        <CharString name="Ydieresis">
          37 callgsubr
          230 42 28 42 -101 callgsubr
          rrcurveto
          hintmask 10101010
          92 callsubr
          244 766 -36 callsubr
          hintmask 10101001
          -75 callsubr
        </CharString>
        <CharString name="Z">
          99 -100 52 593 29 hstem
          37 437 vstem
          469 508 rmoveto
          -15 20 -21 14 -10 6 -3 2 -4 2 -4 1 -279 77 -113 -154 19 -98 16 -81 52 -37 17 -11 4 -2 5 0 3 2 8 5 12 12 -3 28 -1 12 -6 11 -9 9 rrcurveto
          -19 19 -35 43 7 54 7 67 120 69 180 -49 -62 -71 -184 -215 -69 -153 rrcurveto
          0 -36 -78 2 -51 vhcurveto
          3 -14 12 -27 24 -5 93 -13 90 -8 34 11 8 3 6 6 2 8 4 14 4 27 -22 24 -3 3 -5 1 -3 -3 -10 -12 -41 -34 -149 10 20 66 74 159 272 288 rrcurveto
          23 24 -15 19 0 vvcurveto
          endchar
        </CharString>
        <CharString name="_152">
          397 0 37 -16 -21 280 10 -9 28 -13 7 hstemhm
          0 75 69 72 0 7 28 15 hintmask 0101011010000000
          608 277 rmoveto
          -71 callsubr
          -20 -37 -26 -47 -9 7 rrcurveto
          -14 9 15 91 0 vvcurveto
          hintmask 0100111010000000
          9 67 22 73 7 16 rrcurveto
          15 29 -25 14 -65 callsubr
          0 2 -38 12 -20 vhcurveto
          hintmask 0101010110000000
          24 callsubr
          102 46 48 -25 42 13 callsubr
          hintmask 0101011010000000
          -49 callgsubr
          -455 -63 rmoveto
          -4 -19 -3 -17 -1 -16 rrcurveto
          hintmask 1010011010000000
          -8 -28 -33 -98 -19 1 rrcurveto
          83 callsubr
          20 -53 callgsubr
          hintmask 0101011010000000
          -21 callsubr
          endchar
        </CharString>
        <CharString name="_153">
          289 125 22 133 24 hstemhm
          -1 77 50 13 30 81 246 50 hintmask 11101100
          546 21 rmoveto
          -7 77 -113 96 -191 -72 3 13 rcurveline
          17 callsubr
          hintmask 11111100
          -20 74 -70 -8 0 vvcurveto
          -29 -1 -25 -32 -17 -29 9 64 16 79 24 95 rrcurveto
          11 33 -21 10 -47 callgsubr
          -1 hvcurveto
          -11 -31 -50 -152 -7 30 callsubr
          22 3 rrcurveto
          9 -3 8 0 0 vvcurveto
          43 3 51 52 24 70 131 59 108 -37 22 -51 18 -43 -19 -41 -11 -18 -5 -8 -2 -11 2 -10 4 -21 11 -9 8 90 callgsubr
          rrcurveto
          hintmask 11101100
          13 12 32 38 -6 67 rrcurveto
          -460 -17 rmoveto
          -1 3 -1 2 4 vvcurveto
          5 8 14 22 29 18 -16 -35 -17 -17 -13 -5 rrcurveto
          74 152 rmoveto
          -5 -25 -5 -21 -6 -18 -33 -14 -20 -16 -12 -14 -3 27 -1 36 4 47 7 22 32 93 41 7 -18 callgsubr
          endchar
        </CharString>
        <CharString name="_154">
          335 86 callgsubr
          80 75 20 hintmask 11011100
          145 9 rmoveto
          -86 11 24 125 0 vvcurveto
          hintmask 11101100
          21 -53 callgsubr
          hintmask 11011100
          82 callsubr
          -1 -3 5 -2 3 3 8 9 rcurveline
          -12 callsubr
          29 -49 81 2 vhcurveto
          19 1 19 11 13 17 rrcurveto
          11 13 10 14 0 vvcurveto
          93 51 callsubr
          4 -10 6 -8 14 -17 14 -2 8 1 rrcurveto
          5 4 3 4 1 hvcurveto
          5 17 11 49 -38 45 callgsubr
          -10 -13 -14 -10 -7 1 rrcurveto
          endchar
        </CharString>
        <CharString name="_155">
          411 -3 26 -23 37 -16 -21 281 28 -27 23 hstemhm
          1 77 68 77 49 13 hintmask 00110111
          618 277 rmoveto
          -55 -83 callgsubr
          hintmask 10001111
          0 -13 -23 -14 -27 vhcurveto
          -20 -37 -25 -45 -11 5 rrcurveto
          -18 9 117 0 hvcurveto
          -44 callgsubr
          -51 -28 0 vvcurveto
          -35 -23 -17 -83 0 vvcurveto
          hintmask 00110111
          29 callgsubr
          hintmask 10010111
          0 3 -35 11 -27 vhcurveto
          18 -34 47 -7 0 vvcurveto
          26 -6 33 51 22 41 rrcurveto
          14 25 12 24 0 vvcurveto
          63 121 103 46 48 -25 42 -21 11 -42 4 -21 1 -10 5 -10 8 -6 17 -14 15 1 8 3 4 1 3 4 1 4 rrcurveto
          hintmask 00110111
          1 17 1 50 -49 47 rrcurveto
          -472 -106 rmoveto
          hintmask 01001111
          0 vlineto
          -11 -1 -34 -123 -21 hhcurveto
          77 callgsubr
          hintmask 00110111
          13 -5 4 -23 -18 vvcurveto
          -2 -21 -2 -22 -1 -22 rrcurveto
          endchar
        </CharString>
        <CharString name="_156">
          327 86 callgsubr
          81 71 22 hintmask 11011100
          144 9 rmoveto
          -68 72 callgsubr
          10 47 callsubr
          -31 16 0 vvcurveto
          -34 20 -52 -26 0 vvcurveto
          -36 -22 -20 -82 0 vvcurveto
          0 -26 -98 45 -60 vhcurveto
          0 29 -49 81 2 vhcurveto
          0 vlineto
          19 1 19 11 13 17 rrcurveto
          11 13 9 14 0 vvcurveto
          94 51 callsubr
          3 -10 7 -8 13 -17 15 -2 8 1 rrcurveto
          5 3 3 4 2 hvcurveto
          5 17 10 49 -37 45 callgsubr
          hintmask 11101100
          -11 -13 -13 -10 -8 1 rrcurveto
          0 vlineto
          -5 271 rmoveto
          0 24 -20 -17 -49 vhcurveto
          -14 -38 -29 -14 -18 -5 rrcurveto
          21 95 33 31 0 vvcurveto
          endchar
        </CharString>
        <CharString name="_157">
          169 196 22 hstemhm
          -9 71 -10 20 18 50 1 13 223 50 hintmask 10010100
          427 92 rmoveto
          -8 81 -123 101 -208 -92 rrcurveto
          hintmask 11001100
          12 65 20 79 30 97 -28 callgsubr
          hintmask 10110100
          0 49 10 19 44 vhcurveto
          hintmask 10010100
          94 callgsubr
          -3 4 rcurveline
          135 65 113 -38 21 -52 19 -44 -19 -40 -11 -18 -5 -9 -2 -10 1 -10 4 -21 12 -9 8 90 callgsubr
          12 12 33 38 -6 67 rrcurveto
          -357 -220 rmoveto
          hintmask 11010100
          -16 -2 13 151 5 47 rrcurveto
          hintmask 10010100
          73 callsubr
          -16 -2 rrcurveto
          endchar
        </CharString>
        <CharString name="_158">
          411 -32 callgsubr
          25 -6 88 callgsubr
          1 75 -64 57 85 64 33 15 hintmask 1000110010110000
          623 -57 callsubr
          hintmask 1010000110110000
          0 -12 -23 -15 -27 vhcurveto
          -20 -38 -23 -40 -12 1 -50 13 60 230 15 98 callgsubr
          -25 14 0 callgsubr
          -8 -20 -8 -19 -6 -18 rrcurveto
          -7 15 -13 -88 callgsubr
          hintmask 1000110010110000
          36 callgsubr
          41 -41 25 5 0 vvcurveto
          17 1 20 51 13 40 rrcurveto
          hintmask 1100110001110000
          -3 -26 -4 -44 -7 -42 -59 callgsubr
          -13 -64 callgsubr
          hintmask 1010010010110000
          44 -14 32 57 23 -72 callgsubr
          -42 11 4 10 2 11 3 10 rrcurveto
          21 -15 12 1 -87 callsubr
          rrcurveto
          hintmask 1000110010110000
          -49 callgsubr
          hintmask 1100110001110000
          -548 -406 rmoveto
          27 callgsubr
          -11 59 callsubr
          79 366 rmoveto
          -5 -23 -3 -21 -1 -19 rrcurveto
          hintmask 1001001010110000
          -10 -34 -31 -87 -18 1 rrcurveto
          83 callsubr
          21 -53 callgsubr
          hintmask 1100110001110000
          17 -7 -1 -38 -2 -15 rrcurveto
          endchar
        </CharString>
        <CharString name="_159">
          395 -19 24 258 29 hstemhm
          -2 99 25 14 -4 71 -46 75 hintmask 11101000
          606 -27 callgsubr
          -36 -23 -41 -12 -1 -33 27 17 108 21 67 rrcurveto
          hintmask 11100100
          84 callgsubr
          -65 13 -44 -246 0 vvcurveto
          3 79 19 124 43 166 rrcurveto
          hintmask 11110000
          10 33 -21 10 0 vvcurveto
          hintmask 11100100
          -83 callsubr
          -11 -31 -48 36 callsubr
          -3 -71 25 49 callgsubr
          0 -9 -27 -4 -16 vhcurveto
          hintmask 11101000
          -17 -80 4 -68 8 -27 61 callsubr
          6 -7 6 -5 5 -4 5 -5 6 -4 5 -3 9 -5 7 -2 5 -1 rrcurveto
          2 -1 1 0 -82 callsubr
          108 callgsubr
          1 5 66 callsubr
        </CharString>
        <CharString name="_160">
          271 263 29 20 -20 25 47 hstemhm
          0 72 -14 73 -32 14 hintmask 10010000
          hintmask 10110100
          74 324 rmoveto
          hintmask 10101000
          26 callsubr
          19 -58 20 -12 -15 vhcurveto
          hintmask 10110100
          -13 74 callgsubr
          401 -64 rmoveto
          hintmask 10010000
          -22 callgsubr
          -13 -23 -14 -27 vhcurveto
          -20 -37 -24 -43 -11 2 rrcurveto
          hintmask 01010000
          -43 35 46 172 18 42 rrcurveto
          hintmask 01010100
          12 -73 callgsubr
          hintmask 01010000
          -85 callgsubr
          84 callsubr
          -47 -110 6 -108 10 -36 61 callsubr
          30 -31 20 -5 7 -1 rrcurveto
          0 1 0 0 vhcurveto
          23 callgsubr
          12 23 0 vvcurveto
          hintmask 10010000
          63 122 103 -9 callsubr
          1 -10 6 -9 7 -24 callgsubr
          rrcurveto
          hintmask 10110100
          66 callsubr
        </CharString>
        <CharString name="_161">
          265 -65 14 11 24 279 29 20 -20 25 47 hstemhm
          -133 57 76 72 -15 74 -32 14 hintmask 1010011000000000
          hintmask 1010111010000000
          74 324 rmoveto
          hintmask 1010110100000000
          7 -6 10 -3 callsubr
          -57 20 -13 -15 rrcurveto
          hintmask 1010111010000000
          -12 74 callgsubr
          401 -64 rmoveto
          hintmask 1010011000000000
          -55 54 -154 -2 callsubr
          0 -12 -23 -14 -27 vhcurveto
          -20 -38 -19 -36 -14 -6 rrcurveto
          hintmask 1001011000000000
          -2 callgsubr
          18 43 rrcurveto
          hintmask 1001011010000000
          13 -73 callgsubr
          hintmask 1101011000000000
          -23 callgsubr
          -30 -69 -8 -69 -50 vvcurveto
          -1 -7 -4 -65 -11 -64 rrcurveto
          -110 22 -7 22 callsubr
          hintmask 1010011000000000
          -68 callsubr
          10 62 callsubr
          14 -8 17 -4 -82 callsubr
          rrcurveto
          108 callgsubr
          5 vvcurveto
          hintmask 1010111010000000
          2 17 1 50 -49 47 rrcurveto
          hintmask 1110011000000000
          -545 -406 rmoveto
          27 callgsubr
          66 callgsubr
        </CharString>
        <CharString name="_162">
          371 199 103 -39 29 hstemhm
          -3 70 53 67 -65 14 41 40 hintmask 01110000
          583 -25 callsubr
          -12 -23 -14 -27 vhcurveto
          -20 -38 -25 -44 -11 4 rrcurveto
          hintmask 10110000
          0 vlineto
          -10 12 -3 54 3 53 rrcurveto
          hintmask 10101100
          3 40 -57 11 -16 2 10 34 13 33 17 24 rrcurveto
          0 5 46 callgsubr
          18 -1 17 2 15 11 4 2 2 103 callsubr
          -69 9 -41 -242 0 vvcurveto
          3 79 20 124 43 166 rrcurveto
          10 33 -21 10 0 vvcurveto
          -20 80 callgsubr
          -11 -31 -48 -152 -7 -203 rrcurveto
          hintmask 01110000
          0 -2 -71 25 -19 vhcurveto
          0 22 -23 25 44 callgsubr
          24 -36 0 vvcurveto
          20 -29 28 -6 11 -2 26 -6 31 25 callsubr
          4 -21 1 77 callsubr
          5 2 3 3 5 vvcurveto
          -49 callgsubr
          endchar
        </CharString>
        <CharString name="_163">
          262 281 28 hstem
          0 76 48 14 vstem
          85 23 rmoveto
          -15 6 6 111 0 vvcurveto
          4 77 15 110 40 153 rrcurveto
          10 -53 callsubr
          -20 10 -20 3 -11 2 90 callsubr
          -10 -29 -44 -134 -11 -182 rrcurveto
          0 -6 -93 27 -51 vhcurveto
          24 callsubr
          103 46 48 -25 41 13 callsubr
          2 17 0 50 -48 47 -71 callsubr
          -19 -37 -25 -45 -11 5 rrcurveto
          endchar
        </CharString>
        <CharString name="_164">
          526 -19 24 258 29 -24 34 2 8 hstemhm
          -3 99 -1 14 48 75 35 71 -47 76 hintmask 1100010100000000
          740 -27 callgsubr
          -35 -23 -41 -11 -2 rrcurveto
          hintmask 1010010100000000
          -33 27 17 108 21 67 rrcurveto
          hintmask 1010101010000000
          84 callgsubr
          -63 -40 -182 -21 -7 hvcurveto
          1 37 23 71 0 vvcurveto
          28 -39 callsubr
          hintmask 1101010100000000
          79 callsubr
          hintmask 1101101010000000
          -45 callgsubr
          0 -13 -50 2 -52 vhcurveto
          0 1 -63 21 -16 vhcurveto
          0 22 -23 25 10 vhcurveto
          hintmask 1010011010000000
          23 10 -1 101 67 126 rrcurveto
          0 -8 -27 -4 -16 vhcurveto
          hintmask 1100010100000000
          -17 -80 4 -68 7 -27 3 -12 7 -10 8 -9 rrcurveto
          30 -36 27 -2 -87 callsubr
          66 callsubr
        </CharString>
        <CharString name="_165">
          390 -19 24 258 29 12 8 hstemhm
          -1 99 -2 14 24 70 -46 75 hintmask 11010100
          607 -27 callgsubr
          -36 -23 -41 -12 -1 -33 27 17 108 21 67 rrcurveto
          hintmask 11010010
          29 -39 callsubr
          hintmask 11110100
          81 38 104 0 vhcurveto
          hintmask 11101100
          12 -73 callgsubr
          hintmask 11110010
          -85 callgsubr
          84 callsubr
          0 -35 -94 -1 -106 vhcurveto
          0 -2 -71 24 49 callgsubr
          0 -9 -27 -3 -16 vhcurveto
          hintmask 11010100
          103 callgsubr
          9 -9 5 -6 5 -5 5 -4 6 -6 7 -4 5 -3 9 -5 7 -2 4 -1 rrcurveto
          2 -1 1 0 -87 callsubr
          -49 callgsubr
          endchar
        </CharString>
        <CharString name="_166">
          47 callgsubr
          hstem
          -2 71 111 28 130 129 vstem
          453 386 rmoveto
          -34 58 -48 12 -17 3 rrcurveto
          -5 -4 -2 -4 -3 hvcurveto
          -4 -7 -4 -14 9 -20 4 -9 8 -7 9 -4 20 -8 38 -22 11 -45 13 -58 -78 -105 -163 -19 rrcurveto
          5 vlineto
          17 115 -63 43 -44 2 -27 2 -32 -31 -6 -41 rrcurveto
          -22 -10 -10 -18 0 vvcurveto
          0 -45 -94 45 -79 vhcurveto
          0 28 -49 64 2 vhcurveto
          7 1 7 11 callsubr
          33 29 19 82 249 38 47 165 -43 73 rrcurveto
          -327 -376 rmoveto
          67 callgsubr
          32 -27 55 3 rrcurveto
          -23 -102 -26 -58 callgsubr
          54 123 rmoveto
          -20 -3 -17 3 -13 9 rrcurveto
          -59 50 59 72 0 vvcurveto
          58 -13 -6 -98 -2 -20 rrcurveto
          endchar
        </CharString>
        <CharString name="_167">
          302 83 callgsubr
          123 23 132 104 callsubr
          251 50 hintmask 1111101110000000
          560 21 rmoveto
          -7 78 -115 97 -195 -76 3 15 rcurveline
          -90 callgsubr
          hintmask 1111111110000000
          31 callsubr
          42 3 50 51 24 68 134 63 112 -37 22 -52 18 -43 -18 -41 -11 -18 -6 -8 -2 -11 2 -10 4 -21 12 -9 7 90 callgsubr
          rrcurveto
          hintmask 1111101110000000
          13 12 33 38 -7 67 rrcurveto
          hintmask 1111111110000000
          -473 -19 rmoveto
          3 7 rlineto
          0 14 61 callgsubr
          -22 -17 -13 hhcurveto
          endchar
        </CharString>
        <CharString name="_168">
          407 -186 -21 188 23 -4 88 callgsubr
          0 75 49 75 -46 63 33 14 hintmask 1001100110100000
          620 260 rmoveto
          hintmask 1100100101100000
          -39 callgsubr
          -14 -27 vhcurveto
          -19 -35 -25 -42 -12 -2 rrcurveto
          hintmask 1001001101100000
          -48 34 59 212 14 29 50 callgsubr
          -4 -2 -4 -1 hvcurveto
          -9 -19 -7 -19 -6 -18 rrcurveto
          -7 15 -12 6 -81 callgsubr
          13 1 14 30 12 32 rrcurveto
          hintmask 1001100110100000
          -3 -31 -2 -33 -2 -36 rrcurveto
          0 0 -80 17 -45 vhcurveto
          hintmask 1100100101100000
          2 -6 3 32 callgsubr
          9 107 rrcurveto
          16 -8 11 -2 -64 callsubr
          41 -21 12 -43 4 -21 1 77 callsubr
          5 1 3 4 5 vvcurveto
          hintmask 1001100110100000
          -49 callgsubr
          hintmask 1010010101100000
          -467 -34 rmoveto
          69 callgsubr
          83 callsubr
          20 -53 callgsubr
          16 -6 0 -30 -1 -18 rrcurveto
          endchar
        </CharString>
        <CharString name="_169">
          325 -19 24 258 29 hstem
          68 70 vstem
          538 260 rmoveto
          -55 54 -153 2 -96 -183 rrcurveto
          0 -12 -23 -14 -27 vhcurveto
          -19 -36 -23 -41 -12 -1 -25 21 9 68 14 61 4 -44 callsubr
          -6 97 callgsubr
          rrcurveto
          -33 callgsubr
          -4 -29 -12 -1 callgsubr
          -17 -72 1 -61 7 -25 61 callsubr
          6 -6 5 -5 5 -5 6 -5 6 -4 6 -3 9 -5 6 -2 5 -1 rrcurveto
          2 -1 1 0 -82 callsubr
          4 1 3 4 1 5 1 17 1 50 -49 47 rrcurveto
          endchar
        </CharString>
        <CharString name="_170">
          187 -8 34 102 21 hstem
          0 31 36 38 296 48 vstem
          120 128 rmoveto
          -29 98 20 34 19 22 -93 callsubr
          -39 -94 callsubr
          0 19 callgsubr
          vhcurveto
          -1 1 -3 8 -2 4 144 52 111 -51 16 -55 13 -45 -23 -38 -13 -16 rrcurveto
          -6 -8 -3 -10 -10 vvcurveto
          2 -22 10 -10 8 -4 3 -3 5 1 4 2 14 11 36 34 2 67 1 82 -112 115 -218 -70 rrcurveto
          -72 -102 rmoveto
          0 -19 0 2 20 vhcurveto
          1 -26 callgsubr
        </CharString>
        <CharString name="_171">
          263 21 -21 280 29 88 22 -20 23 hstemhm
          1 76 49 13 92 17 hintmask 11101110
          474 277 rmoveto
          -71 callsubr
          -20 -38 -25 -43 -12 4 rrcurveto
          35 callsubr
          hintmask 11011110
          44 callsubr
          -9 17 -2 70 callgsubr
          -13 -37 -5 4 18 5 20 5 20 -80 callsubr
          hintmask 11101110
          -5 -14 -13 -40 -14 -59 rrcurveto
          -11 -18 -1 1 -20 hvcurveto
          -31 1 -29 5 -5 -3 rrcurveto
          -6 14 callgsubr
          16 -28 26 -11 11 -4 rrcurveto
          4 -1 3 -1 -40 callsubr
          2 4 3 5 vvcurveto
          -49 callgsubr
          endchar
        </CharString>
        <CharString name="_172">
          408 -19 68 callgsubr
          26 14 26 71 27 14 hintmask 0011010100000000
          608 -57 callsubr
          hintmask 1000110100000000
          0 -12 -23 -15 -27 vhcurveto
          -18 -35 -23 -41 -12 -2 -43 35 46 172 18 42 rrcurveto
          hintmask 0100110110000000
          12 -56 callgsubr
          -5 -6 -76 callgsubr
          -9 -31 -92 -17 -29 callsubr
          1 56 24 75 12 32 rrcurveto
          hintmask 0010111100000000
          11 -13 callgsubr
          hintmask 0010110100000000
          -18 -49 callsubr
          -12 callgsubr
          -41 -95 2 -100 10 -35 rrcurveto
          0 16 -69 46 3 vhcurveto
          29 2 23 46 16 44 rrcurveto
          hintmask 1001010100000000
          1 -18 2 -15 3 -10 61 callsubr
          5 -5 4 -4 3 -3 10 -10 10 -6 8 -4 5 -2 3 -1 3 -1 rrcurveto
          3 -1 2 0 0 vvcurveto
          26 -6 31 49 23 1 callgsubr
          12 23 0 vvcurveto
          63 122 102 -47 callsubr
          8 -6 17 -14 14 1 8 2 rrcurveto
          5 1 3 4 5 vvcurveto
          hintmask 0011010100000000
          -49 callgsubr
          endchar
        </CharString>
        <CharString name="_173">
          303 1 29 145 23 hstem
          0 74 72 45 307 55 vstem
          530 391 rmoveto
          -2 4 -5 1 -4 -1 -9 -1 -13 -7 -8 -20 -3 -10 0 -10 3 -9 8 -20 11 -43 -26 -39 -35 -52 -140 -14 -132 122 -6 6 -7 6 -9 3 rrcurveto
          -4 2 -3 -3 -3 vvcurveto
          -1 -129 -41 -146 -16 2 -45 callsubr
          73 2 33 204 7 42 189 -136 65 callsubr
        </CharString>
        <CharString name="_174">
          427 1 29 144 24 hstem
          0 74 63 63 71 45 307 56 vstem
          656 391 rmoveto
          -3 4 -4 1 -5 -1 -8 -1 -13 -7 -8 -20 -4 -10 0 -10 4 -9 7 -20 11 -43 -26 -39 -34 -52 -139 -14 -132 120 -6 8 -8 6 -9 3 -1 callsubr
          9 30 -23 13 0 vvcurveto
          -18 34 callsubr
          -14 -39 -7 -40 -2 -36 -12 -94 -16 -59 -11 1 -45 callsubr
          27 1 18 27 14 37 3 -9 21 -57 43 1 73 2 33 203 6 42 190 -135 65 callsubr
        </CharString>
        <CharString name="_175">
          288 20 -21 278 29 hstem
          0 85 vstem
          503 274 rmoveto
          -71 callsubr
          -15 -30 -20 -34 -12 -11 -6 2 -16 10 -10 50 30 callgsubr
          2 22 -10 20 -16 12 -3 3 -4 -2 -1 -3 -13 -47 -20 -40 -21 -31 1 26 2 24 2 15 rrcurveto
          4 30 -25 -46 callsubr
          -21 9 -19 4 -12 1 -5 1 -5 -3 -1 -5 -13 -71 11 -74 15 -48 -21 -28 -15 -26 -6 -12 -1 -3 0 -3 -1 -3 76 callgsubr
          rrcurveto
          8 29 11 26 12 23 22 -41 26 -16 15 -5 rrcurveto
          8 -3 4 -1 -40 callgsubr
          2 3 3 5 vvcurveto
          -49 callgsubr
          endchar
        </CharString>
        <CharString name="_176">
          400 -32 callgsubr
          68 callgsubr
          -67 58 35 14 23 75 26 15 hintmask 1000110100010000
          608 260 rmoveto
          hintmask 1010010100110000
          -71 callsubr
          -18 -35 -23 -41 -12 -2 -17 15 -3 38 4 42 rrcurveto
          1 1 0 0 vhcurveto
          -1 hlineto
          hintmask 1000101100110000
          7 60 19 69 11 24 rrcurveto
          hintmask 1001001100010000
          13 30 -24 -46 callsubr
          -4 callsubr
          -3 hvcurveto
          -18 -44 -11 -44 -5 -39 rrcurveto
          -52 -9 -30 -92 -18 -29 callsubr
          1 56 24 75 12 32 rrcurveto
          hintmask 1000101101010000
          11 -13 callgsubr
          hintmask 1000101100110000
          -18 9 -18 4 -11 1 -6 1 -5 -3 -3 -5 -40 -95 1 -100 10 -35 rrcurveto
          0 17 -69 46 3 vhcurveto
          27 2 22 41 15 42 rrcurveto
          hintmask 1100110010110000
          -2 -27 -4 -40 -7 -39 rrcurveto
          -110 22 -7 22 callsubr
          hintmask 1010010100110000
          41 callsubr
          30 6 callsubr
          4 -5 107 callsubr
          -30 callsubr
          9 2 10 3 10 rrcurveto
          14 -10 13 -2 -40 callsubr
          1 4 4 5 vvcurveto
          hintmask 1000110100010000
          -49 callgsubr
          hintmask 1100110010010000
          -542 -406 rmoveto
          81 callgsubr
          66 callgsubr
        </CharString>
        <CharString name="_177">
          337 -32 callgsubr
          24 258 29 hstemhm
          -64 57 128 18 hintmask 10111100
          538 260 rmoveto
          -71 callsubr
          -18 -35 -23 -41 -12 -2 -25 21 9 68 15 61 4 16 -4 -37 callsubr
          -5 2 -6 -3 -2 -5 rrcurveto
          -12 -33 1 -31 6 -27 -4 -29 -12 85 callsubr
          10 11 callgsubr
          19 46 12 50 vhcurveto
          -33 callsubr
          -8 74 callsubr
          rrcurveto
          hintmask 11011100
          28 callsubr
          hintmask 10111100
          45 -14 33 57 21 -6 callgsubr
          9 2 10 4 -3 4 -2 4 -2 rrcurveto
          -1 3 2 -1 2 hhcurveto
          4 -2 2 0 -40 callgsubr
          1 3 4 5 vvcurveto
          -49 callgsubr
          -539 -406 rmoveto
          hintmask 11011100
          0 -20 -78 callgsubr
          hintmask 10111100
          -10 59 callsubr
          endchar
        </CharString>
        <CharString name="_179">
          27 151 23 106 24 20 22 241 28 hstemhm
          -269 50 219 79 90 82 -30 28 53 7 hintmask 0011110110000000
          hintmask 1111111010000000
          305 173 -7 callsubr
          1 -2 -1 -25 -17 -19 -13 -18 -10 9 45 3 25 1 13 rrcurveto
          7 -1 7 -1 7 vhcurveto
          -20 74 -71 -8 0 vvcurveto
          -28 -1 -25 -32 -17 -29 rrcurveto
          hintmask 0111110110000000
          3 38 6 41 10 51 rrcurveto
          115 57 24 109 48 callsubr
          rrcurveto
          hintmask 1011110110000000
          -123 -40 -96 40 -18 49 -17 43 21 13 callgsubr
          3 -67 5 -75 101 -96 182 51 rrcurveto
          -9 -56 -8 -65 -2 -71 rrcurveto
          0 0 -80 25 -58 vhcurveto
          3 -6 4 -5 5 -4 12 -8 23 -15 21 3 rrcurveto
          10 -3 7 0 0 vvcurveto
          46 80 callsubr
          hintmask 1111111010000000
          11 8 -5 10 -3 4 rrcurveto
          hintmask 0011110110000000
          -101 414 rmoveto
          0 26 78 callsubr
          -20 -19 -25 -19 14 51 37 127 38 2 rrcurveto
          hintmask 0111111010000000
          -118 -583 rmoveto
          -1 2 0 3 -1 3 5 9 14 21 30 19 -16 -35 -18 -17 -13 -5 rrcurveto
          74 152 rmoveto
          -4 -25 -6 -21 -6 -18 -32 -15 -21 -15 -12 -14 -2 27 -1 36 3 47 7 22 33 92 40 8 rrcurveto
          0 22 -6 -21 -118 vhcurveto
          endchar
        </CharString>
        <CharString name="_180">
          102 callgsubr
          19 22 241 28 hstemhm
          -124 49 77 77 73 72 141 28 hintmask 0010111111000000
          252 373 rmoveto
          114 57 24 108 48 callsubr
          -123 -40 -96 40 -18 49 -16 43 20 13 callgsubr
          4 -67 rrcurveto
          4 -75 102 -96 181 51 2 1 rcurveline
          hintmask 0011111111000000
          -2 -17 -3 -17 -3 -18 rrcurveto
          -7 8 -7 3 0 vvcurveto
          -34 19 -51 -28 0 vvcurveto
          -35 -23 -17 -83 0 vvcurveto
          -18 -115 43 -35 0 vvcurveto
          43 -39 25 6 0 vvcurveto
          17 2 19 57 11 41 rrcurveto
          hintmask 0100111111000000
          1 -11 2 -12 2 -11 3 -20 callsubr
          9 -9 rrcurveto
          36 -38 22 3 0 vvcurveto
          52 -7 57 162 0 vvcurveto
          3 -20 callgsubr
          -2 -1 -1 101 callgsubr
          -16 4 7 109 callsubr
          hintmask 0010111111000000
          3 58 4 75 21 100 rrcurveto
          -105 -202 rmoveto
          hintmask 1001111111000000
          0 vlineto
          -11 -1 -34 -123 -21 hhcurveto
          -22 1 14 107 0 vvcurveto
          17 103 34 34 0 vvcurveto
          hintmask 0010111111000000
          14 -5 3 -23 1 -18 -2 -21 -2 -22 -1 -22 rrcurveto
          202 416 rmoveto
          0 25 78 callsubr
          -19 -19 -26 -19 14 51 37 127 39 2 rrcurveto
          endchar
        </CharString>
        <CharString name="_181">
          -81 158 21 130 23 241 28 hstemhm
          -251 49 193 71 -11 20 18 51 99 27 hintmask 11110011
          125 358 rmoveto
          114 57 24 108 0 vvcurveto
          17 76 -61 2 0 vvcurveto
          -115 4 -51 -200 -12 -57 -122 -40 -96 39 -19 49 -16 44 20 39 12 18 6 9 2 10 -1 10 -3 22 -12 9 -7 3 -4 2 -5 -1 -4 -3 -13 -11 -34 -37 4 -67 rrcurveto
          4 -74 101 -96 181 50 rrcurveto
          hintmask 11111011
          -9 -29 -11 -55 0 vvcurveto
          -6 -34 -6 -36 -4 -39 rrcurveto
          0 -39 -310 91 9 vhcurveto
          hintmask 11110111
          0 49 10 20 44 vhcurveto
          hintmask 11110011
          29 64 0 135 -46 76 rrcurveto
          4 3 0 1 3 hvcurveto
          31 3 34 12 27 14 13 7 -3 10 -2 5 -1 1 -2 1 -2 -1 rrcurveto
          -16 -35 -45 -16 -41 hhcurveto
          7 67 19 75 10 36 2 1 rcurveline
          97 215 rmoveto
          0 25 2 -11 -45 vhcurveto
          0 -10 -36 -33 -44 vhcurveto
          -15 -19 -20 -19 -25 -20 13 52 37 126 39 3 rrcurveto
          -152 -701 rmoveto
          hintmask 11111011
          -16 -2 13 151 4 47 rrcurveto
          hintmask 11110011
          73 callsubr
          -15 -2 rrcurveto
          endchar
        </CharString>
        <CharString name="_182">
          47 -19 22 321 22 241 29 hstemhm
          -264 49 213 99 36 70 -46 75 -6 27 hintmask 11111100
          330 2 callgsubr
          -2 -1 -2 -1 106 callsubr
          18 113 21 69 rrcurveto
          hintmask 11111010
          29 -39 callsubr
          2 69 10 100 32 135 rrcurveto
          hintmask 11111101
          114 57 24 108 -93 callgsubr
          182 52 rrcurveto
          0 vlineto
          -12 -64 -11 -81 -3 -90 rrcurveto
          hintmask 11111010
          0 -2 -71 24 49 callgsubr
          hintmask 11111100
          0 -9 -27 -3 -16 vhcurveto
          103 callgsubr
          8 -9 rrcurveto
          37 -38 22 -58 callgsubr
          63 -1 61 -32 callsubr
          hintmask 11111101
          -61 callsubr
          -121 413 -59 callsubr
        </CharString>
        <CharString name="_183">
          23 -19 22 196 103 22 22 241 29 hstemhm
          -263 49 212 70 52 68 -11 41 9 27 48 14 hintmask 1011111011000000
          305 -19 callsubr
          -1 -2 0 52 callgsubr
          rrcurveto
          hintmask 1111111011000000
          2 40 -56 11 -17 2 rrcurveto
          hintmask 1111110111000000
          11 34 12 33 17 24 rrcurveto
          0 5 46 callgsubr
          19 -1 16 2 16 11 3 2 2 3 2 4 rrcurveto
          22 76 -58 6 0 vvcurveto
          -69 9 -40 -242 0 vvcurveto
          2 69 15 103 32 134 rrcurveto
          hintmask 1011111011000000
          111 58 23 105 -93 callgsubr
          181 51 -12 -64 -12 -80 -2 -90 rrcurveto
          0 -3 -71 25 -19 vhcurveto
          0 23 -23 24 44 callgsubr
          25 49 callsubr
          4 14 -11 5 -4 1 rrcurveto
          -95 413 -59 callsubr
        </CharString>
        <CharString name="_184">
          -104 20 -21 325 22 241 29 hstem
          -272 49 223 76 142 27 vstem
          110 376 rmoveto
          109 58 23 104 -93 callgsubr
          182 52 rrcurveto
          1 hlineto
          -8 -45 -6 -51 -3 -56 -48 callgsubr
          3 58 9 77 22 101 rrcurveto
          91 211 -59 callsubr
        </CharString>
        <CharString name="_185">
          -103 154 19 196 29 46 35 hstem
          -379 90 289 76 58 13 vstem
          330 479 rmoveto
          -47 5 -62 -13 -18 -4 -23 -5 -27 -6 -25 -6 5 22 5 23 6 23 rrcurveto
          11 32 -21 11 -47 callgsubr
          -1 hvcurveto
          -6 -15 -17 -53 -16 -74 rrcurveto
          -32 -7 -22 -5 0 vvcurveto
          -151 -39 -151 26 -12 62 -9 46 26 22 14 16 7 7 4 10 1 10 1 22 -10 11 -7 4 -4 3 -5 0 -3 -2 -15 -9 -40 -31 -7 -66 -10 -86 109 -93 254 58 rrcurveto
          0 24 5 32 7 vhcurveto
          -13 -62 -12 -75 -5 -75 rrcurveto
          0 -6 -93 28 -51 vhcurveto
          20 -37 38 -8 0 vvcurveto
          53 -6 56 162 0 vvcurveto
          4 13 -9 -46 callgsubr
          33 callgsubr
          3 60 16 104 26 116 33 8 31 7 18 4 rrcurveto
          0 115 27 63 -66 vhcurveto
          3 -3 6 1 2 5 7 22 9 46 -78 8 rrcurveto
          endchar
        </CharString>
        <CharString name="a">
          -66 callgsubr
          hstemhm
          0 75 79 65 32 15 hintmask 00101111
          345 -65 callgsubr
          hvcurveto
          hintmask 10001111
          -102 callgsubr
          hintmask 00101111
          -92 callgsubr
          hintmask 10001111
          2 -22 4 -17 3 -12 -99 callgsubr
          hintmask 00101111
          -89 callsubr
          hintmask 01010111
          -89 callgsubr
          hintmask 00101111
          -21 callsubr
          endchar
        </CharString>
        <CharString name="aacute">
          -66 callgsubr
          62 53 -103 callsubr
          57 201 -103 callgsubr
        </CharString>
        <CharString name="acircumflex">
          -66 callgsubr
          72 41 -103 callsubr
          99 152 -107 callsubr
        </CharString>
        <CharString name="acute">
          -141 506 53 hstem
          6 109 vstem
          77 556 -103 callgsubr
        </CharString>
        <CharString name="adieresis">
          -66 callgsubr
          hstemhm
          0 75 62 42 -25 65 -12 42 2 15 hintmask 0010110101000000
          345 -65 callgsubr
          hvcurveto
          hintmask 1000110101000000
          -102 callgsubr
          hintmask 0010110101000000
          -92 callgsubr
          hintmask 1000110101000000
          2 -22 4 -17 3 -12 -99 callgsubr
          hintmask 0010110101000000
          -89 callsubr
          hintmask 0101010101000000
          -89 callgsubr
          hintmask 0010110101000000
          -21 callsubr
          hintmask 0010111001000000
          8 200 rmoveto
          -11 3 -104 callsubr
          2 rrcurveto
          hintmask 0010110010000000
          70 -13 rmoveto
          -11 2 -104 callsubr
          3 rrcurveto
          endchar
        </CharString>
        <CharString name="ae">
          208 -19 28 -9 37 -16 -21 280 10 -10 24 -8 7 hstemhm
          42 75 69 85 72 22 hintmask 0010011010000000
          440 -65 callgsubr
          hvcurveto
          hintmask 1000011110000000
          19 callsubr
          -38 4 0 vvcurveto
          -69 72 callgsubr
          11 47 callsubr
          -32 16 0 vvcurveto
          hintmask 0010101010000000
          6 -10 -11 2 -11 hhcurveto
          hintmask 0010011110000000
          -4 12 -10 6 -65 callsubr
          hintmask 1000011110000000
          2 -22 4 -17 3 -12 4 -12 6 -11 9 -9 rrcurveto
          -37 34 63 0 6 3 4 0 3 hhcurveto
          62 2 61 171 0 vvcurveto
          hintmask 0010011010000000
          -61 callsubr
          hintmask 0100101010000000
          -91 callsubr
          -203 -243 rmoveto
          83 callsubr
          hintmask 0011001010000000
          20 -53 callgsubr
          -21 callsubr
          -4 -19 -3 -17 -1 -16 rrcurveto
          hintmask 0100101010000000
          -8 -28 -33 -98 -19 1 rrcurveto
          endchar
        </CharString>
        <CharString name="agrave">
          -66 callgsubr
          61 60 -103 callsubr
          26 204 -102 callsubr
        </CharString>
        <CharString name="ampersand">
          72 66 36 273 23 hstemhm
          34 55 -6 32 72 25 hintmask 11011000
          326 126 rmoveto
          -2 2 -3 1 -2 1 -12 1 -21 4 -24 9 -1 22 -10 22 -15 18 rrcurveto
          0 -11 17 -25 9 vhcurveto
          -15 5 2 -9 1 -4 5 -11 6 -15 4 -16 -2 1 -2 1 -2 2 -21 19 -15 19 -12 17 2 1 2 1 2 1 rrcurveto
          0 vlineto
          0 19 callgsubr
          1 2 1 2 2 vhcurveto
          19 callgsubr
          1 vhcurveto
          0 1 1 1 vhcurveto
          0 1 1 0 vhcurveto
          5 2 5 4 5 4 12 9 13 13 6 16 1 1 0 2 1 1 7 25 -12 25 -2 5 rrcurveto
          hintmask 11101000
          19 -9 -19 23 -39 hhcurveto
          -41 -22 -37 -52 11 hvcurveto
          1 -7 5 -19 13 -25 -53 -22 -20 -28 2 -35 1 -24 20 -41 42 -21 rrcurveto
          -10 19 29 -11 39 hhcurveto
          58 1 10 31 2 12 1 1 0 1 1 1 12 -7 13 -5 13 -3 rrcurveto
          hintmask 11011000
          1 2 0 2 hhcurveto
          5 2 13 6 9 13 1 3 0 2 -1 2 rrcurveto
          -125 hmoveto
          hintmask 11101000
          19 callgsubr
          -1 vvcurveto
          -74 callsubr
          -1 -1 -2 -4 -4 -4 -6 -6 -9 -7 -12 -1 -16 -1 -13 4 -9 4 -16 7 -23 17 -1 40 rrcurveto
          0 -1 6 2 9 vhcurveto
          3 12 7 9 5 6 rrcurveto
          hintmask 11011000
          2 2 3 1 2 2 rrcurveto
          0 vlineto
          2 2 4 2 5 2 18 -27 26 -30 39 -27 -1 -6 -1 -5 -3 -5 rrcurveto
          0 vlineto
          -25 235 rmoveto
          1 19 callgsubr
          hvcurveto
          2 -3 7 -9 1 -12 rrcurveto
          -13 -5 -11 -4 -5 vhcurveto
          -9 -14 -17 -13 -20 -11 -12 25 -4 21 -1 14 -1 18 7 11 3 4 10 13 12 0 7 -1 rrcurveto
          15 -3 8 -11 0 vvcurveto
          endchar
        </CharString>
        <CharString name="aring">
          -66 callgsubr
          59 15 25 16 hstemhm
          0 75 79 65 -52 16 26 16 26 15 hintmask 0010110110010000
          345 -65 callgsubr
          hvcurveto
          hintmask 1000110110010000
          -102 callgsubr
          hintmask 0010110110010000
          -92 callgsubr
          hintmask 1000110110010000
          2 -22 4 -17 3 -12 -99 callgsubr
          hintmask 0010110110010000
          -89 callsubr
          hintmask 0101010110010000
          -89 callgsubr
          hintmask 0010110110010000
          -21 callsubr
          hintmask 0010111100110000
          42 204 rmoveto
          hintmask 0010111101010000
          -16 -13 -13 -15 hvcurveto
          hintmask 0010110101010000
          -16 13 -12 16 vhcurveto
          hintmask 0010110100110000
          16 13 12 16 hvcurveto
          hintmask 0010111100110000
          15 -13 13 -16 vhcurveto
          hintmask 0010110100110000
          -41 vmoveto
          hintmask 0010110101010000
          -7 -6 6 7 hvcurveto
          hintmask 0010111101010000
          7 6 5 7 vhcurveto
          hintmask 0010111100110000
          7 6 -5 -7 hvcurveto
          hintmask 0010110100110000
          107 callgsubr
        </CharString>
        <CharString name="asterisk">
          -158 508 14 -5 20 -15 21 hstemhm
          46 19 hintmask 00110000
          hintmask 10010000
          56 493 rmoveto
          8 -2 1 9 7 vvcurveto
          5 -2 5 0 5 3 rrcurveto
          hintmask 00110000
          9 3 -4 7 -4 4 rrcurveto
          0 -1 1 0 vhcurveto
          4 2 3 4 2 4 4 9 -7 2 -6 -1 rrcurveto
          -1 -2 0 -1 hhcurveto
          hintmask 01010000
          2 6 1 7 -4 5 -4 6 -5 -5 -4 -4 -2 3 -3 3 -4 1 -8 4 -2 -8 -1 -6 rrcurveto
          -1 0 0 -1 vvcurveto
          -5 1 -6 1 -5 -4 -6 -4 4 -6 4 -4 -4 -3 -5 -3 -1 -6 -3 -9 11 0 6 1 rrcurveto
          hintmask 10010000
          7 callgsubr
          -2 -6 0 -6 3 -5 3 -9 7 5 3 4 2 -3 3 -3 5 -1 rrcurveto
          endchar
        </CharString>
        <CharString name="at">
          70 22 24 64 11 -9 14 83 16 53 19 hstemhm
          134 25 32 18 8 13 37 24 hintmask 1100110110000000
          hintmask 1100111110000000
          202 111 rmoveto
          -1 2 1 0 2 hhcurveto
          0 vlineto
          0 50 3 26 59 vhcurveto
          26 60 -36 62 -73 3 -90 4 -45 -79 -8 -54 rrcurveto
          0 -35 -130 139 -16 vhcurveto
          0 72 -9 36 75 vhcurveto
          3 5 3 13 -10 5 -8 3 -4 -7 -2 -5 -9 -24 -18 -35 -54 3 rrcurveto
          0 -78 1 16 117 vhcurveto
          0 18 113 75 1 vhcurveto
          0 66 2 -73 vvcurveto
          1 -58 -28 -20 -19 -6 rrcurveto
          -1 -3 -4 -1 -1 hhcurveto
          0 -1 0 0 -6 5 14 10 4 vhcurveto
          2 3 2 4 1 3 rrcurveto
          hintmask 1011110110000000
          1 1 19 callgsubr
          vvcurveto
          7 callgsubr
          5 10 14 22 -13 2 rrcurveto
          10 31 -21 4 0 vvcurveto
          -31 9 -22 -28 0 vvcurveto
          -6 -6 -6 -10 -6 -10 rrcurveto
          hintmask 1010111110000000
          -2 -5 -5 -10 -2 -10 rrcurveto
          hintmask 1100111110000000
          -2 -6 -1 -6 1 -7 rrcurveto
          hintmask 1011110110000000
          1 -12 6 -11 15 -1 24 -1 13 26 2 7 rrcurveto
          -11 -30 18 -3 0 vvcurveto
          -8 52 rmoveto
          -74 callsubr
          0 0 -1 -1 vhcurveto
          -2 -1 -1 -1 vvcurveto
          -9 -5 -12 -23 -12 hhcurveto
          0 -13 1 18 36 vhcurveto
          18 36 17 13 10 -3 rrcurveto
          0 8 0 -7 -22 vhcurveto
          -9 -5 -7 -11 -4 -8 rrcurveto
          endchar
        </CharString>
        <CharString name="atilde">
          -66 callgsubr
          60 52 hstemhm
          0 75 79 65 16 12 4 15 hintmask 0010101101000000
          345 -65 callgsubr
          hvcurveto
          hintmask 1000101101000000
          -102 callgsubr
          hintmask 0010101101000000
          -92 callgsubr
          hintmask 1000101101000000
          2 -22 4 -17 3 -12 -99 callgsubr
          hintmask 0010101101000000
          -89 callsubr
          hintmask 0101001101000000
          -89 callgsubr
          hintmask 0010101101000000
          22 -9 -7 -57 73 callgsubr
          76 175 -101 callsubr
        </CharString>
        <CharString name="b">
          27 151 23 106 41 callgsubr
          51 7 hintmask 11110100
          hintmask 11111100
          305 173 rmoveto
          -1 2 -2 0 -2 -1 -24 -17 -20 -12 -18 -10 9 44 3 25 1 13 rrcurveto
          7 0 7 -2 7 vhcurveto
          -20 74 -71 -8 0 vvcurveto
          -28 -1 -25 -32 -17 -29 9 64 15 79 25 95 rrcurveto
          hintmask 11110100
          11 33 -22 10 0 vvcurveto
          -83 callsubr
          -11 -31 -50 -152 -6 30 callsubr
          21 3 rrcurveto
          10 -3 8 0 0 vvcurveto
          45 80 callsubr
          hintmask 11111100
          11 9 -5 9 -3 4 rrcurveto
          -146 107 rmoveto
          -50 callsubr
          -4 -25 -6 -21 -5 -18 -33 -14 -21 -16 -12 -14 -2 27 -1 36 3 47 7 22 33 93 40 7 rrcurveto
          -73 -276 rmoveto
          3 -1 2 -1 4 vhcurveto
          5 8 14 22 30 18 -16 -35 -18 -17 -13 -5 rrcurveto
          endchar
        </CharString>
        <CharString name="b_r">
          262 -19 22 151 19 107 41 callgsubr
          99 70 hintmask 11111010
          hintmask 11111110
          238 135 rmoveto
          -68 callgsubr
          hintmask 11111010
          -90 callsubr
          45 3 55 58 21 76 rrcurveto
          88 38 20 105 0 vvcurveto
          -33 callsubr
          -17 -72 1 -61 7 -25 3 -12 7 -11 8 -91 callgsubr
          63 -1 61 174 0 vvcurveto
          4 13 -9 -94 callgsubr
          -29 17 9 71 15 64 4 16 -3 -79 callgsubr
          -3 10 -7 7 rrcurveto
          hintmask 11111110
          28 callgsubr
          -17 -116 -71 -36 vhcurveto
          -79 145 rmoveto
          -50 callsubr
          -5 -25 -5 -21 -6 -18 -33 -14 -20 -9 callgsubr
          -73 -276 -36 callgsubr
          endchar
        </CharString>
        <CharString name="b_s">
          222 -8 34 254 41 callgsubr
          48 30 36 38 hintmask 11110110
          514 181 rmoveto
          -2 1 -2 0 -1 -1 -24 -60 callgsubr
          rrcurveto
          hintmask 11111110
          71 callsubr
          -15 -85 -83 -34 vhcurveto
          -68 callgsubr
          hintmask 11110110
          -90 callsubr
          45 3 55 58 21 76 rrcurveto
          93 31 13 50 0 vvcurveto
          57 callgsubr
          -39 56 callsubr
          3 -17 4 -34 callsubr
          46 -4 25 25 12 22 9 18 0 -58 callsubr
          rrcurveto
          hintmask 11111110
          10 10 -6 9 -4 4 rrcurveto
          -428 -177 -36 callgsubr
          74 152 rmoveto
          -5 -25 -5 -21 -6 -18 -32 -14 -21 -9 callgsubr
          0 22 -5 -21 -119 vhcurveto
          186 -130 -37 callgsubr
        </CharString>
        <CharString name="b_z">
          274 58 callsubr
          151 19 107 41 callgsubr
          -22 58 128 17 hintmask 1011111011000000
          443 -62 callsubr
          rrcurveto
          hintmask 1011111101000000
          -24 callsubr
          0 -14 -110 -86 -42 vhcurveto
          -68 callgsubr
          hintmask 1101111011000000
          -90 callsubr
          46 3 54 58 21 76 rrcurveto
          107 41 13 102 0 vvcurveto
          -33 callsubr
          -9 74 callsubr
          -1 -19 -4 -56 -9 -55 6 callgsubr
          hintmask 1011111011000000
          -74 callgsubr
          -24 -15 -64 12 -42 64 callsubr
          hintmask 1011111101000000
          -357 23 -36 callgsubr
          74 152 rmoveto
          -4 -25 -6 -21 -6 -18 rrcurveto
          hintmask 1101111011000000
          -32 -14 -21 -9 callgsubr
          0 22 -5 -21 -119 vhcurveto
          132 -302 rmoveto
          81 callgsubr
          66 callgsubr
        </CharString>
        <CharString name="backslash">
          -23 -22 603 hstem
          7 231 vstem
          9 514 rmoveto
          20 -100 76 -204 32 -75 10 -22 16 -47 22 -52 11 -24 7 -21 26 12 8 3 3 24 -3 13 -4 38 -15 31 -7 18 -1 4 -1 3 -1 2 -43 102 -79 218 -33 111 rrcurveto
          -3 11 5 30 -22 -10 -24 -11 -4 -31 3 -18 rrcurveto
          -1 0 -2 1 -1 vhcurveto
          -1 -69 callgsubr
          endchar
        </CharString>
        <CharString name="bracketleft">
          -1 -49 620 hstem
          58 107 vstem
          222 569 rmoveto
          -38 8 -11 -14 -11 -14 -10 -13 -7 -17 -4 -11 12 callsubr
          -1 -1 rrcurveto
          -1 -3 -1 -2 -1 vvcurveto
          -23 -65 -107 -329 80 -122 6 -7 19 -22 25 -3 rrcurveto
          3 3 0 3 hhcurveto
          1 vlineto
          19 callgsubr
          1 vhcurveto
          7 1 4 3 2 2 rrcurveto
          4 3 1 4 3 vvcurveto
          -1 6 -6 3 -3 2 -17 6 -20 15 -10 32 -14 52 76 286 24 101 19 79 26 -32 8 17 rrcurveto
          12 23 -37 -41 callsubr
          endchar
        </CharString>
        <CharString name="bracketright">
          -1 -49 621 hstem
          101 107 vstem
          44 -47 rmoveto
          38 -7 11 14 11 14 10 13 7 17 4 10 1 1 0 2 1 1 rrcurveto
          1 3 1 2 0 vvcurveto
          23 66 107 329 -80 121 -6 7 -19 23 -25 2 -3 1 -3 0 -3 -1 rrcurveto
          0 vlineto
          96 callgsubr
          -7 -1 -5 -3 -1 -2 rrcurveto
          -4 -3 -1 -4 -4 vvcurveto
          1 -5 6 -3 3 -2 17 -6 20 -15 10 -33 14 -52 -76 -285 -24 -102 -19 -79 -26 33 -9 -17 rrcurveto
          -11 -24 37 -11 0 vvcurveto
          endchar
        </CharString>
        <CharString name="c">
          -31 -42 callgsubr
          hstemhm
          0 80 75 20 hintmask 01110000
          87 callsubr
          hintmask 10110000
          21 -53 callgsubr
          hintmask 01110000
          82 callsubr
          rrcurveto
          -3 5 -2 2 3 vhcurveto
          8 9 rlineto
          -12 callsubr
          30 -49 81 2 vhcurveto
          62 2 62 171 0 vvcurveto
          4 13 -10 5 -5 2 rrcurveto
          -2 -1 -51 callsubr
          endchar
        </CharString>
        <CharString name="ccedilla">
          -31 -89 12 32 18 8 28 271 10 6 7 hstemhm
          0 80 -31 17 27 23 -17 25 31 20 hintmask 1010110001000000
          87 callsubr
          hintmask 1011010001000000
          21 -53 callgsubr
          hintmask 1110110001000000
          82 callsubr
          rrcurveto
          -3 5 -2 2 3 vhcurveto
          8 9 rlineto
          -12 callsubr
          17 -27 42 -13 vhcurveto
          7 -6 rlineto
          1 -1 0 0 -1 vvcurveto
          -2 -2 -4 -2 -2 vhcurveto
          -1 hlineto
          -1 -2 -2 -4 1 -3 rrcurveto
          -2 2 -2 2 -1 vhcurveto
          1 -2 2 0 2 -1 rrcurveto
          4 hlineto
          hintmask 1110101011000000
          -6 -3 -7 -2 -3 vhcurveto
          -1 -1 -2 -4 -3 -3 -3 -3 rlinecurve
          -1 -6 -5 -7 hhcurveto
          -1 hlineto
          -3 1 0 1 -1 1 -1 2 1 8 6 4 5 3 2 3 -1 3 rrcurveto
          3 -2 2 -1 1 vhcurveto
          2 -2 -2 1 -2 hhcurveto
          -4 -4 -2 -2 -3 hvcurveto
          -11 -8 2 -14 -1 vvcurveto
          -1 vlineto
          2 -7 4 -6 7 -3 3 -2 3 0 3 -1 rrcurveto
          8 hlineto
          5 3 1 1 hhcurveto
          hintmask 1110110101000000
          9 2 10 5 6 7 7 8 rcurveline
          2 3 1 4 3 8 -2 8 rlinecurve
          4 -2 4 -2 3 vhcurveto
          -1 2 -1 2 -2 1 1 4 1 2 -1 3 rrcurveto
          hintmask 1010110101000000
          -1 6 7 0 7 hhcurveto
          62 2 62 171 0 vvcurveto
          4 13 -10 5 -5 2 rrcurveto
          -2 -1 2 callsubr
          hintmask 1010110001000000
          19 callsubr
          -38 4 0 vvcurveto
          endchar
        </CharString>
        <CharString name="cent">
          64 96 16 247 56 hstemhm
          37 60 135 23 -6 47 -46 31 hintmask 10101000
          264 517 rmoveto
          hintmask 10110000
          -5 6 -6 6 -5 5 7 24 rcurveline
          2 7 -4 10 -6 4 -6 5 -7 -2 -2 -8 -7 -24 rcurveline
          -21 12 -19 0 -13 -2 -59 -12 -40 -68 -17 -63 rrcurveto
          0 -34 -105 23 -126 vhcurveto
          5 -31 14 -53 29 -40 -13 -47 rcurveline
          -2 -8 3 -9 7 -5 rrcurveto
          -1 2 101 callsubr
          11 40 4 -4 5 -3 5 -4 rlinecurve
          hintmask 10100100
          11 -7 20 -12 25 -1 6 -1 5 0 7 1 rrcurveto
          0 vlineto
          14 1 12 4 11 6 5 3 4 3 4 3 29 23 6 38 -8 16 -1 2 -2 2 -1 1 rrcurveto
          -17 12 -7 -25 0 vvcurveto
          -13 -40 -21 -9 -7 -2 rrcurveto
          hintmask 11101000
          -30 -6 -30 19 -20 37 110 407 rcurveline
          1 -1 1 0 1 -1 rrcurveto
          19 -14 -28 -71 0 0 -1 0 -1 vvcurveto
          -2 -6 -8 -26 20 -16 rrcurveto
          hintmask 10101000
          22 -18 21 22 7 23 rrcurveto
          0 vlineto
          19 70 -47 54 0 vvcurveto
          -163 -217 rmoveto
          12 102 58 75 40 21 -99 -365 rcurveline
          -14 44 -6 57 9 66 rrcurveto
          endchar
        </CharString>
        <CharString name="circumflex">
          -104 522 41 hstemhm
          13 124 -13 13 hintmask 11000000
          hintmask 10100000
          137 513 -107 callsubr
        </CharString>
        <CharString name="comma">
          -179 -23 94 hstem
          30 39 vstem
          58 68 rmoveto
          -13 12 -18 -20 -4 -27 rrcurveto
          -4 -28 11 -21 0 vvcurveto
          10 -17 11 15 10 23 11 24 -1 27 -13 12 rrcurveto
          endchar
        </CharString>
        <CharString name="d">
          102 callgsubr
          hstemhm
          1 77 68 77 49 13 hintmask 00111110
          325 -19 callsubr
          -1 -2 -1 -1 -1 hvcurveto
          -63 -167 33 callgsubr
          -44 callgsubr
          -50 -28 0 vvcurveto
          -36 -23 -17 -83 0 vvcurveto
          29 callgsubr
          hintmask 01011110
          1 -11 1 -12 3 -11 61 callsubr
          rrcurveto
          37 -38 21 3 0 vvcurveto
          53 -7 56 162 0 vvcurveto
          hintmask 00111110
          4 13 -9 5 -6 2 rrcurveto
          hintmask 10011110
          -235 -137 rmoveto
          77 callgsubr
          13 -5 4 -23 -18 vvcurveto
          -2 -21 -2 -22 -1 -22 rrcurveto
          0 vlineto
          -11 -1 -34 -123 -21 hhcurveto
          endchar
        </CharString>
        <CharString name="dieresis">
          -118 505 56 hstemhm
          17 42 -42 112 -42 42 hintmask 10100000
          hintmask 11000000
          42 561 rmoveto
          -11 3 -104 callsubr
          2 rrcurveto
          hintmask 10010000
          70 -13 rmoveto
          -11 2 -104 callsubr
          3 rrcurveto
          endchar
        </CharString>
        <CharString name="divide">
          -140 96 50 8 41 8 50 hstemhm
          42 40 -35 40 hintmask 01010000
          90 196 rmoveto
          -19 1 -18 1 -19 -3 -9 -2 -8 -7 -2 -12 -2 -15 12 -4 8 -1 15 1 15 0 15 -1 rrcurveto
          5 4 1 1 4 hvcurveto
          10 2 13 5 -1 16 rrcurveto
          15 -15 1 -8 1 vhcurveto
          hintmask 00101000
          -20 7 rmoveto
          11 7 12 13 -1 hvcurveto
          14 -2 -10 11 -11 hhcurveto
          -11 -8 -12 -13 2 hvcurveto
          -14 1 11 -11 11 hhcurveto
          hintmask 11010000
          -11 -57 rmoveto
          -11 -7 -11 -14 1 hvcurveto
          -14 2 10 -11 11 hhcurveto
          11 1 8 11 -2 14 rrcurveto
          13 -1 -11 11 -11 hhcurveto
          endchar
        </CharString>
        <CharString name="dollar">
          106 6 60 444 53 hstemhm
          16 66 35 24 25 48 55 22 -16 56 hintmask 11101010
          hintmask 11101100
          314 512 rmoveto
          -8 16 -11 11 -7 6 3 13 rcurveline
          2 7 -3 10 -6 4 -7 5 -6 -2 -2 -8 -5 -16 rcurveline
          3 -7 -8 2 -8 hhcurveto
          0 vlineto
          0 19 callgsubr
          -1 -1 0 0 vhcurveto
          -1 0 0 -1 hhcurveto
          0 19 callgsubr
          -12 -11 -4 -2 -3 vhcurveto
          -24 -9 -33 -22 15 -86 5 -33 14 -35 16 -36 -16 -57 rcurveline
          -14 34 -26 16 0 vvcurveto
          hintmask 11111010
          0 -31 23 -41 -9 vhcurveto
          -52 -13 -7 -64 -1 -21 rrcurveto
          -22 3 -27 8 -33 vhcurveto
          0 vlineto
          0 22 -90 72 -44 vhcurveto
          -4 -14 -2 -8 3 -9 6 -5 rlinecurve
          -1 3 101 callsubr
          5 20 6 -3 5 -1 6 -2 rlinecurve
          -74 callsubr
          0 vlineto
          hintmask 11101010
          7 -2 7 -1 7 -1 4 -1 3 0 3 -1 46 -2 19 8 23 14 33 22 13 31 4 36 rrcurveto
          5 0 5 1 6 vhcurveto
          hintmask 11101100
          1 45 -11 41 -6 18 -19 54 -29 55 -22 43 26 96 rcurveline
          5 -9 5 -9 4 -10 rrcurveto
          -6 3 5 -8 8 hhcurveto
          12 -1 13 12 -3 29 rrcurveto
          0 vlineto
          -2 12 -3 11 -4 8 rrcurveto
          hintmask 11101010
          -232 -299 rmoveto
          -10 87 31 -1 0 vvcurveto
          35 7 -48 -34 -5 hvcurveto
          -5 0 -13 13 -2 vhcurveto
          4 4 0 1 5 hvcurveto
          -29 -110 -29 24 -19 41 -7 60 rlinecurve
          176 7 rmoveto
          5 -12 14 -37 -2 -35 rrcurveto
          0 -11 -82 -77 12 vhcurveto
          -10 1 -9 3 -8 3 61 227 rcurveline
          13 -28 13 -27 11 -25 rrcurveto
          -36 213 rmoveto
          -9 21 1 22 0 vvcurveto
          0 vlineto
          2 1 3 2 vvcurveto
          1 5 3 19 13 3 7 1 6 -1 5 -3 -23 -85 rcurveline
          -2 4 -1 3 -2 4 rrcurveto
          endchar
        </CharString>
        <CharString name="e">
          -32 -42 callgsubr
          hstemhm
          0 82 71 22 hintmask 01110000
          -100 callsubr
          hintmask 10110000
          -91 callsubr
          endchar
        </CharString>
        <CharString name="eacute">
          -32 -42 callgsubr
          25 53 hstemhm
          0 82 71 22 hintmask 10111000
          250 2 callgsubr
          -1 -51 callsubr
          -68 9 1 82 4 32 rrcurveto
          hintmask 01111000
          82 10 11 47 callsubr
          -32 16 -99 callsubr
          0 -25 -98 44 -60 vhcurveto
          0 30 -49 81 2 vhcurveto
          62 2 62 171 0 vvcurveto
          hintmask 10111000
          3 -20 callgsubr
          -91 callsubr
          1 98 -103 callgsubr
        </CharString>
        <CharString name="ecircumflex">
          -32 -42 callgsubr
          38 41 hstemhm
          0 82 71 22 hintmask 01111000
          -100 callsubr
          hintmask 10111000
          -91 callsubr
          57 52 -107 callsubr
        </CharString>
        <CharString name="edieresis">
          -32 -42 callgsubr
          hstemhm
          0 82 -7 42 28 42 -34 22 hintmask 01100100
          -100 callsubr
          hintmask 10010100
          -91 callsubr
          -40 99 rmoveto
          -11 3 -104 callsubr
          2 rrcurveto
          hintmask 01101000
          70 -13 rmoveto
          -11 2 -104 callsubr
          3 rrcurveto
          endchar
        </CharString>
        <CharString name="egrave">
          -32 -42 callgsubr
          30 60 hstemhm
          0 82 71 22 hintmask 01011000
          -100 callsubr
          hintmask 10111000
          -91 callsubr
          -19 107 -102 callsubr
        </CharString>
        <CharString name="eight">
          80 0 23 266 23 0 -20 256 21 hstemhm
          33 52 -13 59 98 68 -43 46 hintmask 10110010
          hintmask 10110101
          300 479 rmoveto
          -7 18 -9 17 -11 14 rrcurveto
          27 -23 -31 14 -32 hhcurveto
          -12 -13 -2 -5 -13 hvcurveto
          -61 -23 -26 -90 10 -70 7 -41 18 -30 25 -12 rrcurveto
          hintmask 10111010
          -79 -36 -10 -78 -37 vvcurveto
          0 0 -26 6 -18 vhcurveto
          8 -21 11 -19 13 -15 rrcurveto
          -30 25 34 -16 36 hhcurveto
          14 14 2 6 15 hvcurveto
          68 25 29 101 -12 78 rrcurveto
          hintmask 10110001
          -7 49 -23 34 -31 12 65 34 7 66 1 32 rrcurveto
          hintmask 10110101
          1 24 -7 16 0 vvcurveto
          hintmask 11011010
          -71 -289 rmoveto
          -2 -62 -10 -52 -20 -29 rrcurveto
          0 -17 -25 -22 1 vhcurveto
          -34 4 -33 29 -6 77 rrcurveto
          -3 44 11 33 0 vvcurveto
          0 vlineto
          5 13 5 11 7 10 12 18 15 13 19 7 rrcurveto
          7 15 10 0 11 hhcurveto
          hintmask 10110101
          8 -1 31 -8 -2 -90 rrcurveto
          -33 126 rmoveto
          0 -15 -6 -18 2 vhcurveto
          -6 1 -31 8 5 80 rrcurveto
          10 154 53 -7 0 vvcurveto
          31 -3 23 -24 6 -69 rrcurveto
          3 -39 -11 -30 0 vvcurveto
          0 -18 -57 -32 -10 vhcurveto
          endchar
        </CharString>
        <CharString name="equal">
          -89 137 37 12 37 hstemhm
          39 100 hintmask 10100000
          106 -19 callsubr
          -17 1 -17 1 -17 -2 -7 -2 -7 -6 -2 -11 -2 -14 10 -3 8 -1 rrcurveto
          13 14 0 14 3 4 1 4 hhcurveto
          8 2 12 5 14 vvcurveto
          14 -13 1 -8 vhcurveto
          hintmask 11100000
          12 49 rmoveto
          -74 callsubr
          -16 1 -17 1 -17 -2 -8 -2 -7 -7 -2 -11 rrcurveto
          -13 -2 11 -4 7 14 13 0 14 hhcurveto
          4 4 0 1 4 hvcurveto
          8 2 12 5 -1 14 rrcurveto
          14 -13 0 -8 1 vhcurveto
          endchar
        </CharString>
        <CharString name="exclam">
          -88 -5 57 -57 579 hstemhm
          10 57 -57 159 -55 53 hintmask 01010000
          hintmask 10101000
          44 52 rmoveto
          -16 -15 -13 -15 -3 hvcurveto
          -16 -3 10 -13 16 hhcurveto
          16 15 13 16 3 hvcurveto
          15 3 -11 13 -15 hhcurveto
          69 201 rmoveto
          5 23 4 23 5 23 4 23 5 22 3 20 4 20 4 19 3 15 2 8 1 7 2 6 1 6 1 5 1 4 3 9 1 8 2 7 rrcurveto
          3 1 4 1 3 vhcurveto
          3 1 4 3 vvcurveto
          2 12 1 10 -1 7 -2 16 -7 7 -12 1 rrcurveto
          -8 -9 -14 -14 -6 hvcurveto
          -6 -14 -5 -14 0 vvcurveto
          -2 -5 -1 -6 -2 -7 -2 -7 -3 -7 -2 -8 -2 -8 -2 -8 -2 -8 -1 -4 -1 -5 -1 -4 -1 -5 -1 -4 -2 -5 -8 -36 -8 -41 -8 -40 -7 -40 -7 -38 -5 -33 rrcurveto
          -2 -16 -2 -14 -2 -13 -1 -6 0 -5 -1 -5 rrcurveto
          -5 -1 -4 -4 vvcurveto
          -2 -29 4 -12 4 -6 rrcurveto
          4 -6 5 2 0 vvcurveto
          9 1 11 21 10 33 11 33 10 44 10 45 rrcurveto
          endchar
        </CharString>
        <CharString name="f">
          -81 158 21 hstemhm
          -9 72 -11 20 18 50 hintmask 10010000
          214 210 -7 callsubr
          1 -2 -1 rrcurveto
          hintmask 11010000
          -16 -35 -45 -16 -42 hhcurveto
          13 -11 callsubr
          -21 -182 rrcurveto
          0 -38 -310 91 9 vhcurveto
          hintmask 10110000
          0 49 10 20 44 vhcurveto
          hintmask 10010000
          28 64 1 135 -46 76 rrcurveto
          3 4 0 1 3 hvcurveto
          31 3 33 12 28 14 13 7 -3 10 -2 5 rrcurveto
          -144 -338 rmoveto
          hintmask 11010000
          -15 -2 12 151 5 47 rrcurveto
          hintmask 10010000
          73 callsubr
          -16 -2 rrcurveto
          endchar
        </CharString>
        <CharString name="f_r">
          149 -19 22 151 19 hstemhm
          -9 71 -10 19 18 51 74 12 11 71 hintmask 11001010
          433 173 rmoveto
          -3 -41 callgsubr
          rrcurveto
          -62 -166 -75 callgsubr
          -29 17 8 71 16 64 rrcurveto
          hintmask 11101110
          -10 callgsubr
          -6 7 -20 34 callgsubr
          -12 -33 2 -31 6 -27 rrcurveto
          0 2 -97 -129 -11 vhcurveto
          12 66 20 80 30 98 rrcurveto
          13 33 -21 10 0 vvcurveto
          -19 10 -21 -62 callgsubr
          -4 -3 -2 -4 -2 hvcurveto
          -11 53 callsubr
          -39 -310 92 9 vhcurveto
          hintmask 11011010
          0 48 10 20 44 vhcurveto
          hintmask 11001110
          94 callgsubr
          rrcurveto
          112 7 11 85 0 vvcurveto
          hintmask 11001010
          -33 callsubr
          5 callgsubr
          3 callsubr
          -363 -301 rmoveto
          hintmask 11101010
          -16 -2 13 151 4 47 rrcurveto
          hintmask 11001010
          73 callsubr
          -15 -2 rrcurveto
          endchar
        </CharString>
        <CharString name="f_s">
          98 -8 34 132 21 hstemhm
          -9 71 -11 20 18 50 36 30 36 38 hintmask 11001110
          390 181 rmoveto
          -2 1 -2 0 -1 -1 -24 -23 -30 -25 -34 -14 -33 105 20 35 20 23 8 10 2 13 -5 29 callsubr
          rrcurveto
          0 0 -75 -125 vhcurveto
          hintmask 11101110
          12 -11 callsubr
          -20 -182 rrcurveto
          0 -39 -310 91 9 vhcurveto
          hintmask 11011110
          0 49 10 20 44 vhcurveto
          hintmask 11001110
          28 64 1 135 -46 76 rrcurveto
          70 -6 40 36 0 vvcurveto
          2 -20 5 43 callsubr
          11 -27 34 -2 0 vvcurveto
          47 -4 24 25 12 22 10 18 -1 -58 callsubr
          10 10 -6 9 -4 4 rrcurveto
          hintmask 11101110
          -320 -309 rmoveto
          hintmask 11001110
          -16 -2 12 151 5 47 73 callsubr
          -15 -2 rrcurveto
          152 154 -37 callgsubr
        </CharString>
        <CharString name="f_z">
          184 58 callsubr
          151 19 hstemhm
          -9 71 -10 20 18 50 -1 58 -56 13 171 17 hintmask 1011001001000000
          353 -19 rmoveto
          62 -1 62 -32 callsubr
          3 13 -8 -94 callgsubr
          -29 17 9 71 15 64 4 -44 callsubr
          -6 97 callgsubr
          -33 callgsubr
          rrcurveto
          hintmask 1011100011000000
          0 -20 -107 -141 -1 vhcurveto
          12 66 20 80 31 98 -28 callgsubr
          hintmask 1011011001000000
          0 49 10 19 44 vhcurveto
          hintmask 1101001001000000
          94 callgsubr
          rrcurveto
          116 2 42 90 0 vvcurveto
          -33 callsubr
          -9 74 callsubr
          -1 -19 -5 -56 -8 -55 rrcurveto
          hintmask 1101000101000000
          -111 22 -7 22 callsubr
          hintmask 1011001001000000
          -74 callgsubr
          -25 -15 -64 12 -41 64 callsubr
          -283 -109 rmoveto
          hintmask 1011101001000000
          -16 -2 13 151 5 47 rrcurveto
          hintmask 1011001001000000
          73 callsubr
          -16 -2 rrcurveto
          132 -18 rmoveto
          hintmask 1101001001000000
          81 callgsubr
          hintmask 1011001001000000
          66 callgsubr
        </CharString>
        <CharString name="five">
          103 0 26 201 11 265 62 hstemhm
          33 85 -36 100 45 65 hintmask 11101100
          158 422 rmoveto
          6 15 5 16 0 vvcurveto
          8 22 7 25 -2 22 146 -43 22 38 -6 33 -6 28 -29 -3 -14 -3 -21 -2 -56 -6 -60 1 rrcurveto
          -16 -14 -17 -7 -5 hvcurveto
          -14 -20 -11 -26 -4 -11 -3 -6 -3 -7 -3 -7 rrcurveto
          0 -16 -39 38 -19 vhcurveto
          12 -6 12 -7 13 -8 31 -21 32 -30 13 -37 rrcurveto
          24 -71 -44 -100 0 vvcurveto
          hintmask 11110100
          0 vlineto
          -13 -32 -14 -22 -12 -16 -3 -4 -33 -36 -31 13 -14 7 -8 10 -5 17 -7 27 10 58 29 87 callgsubr
          -16 -10 -13 -39 -42 3 -73 1 -4 -38 callgsubr
          2 -36 12 38 callgsubr
          35 25 27 39 8 13 9 14 7 16 rrcurveto
          hintmask 11101100
          0 vlineto
          7 callgsubr
          0 vlineto
          2 3 23 54 -4 67 -1 18 -3 19 -6 19 -20 63 -60 38 -44 21 rrcurveto
          endchar
        </CharString>
        <CharString name="four">
          56 217 40 21 14 163 47 hstemhm
          82 65 -22 60 hintmask 01001000
          hintmask 11001000
          78 217 rmoveto
          2 18 -8 -4 27 hvcurveto
          -2 -23 0 -24 2 -25 2 -32 4 -74 31 -20 rrcurveto
          22 -13 1 39 17 vvcurveto
          hintmask 01001000
          -2 55 4 50 9 51 13 3 14 4 12 7 20 10 26 19 -16 29 rrcurveto
          0 -18 22 -32 -11 vhcurveto
          14 54 16 33 18 52 12 34 32 68 -37 34 rrcurveto
          hintmask 11110000
          -29 25 -34 -80 -9 -21 -32 -78 -26 -72 -11 -81 -25 -4 -24 2 -18 6 10 27 9 21 5 10 rrcurveto
          4 10 8 16 0 vvcurveto
          14 29 18 40 12 36 6 19 3 19 -15 11 rrcurveto
          -24 17 -30 -61 0 vvcurveto
          -12 -21 -25 -43 -26 -53 -4 -9 -5 -22 6 -26 rrcurveto
          hintmask 11001000
          5 -18 9 -18 21 -14 rrcurveto
          0 12 -7 15 -7 vhcurveto
          endchar
        </CharString>
        <CharString name="g">
          61 -65 14 11 24 -3 -54 callsubr
          hstemhm
          1 75 -64 57 86 63 33 15 hintmask 1000101101100000
          hintmask 1010001101100000
          231 -19 rmoveto
          63 -63 callgsubr
          -1 -1 hvcurveto
          -25 callgsubr
          -20 -7 -19 18 callsubr
          15 -13 -88 callgsubr
          hintmask 1000101101100000
          36 callgsubr
          42 -41 24 5 0 vvcurveto
          17 1 20 51 13 40 rrcurveto
          hintmask 1100101011100000
          -2 -26 -5 -44 -7 -42 rrcurveto
          -110 22 -7 22 callsubr
          hintmask 1010001101100000
          43 -14 32 57 23 65 23 -12 31 -43 callgsubr
          10 3 11 2 10 rrcurveto
          21 -15 12 -58 callgsubr
          hintmask 1001010101100000
          -144 56 rmoveto
          -22 1 18 107 0 vvcurveto
          21 -53 callgsubr
          17 -7 -1 -38 -1 -15 -6 -23 -3 -21 -1 -19 -10 -34 -30 -87 -18 1 rrcurveto
          hintmask 1100101011100000
          -12 -183 rmoveto
          27 callgsubr
          66 callgsubr
        </CharString>
        <CharString name="g_j">
          251 -173 27 81 14 11 24 -3 -54 callsubr
          9 -20 25 47 hstemhm
          1 75 -65 58 85 64 -15 57 -9 14 70 73 -15 74 -32 14 hintmask 010001001010101100000000
          hintmask 000100001000000100000000
          420 -19 rmoveto
          62 -51 callgsubr
          hvcurveto
          -70 callgsubr
          hintmask 000100001000100001000000
          13 30 -23 13 0 vvcurveto
          -23 callgsubr
          -21 -48 -10 -47 -5 -41 rrcurveto
          -62 -163 -37 -71 callgsubr
          hintmask 000001010010101000000000
          -53 27 61 219 14 30 rrcurveto
          14 29 -24 14 38 callsubr
          -19 18 callsubr
          15 -12 7 -81 callgsubr
          17 1 19 51 13 40 rrcurveto
          hintmask 101000000001100000000000
          -2 -26 -4 -44 -7 -42 6 callgsubr
          hintmask 110100000000010100000000
          43 -14 33 57 22 65 8 -4 8 -4 8 -4 rrcurveto
          -1 -3 0 -2 0 vvcurveto
          -12 -67 83 -24 0 vvcurveto
          -68 callsubr
          10 62 callsubr
          hintmask 000100001000000100000000
          19 -13 12 -58 callgsubr
          hintmask 101000000000010100000000
          -345 -67 callsubr
          79 366 rmoveto
          hintmask 001000000000100000000000
          -5 -23 -3 -21 -2 -19 rrcurveto
          hintmask 000100000000100000000000
          -9 -34 -31 -87 -18 1 rrcurveto
          83 callsubr
          hintmask 000100000000010100000000
          20 -53 callgsubr
          18 -7 -2 -38 -1 -15 rrcurveto
          hintmask 101000000000010100000000
          112 -366 rmoveto
          hintmask 101000000001100000000000
          27 callgsubr
          -11 -58 -16 -51 -24 3 rrcurveto
          54 126 rmoveto
          -55 11 -29 -16 -16 -18 -11 2 -10 2 -10 3 rrcurveto
          hintmask 000010100010100000000000
          3 10 3 11 3 10 rrcurveto
          21 -15 12 -58 callgsubr
          41 40 73 52 23 hvcurveto
          hintmask 101000000001100000000000
          -2 -23 -4 -52 -9 -51 rrcurveto
          hintmask 000000000100000001000000
          90 344 rmoveto
          hintmask 000000000100000010000000
          7 -6 10 -3 callsubr
          -57 20 -13 -15 rrcurveto
          hintmask 000000000100000001000000
          -12 74 callgsubr
          endchar
        </CharString>
        <CharString name="germandbls">
          140 -82 23 581 39 hstemhm
          30 83 169 69 11 8 hintmask 11101000
          362 379 rmoveto
          24 65 -40 72 0 vvcurveto
          -17 36 -35 7 -23 2 rrcurveto
          -157 13 -49 -229 0 vvcurveto
          -16 -82 -14 -94 -5 -87 rrcurveto
          0 -4 -79 23 -58 vhcurveto
          68 callsubr
          6 4 5 5 -1 hvcurveto
          -4 35 -12 136 46 231 rrcurveto
          0 38 209 87 -6 vhcurveto
          0 18 8 -6 -107 vhcurveto
          0 -5 -97 -60 -3 vhcurveto
          hintmask 11111000
          -5 -1 -5 -3 -2 -5 rrcurveto
          -1 vlineto
          -2 -6 3 -6 5 -3 23 -12 54 -37 -8 -81 -11 -102 -62 -155 -17 35 -6 12 19 28 9 11 3 5 -1 7 -5 3 rrcurveto
          -10 5 -16 -3 0 vvcurveto
          -39 -13 6 -47 0 vvcurveto
          1 -35 36 -1 0 vvcurveto
          93 14 85 174 -16 104 -8 51 -33 28 -32 15 rrcurveto
          hintmask 11101000
          65 17 19 58 0 vvcurveto
          endchar
        </CharString>
        <CharString name="grave">
          -142 506 60 hstem
          14 104 vstem
          54 560 -102 callsubr
        </CharString>
        <CharString name="h">
          47 -19 22 hstemhm
          -2 99 26 13 -3 70 -46 76 hintmask 11010000
          227 207 rmoveto
          hintmask 11001000
          28 -39 callsubr
          3 79 19 124 43 166 rrcurveto
          hintmask 11100000
          11 33 -21 10 0 vvcurveto
          hintmask 11001000
          -20 10 -21 -62 callgsubr
          -4 -3 -7 callgsubr
          -11 -31 -49 -152 -6 -203 rrcurveto
          5 callsubr
          hintmask 11010000
          -17 -80 4 -68 7 -27 27 callsubr
          -61 callsubr
          -2 -2 -1 -2 -1 hvcurveto
          -62 -166 -75 callgsubr
          -38 22 18 113 22 69 rrcurveto
          endchar
        </CharString>
        <CharString name="hyphen">
          -77 149 41 hstemhm
          47 98 -24 24 hintmask 11000000
          hintmask 10100000
          145 -54 callgsubr
        </CharString>
        <CharString name="i">
          -86 -19 22 151 98 callsubr
          25 47 hstemhm
          -1 72 -14 74 -33 -69 callsubr
          hintmask 11101010
          13 30 -24 -46 callsubr
          hintmask 11101000
          -4 callsubr
          -2 hvcurveto
          hintmask 11011010
          35 20 rmoveto
          hintmask 11010100
          7 -6 11 -3 callsubr
          -58 20 -12 -15 rrcurveto
          hintmask 11011010
          -12 -14 25 -21 0 vvcurveto
          endchar
        </CharString>
        <CharString name="iacute">
          -86 -19 22 151 98 callsubr
          38 53 hstemhm
          -1 72 27 -69 callsubr
          hintmask 11101100
          13 30 -24 -46 callsubr
          hintmask 11101000
          -4 callsubr
          -2 hvcurveto
          hintmask 11111000
          72 76 -103 callgsubr
        </CharString>
        <CharString name="icircumflex">
          -86 340 41 hstemhm
          -1 209 -95 39 hintmask 11000000
          hintmask 10100000
          -96 callgsubr
          114 27 -107 callsubr
        </CharString>
        <CharString name="idieresis">
          -86 -19 392 hstem
          36 42 35 35 vstem
          -96 callgsubr
          23 69 rmoveto
          -11 3 -12 -8 -2 -12 -2 -12 7 -11 12 -2 11 -3 12 8 2 12 -75 callsubr
        </CharString>
        <CharString name="igrave">
          -86 329 60 hstem
          -1 209 vstem
          -96 callgsubr
          48 79 -102 callsubr
        </CharString>
        <CharString name="j">
          -85 58 callsubr
          309 -20 25 47 hstemhm
          -132 57 75 72 -14 74 -33 15 hintmask 1011011000000000
          85 -19 rmoveto
          62 -67 callgsubr
          -37 -71 callgsubr
          -49 29 48 179 18 43 rrcurveto
          hintmask 1011011010000000
          13 30 -24 -46 callsubr
          hintmask 1101011000000000
          -4 callsubr
          -3 hvcurveto
          -29 -69 -9 -69 -50 vvcurveto
          -7 -4 -65 -11 -64 vhcurveto
          -55 callgsubr
          -12 -67 82 -24 0 vvcurveto
          hintmask 1011011000000000
          46 -14 32 57 21 65 24 -12 30 -15 25 -4 62 -31 callgsubr
          -3 -2 vhcurveto
          -30 callsubr
          10 62 callsubr
          19 -13 12 -58 callgsubr
          -154 -127 rmoveto
          hintmask 1101011000000000
          27 callgsubr
          hintmask 1011011000000000
          -11 -58 -16 -51 -24 3 rrcurveto
          hintmask 1010111010000000
          143 470 rmoveto
          hintmask 1010110100000000
          7 -6 11 -3 callsubr
          -58 20 -12 -15 rrcurveto
          hintmask 1010111010000000
          -12 -14 25 -21 0 vvcurveto
          endchar
        </CharString>
        <CharString name="j_j">
          104 53 callgsubr
          309 -20 25 47 hstemhm
          -133 58 75 72 -17 58 -55 73 -32 14 74 73 -14 73 -32 14 hintmask 0010101100010000
          hintmask 0001100000010000
          74 324 rmoveto
          26 callsubr
          -1 19 -57 20 -12 -15 rrcurveto
          -13 74 callgsubr
          198 -343 rmoveto
          hintmask 0001100100000100
          63 -67 callgsubr
          -75 callgsubr
          -48 29 47 179 19 43 rrcurveto
          12 -73 callgsubr
          hintmask 0000100000100000
          -85 callgsubr
          hintmask 1010101100000000
          84 callsubr
          -21 -49 -10 -48 -4 -42 rrcurveto
          -62 -160 -37 -71 callgsubr
          -2 callgsubr
          18 43 rrcurveto
          13 -56 callgsubr
          hintmask 1101000010010000
          84 callsubr
          -30 -69 -8 -69 -50 vvcurveto
          -1 -7 -4 -65 -10 -64 rrcurveto
          -110 22 -8 -84 64 callgsubr
          6 16 callgsubr
          rrcurveto
          hintmask 0001100000010000
          23 -12 30 -15 25 -4 rrcurveto
          hintmask 1010000010010000
          31 callgsubr
          3 42 callsubr
          20 -13 11 -58 callgsubr
          -342 -127 rmoveto
          hintmask 0001000010010000
          81 callgsubr
          -11 -58 -16 -51 -24 3 rrcurveto
          189 hmoveto
          hintmask 1010000010010000
          -8 callgsubr
          hintmask 0000010000100000
          -38 callsubr
          hintmask 0000010001000000
          92 callgsubr
          54 126 rmoveto
          -55 11 -29 -15 -16 -19 rrcurveto
          hintmask 0000010000100000
          -10 2 -9 3 -9 2 rrcurveto
          hintmask 1010011000000100
          3 42 callsubr
          20 -13 11 -58 callgsubr
          40 40 71 52 23 hvcurveto
          -2 -24 -4 -51 -8 -49 rrcurveto
          89 344 rmoveto
          hintmask 0000010000001000
          26 callsubr
          19 -58 20 -12 -15 vhcurveto
          hintmask 1010011000000100
          -13 74 callgsubr
          endchar
        </CharString>
        <CharString name="k">
          23 -19 22 196 103 hstemhm
          -2 70 53 67 -65 13 42 40 hintmask 11110000
          305 -19 callsubr
          12 callsubr
          52 callgsubr
          2 40 -56 11 -16 2 10 34 12 33 17 24 rrcurveto
          0 6 46 callgsubr
          hintmask 11101100
          18 -1 16 2 16 11 3 2 3 103 callsubr
          -70 9 -40 -242 0 vvcurveto
          3 79 19 124 43 166 -80 callsubr
          -11 -31 -48 36 callsubr
          -2 -71 24 -19 vhcurveto
          hintmask 11110000
          62 callgsubr
          16 6 10 77 19 74 rrcurveto
          20 -5 -6 -19 0 vvcurveto
          -16 -80 24 49 callsubr
          5 14 -11 5 -5 1 rrcurveto
          endchar
        </CharString>
        <CharString name="l">
          -104 20 -21 hstem
          0 76 49 13 vstem
          21 43 rmoveto
          20 -37 39 -7 0 vvcurveto
          53 -7 56 162 0 vvcurveto
          4 13 -9 5 -6 2 rrcurveto
          -1 -2 -1 -1 -1 hvcurveto
          -63 -167 33 callgsubr
          4 77 15 110 40 153 -80 callsubr
          -10 -29 -44 -134 -11 -182 55 callsubr
          endchar
        </CharString>
        <CharString name="m">
          181 -19 22 265 34 2 8 hstemhm
          -2 99 -2 14 48 76 35 70 -46 76 hintmask 10101010
          hintmask 11010110
          203 99 rmoveto
          1 37 23 71 0 vvcurveto
          28 -39 callsubr
          hintmask 10110110
          1 81 37 104 0 vvcurveto
          hintmask 10101010
          12 -73 callgsubr
          hintmask 10110101
          -4 callsubr
          -3 hvcurveto
          0 -35 -94 -1 -106 vhcurveto
          5 callsubr
          0 -13 -50 1 -52 vhcurveto
          0 1 -63 21 -16 57 callsubr
          hintmask 11001101
          24 10 -2 101 68 126 rrcurveto
          0 -9 -27 -3 -16 vhcurveto
          hintmask 11001010
          103 callgsubr
          9 -9 rrcurveto
          36 -38 22 -58 callgsubr
          63 -67 callgsubr
          -37 -71 callgsubr
          -38 22 18 113 22 69 rrcurveto
          hintmask 11001001
          84 callgsubr
          hintmask 11010110
          -64 -39 -182 -21 -7 hvcurveto
          endchar
        </CharString>
        <CharString name="minus">
          -107 149 41 hstemhm
          32 98 -24 24 hintmask 11000000
          hintmask 10100000
          130 -54 callgsubr
        </CharString>
        <CharString name="multiply">
          -150 123 99 -96 99 hstemhm
          24 31 -26 63 hintmask 10010000
          77 172 rmoveto
          -74 callsubr
          3 4 3 4 2 4 5 9 6 15 -8 10 -7 10 -10 -12 -6 -7 rrcurveto
          hintmask 01010000
          -1 -2 -13 callsubr
          -3 6 -3 5 -3 5 -5 6 -7 2 -7 -8 rrcurveto
          hintmask 01100000
          -8 -9 4 -15 4 -8 2 -4 2 -4 2 -4 -4 -4 -3 -6 -4 -5 -4 -8 -2 -12 5 -9 5 -12 10 7 5 7 rrcurveto
          hintmask 10010000
          3 3 2 3 3 4 -38 callgsubr
          2 -5 3 -3 2 -4 5 -7 9 -9 8 14 6 12 -7 15 -3 8 -1 2 -1 2 -1 3 rrcurveto
          endchar
        </CharString>
        <CharString name="n">
          48 -19 22 301 8 hstemhm
          -1 99 -1 14 23 71 -46 75 hintmask 11101000
          hintmask 11011000
          69 69 rmoveto
          79 callsubr
          hintmask 11100100
          -45 callgsubr
          hintmask 11101000
          -17 -80 4 -68 7 -27 15 callgsubr
          -6 2 rrcurveto
          -1 -3 -1 -2 106 callsubr
          17 113 22 69 rrcurveto
          hintmask 11100100
          84 callgsubr
          hintmask 11011000
          -66 13 -44 -246 0 vvcurveto
          endchar
        </CharString>
        <CharString name="nine">
          99 5 21 201 11 23 23 268 23 hstemhm
          50 75 -68 62 141 69 -68 57 hintmask 11010101
          hintmask 11011010
          50 177 rmoveto
          -6 -19 -3 -19 -1 -14 rrcurveto
          0 -1 -9 1 -18 vhcurveto
          1 -9 1 -9 2 -9 4 -14 5 -12 7 -10 5 -7 5 -6 6 -5 9 -7 9 -4 9 -3 rrcurveto
          27 -6 30 8 0 vvcurveto
          15 3 15 8 15 12 23 18 22 27 19 38 19 37 17 48 13 59 12 57 3 49 -4 42 -3 29 -5 25 -9 22 -7 16 -7 14 -10 13 -13 18 -16 13 -18 9 rrcurveto
          9 -17 -18 4 -18 hhcurveto
          hintmask 11110101
          -15 -15 -3 -5 -14 hvcurveto
          -16 -6 -14 -10 -11 -14 -18 -20 -12 -26 -8 -28 -7 -28 -3 -30 2 -29 2 -13 2 -14 4 -12 2 -9 4 -9 4 -8 7 -13 8 -10 10 -8 9 -9 12 -5 13 -2 rrcurveto
          -1 1 10 -2 13 hhcurveto
          10 12 2 3 13 hvcurveto
          10 3 11 5 10 6 13 9 13 13 11 18 -2 -15 -3 -16 -4 -16 rrcurveto
          hintmask 11011001
          -26 -121 -32 -63 -26 -33 106 callgsubr
          -5 17 -7 27 11 58 28 87 callgsubr
          -17 -10 -12 rrcurveto
          hintmask 11011010
          -15 -18 -10 -25 0 vvcurveto
          hintmask 11110101
          106 107 rmoveto
          -7 1 -32 7 2 92 3 91 26 74 45 3 rrcurveto
          0 26 2 20 -26 vhcurveto
          14 -18 12 -27 3 -41 rrcurveto
          4 -44 -12 -33 0 vvcurveto
          0 -10 -30 -19 -20 vhcurveto
          0 -33 -33 -42 2 vhcurveto
          endchar
        </CharString>
        <CharString name="ntilde">
          48 326 52 hstemhm
          98 35 72 122 -118 12 hintmask 11100000
          69 69 rmoveto
          0 44 246 66 -13 vhcurveto
          0 77 -5 -28 -90 vhcurveto
          -22 -69 -17 -113 37 -22 rrcurveto
          0 38 2 63 166 vhcurveto
          2 3 1 1 vhcurveto
          6 -2 8 -5 -3 -13 rrcurveto
          0 -62 -174 -62 1 vhcurveto
          0 -23 -1 -36 38 vhcurveto
          -9 9 -6 11 -4 12 -7 27 -4 68 17 80 rrcurveto
          4 16 9 27 0 vvcurveto
          -56 -78 -11 -179 -23 -10 rrcurveto
          -25 -10 -22 23 0 vvcurveto
          -25 19 2 71 0 vvcurveto
          1 106 36 94 0 vvcurveto
          5 2 5 3 6 hhcurveto
          11 -2 19 -3 18 -10 rrcurveto
          0 23 -13 -13 -30 vhcurveto
          0 -37 -104 -1 -81 vhcurveto
          hintmask 11010000
          135 283 -101 callsubr
        </CharString>
        <CharString name="o">
          47 callgsubr
          hstem
          -2 70 112 28 vstem
          -105 callsubr
          endchar
        </CharString>
        <CharString name="o_r">
          219 -19 22 -21 28 101 22 21 19 hstemhm
          -2 70 111 26 102 71 120 14 hintmask 10101010
          hintmask 10111111
          503 173 rmoveto
          -6 callsubr
          4 50 1 9 -3 10 -6 7 76 callsubr
          -12 -33 2 -31 6 -27 rrcurveto
          0 -19 -130 -60 -17 vhcurveto
          16 115 -63 43 -44 2 -26 2 -33 102 callsubr
          hintmask 01101010
          0 -46 -94 46 -79 vhcurveto
          0 28 -49 63 2 vhcurveto
          7 1 7 1 7 4 18 11 34 30 18 85 rrcurveto
          80 17 16 119 71 callgsubr
          hintmask 10111011
          5 callgsubr
          hintmask 10111111
          3 callsubr
          hintmask 01101110
          -378 -163 3 callgsubr
          54 123 rmoveto
          -19 -3 -18 99 callsubr
          -60 50 59 72 0 vvcurveto
          59 -13 -7 -98 -2 -20 rrcurveto
          endchar
        </CharString>
        <CharString name="o_s">
          166 -18 28 -18 34 85 22 hstemhm
          -2 70 112 28 36 31 36 38 hintmask 01111110
          459 93 callgsubr
          -1 -1 -24 -60 callgsubr
          71 callsubr
          -18 -95 -59 -19 vhcurveto
          17 115 -64 43 -43 2 -27 2 -32 -31 -6 -41 rrcurveto
          -22 -10 -10 -18 0 vvcurveto
          hintmask 10111110
          0 -46 -94 46 -79 vhcurveto
          0 28 -49 63 2 vhcurveto
          8 1 7 11 callsubr
          34 30 19 85 rrcurveto
          62 17 20 57 0 vvcurveto
          57 callgsubr
          hintmask 01111110
          -39 56 callsubr
          2 -17 5 -34 callsubr
          46 -4 24 25 13 22 9 18 0 -58 callsubr
          rrcurveto
          hintmask 10111110
          56 callgsubr
          -334 -171 rmoveto
          -77 11 24 124 0 vvcurveto
          2 0 3 1 2 vhcurveto
          15 -17 32 -27 55 3 rrcurveto
          -24 -102 -26 -58 callgsubr
          55 123 rmoveto
          -20 -3 -18 99 callsubr
          -59 50 59 72 0 vvcurveto
          hintmask 01111110
          58 -13 -6 -98 -2 -20 rrcurveto
          112 -107 -37 callgsubr
        </CharString>
        <CharString name="o_z">
          219 58 callsubr
          -21 28 101 22 21 19 hstemhm
          -2 70 107 57 -52 28 71 17 64 18 hintmask 1010101011100000
          388 -19 rmoveto
          hintmask 1010111011100000
          63 -1 61 174 0 vvcurveto
          4 13 -9 -94 callgsubr
          -28 17 8 71 16 64 3 -44 callsubr
          -5 2 -7 7 callsubr
          0 -10 -120 -68 -27 vhcurveto
          17 115 -64 43 -44 2 -26 2 -32 -31 -6 -41 rrcurveto
          -22 -10 -10 -18 0 vvcurveto
          hintmask 1001101011100000
          0 -46 -94 46 -79 vhcurveto
          0 28 -49 63 2 vhcurveto
          7 1 8 11 callsubr
          34 30 18 85 rrcurveto
          87 31 9 105 0 vvcurveto
          -33 callsubr
          -8 74 callsubr
          rrcurveto
          hintmask 1100101101100000
          28 callsubr
          hintmask 1010101011100000
          45 -14 32 57 22 -6 callgsubr
          10 2 9 rrcurveto
          18 -12 10 -58 callgsubr
          hintmask 1001101011100000
          -263 29 3 callgsubr
          55 123 rmoveto
          -20 -3 -18 99 callsubr
          -59 50 58 72 0 vvcurveto
          59 -13 -6 -98 -2 -20 rrcurveto
          hintmask 1100101101100000
          58 -279 25 callgsubr
        </CharString>
        <CharString name="oacute">
          47 callgsubr
          187 53 hstem
          -2 70 112 28 vstem
          -105 callsubr
          21 360 -103 callgsubr
        </CharString>
        <CharString name="ocircumflex">
          47 callgsubr
          196 41 hstem
          -2 70 112 28 vstem
          -105 callsubr
          78 310 -107 callsubr
        </CharString>
        <CharString name="odieresis">
          47 callgsubr
          hstemhm
          -2 70 15 42 28 42 -15 28 hintmask 11100100
          -105 callsubr
          hintmask 11110100
          -17 358 rmoveto
          -11 3 -104 callsubr
          2 rrcurveto
          hintmask 11101000
          70 -13 rmoveto
          -11 2 -104 callsubr
          3 rrcurveto
          endchar
        </CharString>
        <CharString name="oe">
          252 -18 28 101 22 147 10 6 7 hstemhm
          51 70 112 80 71 22 hintmask 11011110
          482 174 rmoveto
          -2 -2 -51 callsubr
          -68 72 callgsubr
          10 47 callsubr
          -31 16 0 vvcurveto
          -34 20 -52 -26 0 vvcurveto
          -18 -11 -15 -27 -9 -24 -17 50 -39 20 -30 2 -27 2 -32 102 callsubr
          0 -46 -94 45 -79 vhcurveto
          0 29 -49 63 2 vhcurveto
          7 1 7 1 7 4 14 8 24 21 18 50 4 -14 6 -13 9 -12 rrcurveto
          0 29 -49 81 2 vhcurveto
          63 2 61 171 0 vvcurveto
          -61 callsubr
          -111 106 rmoveto
          0 24 -20 -17 -49 vhcurveto
          -14 -38 -29 -14 -18 -5 rrcurveto
          21 95 33 31 0 vvcurveto
          -189 -16 rmoveto
          46 -11 6 -63 -1 -36 rrcurveto
          -6 -1 -7 -8 vvcurveto
          -20 -3 -17 99 callsubr
          -60 50 59 72 0 vvcurveto
          -4 -254 rmoveto
          hintmask 11101110
          67 callgsubr
          33 -27 55 3 rrcurveto
          -24 -102 -26 -58 callgsubr
          endchar
        </CharString>
        <CharString name="ograve">
          47 callgsubr
          187 60 hstem
          -2 70 112 28 vstem
          -105 callsubr
          3 364 -102 callsubr
        </CharString>
        <CharString name="one">
          -58 -4 572 hstemhm
          36 57 -53 147 hintmask 10100000
          170 564 rmoveto
          0 -1 1 0 vhcurveto
          -10 7 -10 -5 -9 -11 -2 -2 -1 -2 -2 -3 -15 -18 -24 -17 -23 -3 rrcurveto
          -36 -6 3 -31 0 vvcurveto
          2 -25 28 1 15 4 rrcurveto
          hintmask 11000000
          3 1 22 11 5 12 -48 -98 -40 -156 9 -113 3 -29 6 -68 28 -16 rrcurveto
          20 -11 0 36 15 vvcurveto
          hintmask 10100000
          -5 90 16 86 21 79 13 50 15 48 15 49 9 31 27 64 -34 29 rrcurveto
          endchar
        </CharString>
        <CharString name="oslash">
          47 callgsubr
          131 36 hstemhm
          -2 74 -54 86 72 32 hintmask 11110100
          269 173 -7 callsubr
          0 -1 -1 -18 -14 -21 -12 -21 -7 7 46 -7 35 -13 25 7 16 5 13 3 10 rrcurveto
          1 0 1 1 1 vhcurveto
          2 10 -2 18 -15 10 -14 9 3 -18 -3 -6 -4 -8 -4 -11 -6 -12 rrcurveto
          hintmask 11101100
          -16 13 -19 6 -15 1 -27 2 -32 -31 -6 -41 rrcurveto
          -22 -10 -10 -18 0 vvcurveto
          hintmask 11110100
          0 -46 -94 46 -79 vhcurveto
          hintmask 11101100
          0 4 -8 9 -9 vhcurveto
          -5 -10 -3 -5 -5 -9 0 6 -4 -22 rlinecurve
          -2 -7 1 -14 5 -3 17 -11 5 11 8 13 17 29 rcurveline
          -5 12 15 -3 17 hhcurveto
          8 1 7 11 callsubr
          34 30 19 85 23 7 23 13 20 16 rrcurveto
          hintmask 11110100
          11 10 -6 9 -3 4 rrcurveto
          -144 -163 rmoveto
          -17 2 -12 7 -8 11 12 22 15 31 16 32 13 -3 14 -2 17 1 rrcurveto
          -24 -102 -26 -58 callgsubr
          5 254 rmoveto
          9 -2 7 -4 6 -6 -12 -26 -15 -29 -15 -31 rrcurveto
          -21 46 41 52 0 vvcurveto
          46 -56 rmoveto
          7 -31 -2 -33 -1 -11 -15 -2 -13 1 -11 4 rrcurveto
          -72 -52 rmoveto
          -2 30 5 31 0 vvcurveto
          2 0 3 1 2 vhcurveto
          5 -6 7 -7 9 -6 rrcurveto
          endchar
        </CharString>
        <CharString name="otilde">
          47 callgsubr
          184 52 hstemhm
          -2 70 112 28 -26 12 hintmask 11011000
          -105 callsubr
          hintmask 11110100
          52 333 -101 callsubr
        </CharString>
        <CharString name="p">
          34 83 callgsubr
          149 22 88 callsubr
          50 8 hintmask 1111101110000000
          313 173 rmoveto
          -2 2 -2 0 -1 -1 -25 -17 -20 -12 -17 -10 rrcurveto
          17 callsubr
          -20 74 -70 -8 0 vvcurveto
          -19 -1 -17 -14 -15 -52 callsubr
          10 -10 19 55 callgsubr
          -2 6 -12 33 -24 102 47 215 4 11 34 107 44 8 -18 callgsubr
          hintmask 1111111110000000
          4 callsubr
          40 21 30 23 0 vvcurveto
          hintmask 1111101110000000
          11 9 -4 9 -3 4 rrcurveto
          hintmask 1111111110000000
          -227 -171 48 callgsubr
          endchar
        </CharString>
        <CharString name="p_r">
          263 83 callgsubr
          -21 22 151 19 107 24 hstemhm
          -17 75 15 14 21 13 56 82 64 83 -56 71 120 14 hintmask 1011110110110000
          546 -31 callsubr
          16 callsubr
          rrcurveto
          hintmask 1011110111010000
          4 16 -4 16 -10 13 -22 29 -2 44 5 50 rrcurveto
          9 -3 10 -6 7 vhcurveto
          -20 21 -20 10 -12 4 -24 callsubr
          0 -13 -105 -68 -47 vhcurveto
          9 44 3 25 1 13 rrcurveto
          7 0 7 -2 7 vhcurveto
          -20 74 -71 -8 0 vvcurveto
          -19 -1 -17 -14 -14 -18 rrcurveto
          12 callgsubr
          vhcurveto
          11 -21 callgsubr
          1 -4 1 -3 -2 -2 -34 callgsubr
          0 -80 16 -45 vhcurveto
          2 -6 4 -6 4 -4 10 -10 20 -15 25 -4 7 -1 5 6 -2 6 -12 33 -23 102 47 215 3 11 35 107 43 8 -18 callgsubr
          hintmask 1101111110110000
          -4 -25 -6 -21 -5 -18 -83 -37 -4 -42 11 -20 rrcurveto
          12 -23 30 0 0 vvcurveto
          45 3 54 58 22 76 rrcurveto
          85 48 14 95 71 callgsubr
          hintmask 1011110110110000
          -16 -72 1 -61 6 -25 -99 callgsubr
          3 callsubr
          hintmask 1101111110110000
          -459 -171 81 callsubr
          -22 -17 -13 hhcurveto
          endchar
        </CharString>
        <CharString name="p_s">
          210 83 callgsubr
          -10 34 254 104 callsubr
          28 30 37 38 hintmask 1011101101000000
          502 52 callsubr
          -23 -60 callgsubr
          71 callsubr
          -14 -83 -65 -36 vhcurveto
          -90 callgsubr
          hintmask 1101111101000000
          31 callsubr
          45 3 54 58 22 76 rrcurveto
          66 29 20 52 0 vvcurveto
          2 -20 5 -28 9 -33 rrcurveto
          hintmask 1011101111000000
          -38 -94 callsubr
          96 callgsubr
          17 callgsubr
          28 21 21 22 rrcurveto
          hintmask 1011101101000000
          56 callgsubr
          hintmask 1101111101000000
          -415 -179 rmoveto
          3 7 rlineto
          0 14 61 callgsubr
          -22 -17 -13 hhcurveto
          hintmask 1011101111000000
          248 24 rmoveto
          0 -19 0 1 20 vhcurveto
          2 -26 callgsubr
        </CharString>
        <CharString name="p_z">
          264 -186 -21 142 14 11 24 -14 32 -21 22 151 19 88 callsubr
          -38 57 52 12 64 18 hintmask 1100111101101100
          434 -19 rmoveto
          62 -1 62 -32 callsubr
          3 60 callsubr
          -6 callsubr
          5 50 rrcurveto
          9 -3 10 -6 7 vhcurveto
          28 callgsubr
          -5 -99 -78 -53 vhcurveto
          17 callsubr
          -20 74 -70 -8 0 vvcurveto
          -19 -1 -18 -14 -14 -52 callsubr
          9 -10 20 55 callgsubr
          -3 6 -11 33 -24 102 47 215 4 11 34 107 44 8 -18 callgsubr
          hintmask 1101011111101100
          4 callsubr
          95 43 7 100 71 callgsubr
          -8 74 callsubr
          rrcurveto
          hintmask 1110011101011100
          -1 -19 -5 86 callsubr
          -12 -67 83 -24 0 vvcurveto
          hintmask 1100111101101100
          -68 callsubr
          9 2 10 2 9 rrcurveto
          18 -12 11 -58 callgsubr
          hintmask 1101011111011100
          -348 21 48 callgsubr
          197 -148 rmoveto
          hintmask 1110011101011100
          27 callgsubr
          hintmask 1101011111011100
          66 callgsubr
        </CharString>
        <CharString name="period">
          -142 12 62 hstem
          37 50 vstem
          59 74 rmoveto
          -14 -10 -14 -17 2 hvcurveto
          -17 1 13 -14 14 hhcurveto
          13 10 14 17 -1 hvcurveto
          17 -2 -12 14 -14 hhcurveto
          endchar
        </CharString>
        <CharString name="plus">
          -134 147 41 hstemhm
          44 35 -21 33 hintmask 11000000
          hintmask 10100000
          117 172 rmoveto
          1 15 -14 0 -9 1 -38 callgsubr
          -2 -2 0 -2 hhcurveto
          2 7 1 8 1 7 rrcurveto
          10 1 -4 9 -9 hhcurveto
          -12 1 -7 -16 -2 -10 rrcurveto
          hintmask 11000000
          -2 -5 -1 -5 -1 -5 rrcurveto
          -5 -6 -1 -6 hhcurveto
          -8 -2 -9 -8 -3 -12 rrcurveto
          -15 -4 12 -4 7 4 4 0 4 hhcurveto
          19 callgsubr
          -1 vvcurveto
          -1 -5 -1 -5 -6 vvcurveto
          -1 -11 0 -16 14 3 13 4 4 18 3 11 -38 callgsubr
          hintmask 10100000
          1 2 1 3 3 vvcurveto
          1 0 -1 0 hvcurveto
          4 5 1 1 4 hvcurveto
          9 2 14 5 1 17 rrcurveto
          endchar
        </CharString>
        <CharString name="q">
          60 -186 -21 188 -54 callsubr
          hstemhm
          0 75 50 77 -48 62 33 15 hintmask 1001011011000000
          343 -65 callgsubr
          -1 hvcurveto
          hintmask 1100011011000000
          -25 callgsubr
          -19 -7 -19 18 callsubr
          15 -12 6 -99 callsubr
          hintmask 1001011011000000
          36 callgsubr
          42 -41 24 5 0 vvcurveto
          13 1 15 30 12 32 -3 -31 -3 -33 -1 -36 rrcurveto
          0 0 -80 16 -45 vhcurveto
          hintmask 1100011101000000
          2 -6 4 32 callgsubr
          8 107 rrcurveto
          hintmask 1100011011000000
          18 -11 9 -58 callgsubr
          63 -1 61 -32 callsubr
          hintmask 1001011011000000
          -61 callsubr
          hintmask 1010101011000000
          -257 -137 rmoveto
          -22 1 18 107 0 vvcurveto
          21 -53 callgsubr
          82 callsubr
          69 callgsubr
          endchar
        </CharString>
        <CharString name="question">
          51 -5 57 506 21 hstemhm
          39 49 -46 57 -40 24 hintmask 01001000
          297 437 rmoveto
          16 89 -62 57 -80 -4 rrcurveto
          hintmask 01100000
          0 -114 -13 -18 -125 vhcurveto
          -10 -71 57 -16 22 -7 7 -2 9 2 8 5 18 14 14 17 5 22 1 4 -3 4 -4 -1 -9 -3 -16 -4 -16 5 -19 5 -19 19 4 36 rrcurveto
          10 89 69 -1 0 vvcurveto
          79 6 -9 -93 0 vvcurveto
          hintmask 01001000
          -10 -104 -70 -54 -68 -114 -33 -54 -4 -45 16 -21 rrcurveto
          4 -5 11 4 8 vvcurveto
          1 21 19 32 22 29 39 51 118 127 15 91 rrcurveto
          hintmask 11010000
          -221 -385 rmoveto
          -16 -15 -13 -15 -3 hvcurveto
          -16 -3 11 -13 15 hhcurveto
          16 15 13 16 3 hvcurveto
          15 3 -10 13 -16 hhcurveto
          endchar
        </CharString>
        <CharString name="quotedbl">
          -120 431 99 -71 99 hstemhm
          29 40 17 40 hintmask 01100000
          58 -5 callgsubr
          hintmask 10110000
          57 -28 rmoveto
          -14 13 -18 -21 -5 -29 rrcurveto
          -4 -28 12 -22 0 vvcurveto
          9 -19 12 16 11 25 11 24 -1 28 -13 13 rrcurveto
          endchar
        </CharString>
        <CharString name="quotesingle">
          -178 459 99 hstem
          30 40 vstem
          59 -5 callgsubr
          endchar
        </CharString>
        <CharString name="r">
          -20 -19 22 151 19 hstem
          67 71 vstem
          263 173 rmoveto
          -2 1 -2 -1 -1 -2 rrcurveto
          51 callgsubr
          -3 16 -11 13 -22 29 -1 -14 callgsubr
          -4 10 -6 7 32 callsubr
          -5 -29 -11 -43 -26 -64 rrcurveto
          -2 1 -2 2 -1 vhcurveto
          5 54 callsubr
          19 46 12 50 vhcurveto
          12 -26 13 -16 0 vvcurveto
          -17 -72 1 -61 6 -25 15 callgsubr
          -5 1 rrcurveto
          endchar
        </CharString>
        <CharString name="ring">
          -129 497 15 25 16 hstemhm
          41 16 26 16 hintmask 10010000
          hintmask 11010000
          70 553 rmoveto
          hintmask 11110000
          -16 -13 -13 -15 hvcurveto
          hintmask 10110000
          -16 13 -12 16 vhcurveto
          hintmask 10010000
          16 13 12 16 hvcurveto
          hintmask 11010000
          15 -13 13 -16 vhcurveto
          hintmask 10010000
          -41 vmoveto
          hintmask 10110000
          -7 -6 6 7 hvcurveto
          hintmask 11110000
          7 6 5 7 vhcurveto
          hintmask 11010000
          7 6 -5 -7 hvcurveto
          hintmask 10010000
          107 callgsubr
        </CharString>
        <CharString name="s">
          -67 -8 34 hstem
          0 30 37 38 vstem
          215 52 callsubr
          -23 -23 -31 43 callgsubr
          -10 12 -13 8 -4 2 -4 0 -2 -2 9 callgsubr
          rrcurveto
          -7 -26 -11 -34 -17 -43 39 callsubr
          10 11 callgsubr
          5 13 8 21 vhcurveto
          2 -20 5 -28 9 -33 rrcurveto
          -38 -94 callsubr
          -1 19 callgsubr
          hvcurveto
          17 callgsubr
          28 21 21 22 56 callgsubr
          -167 -155 rmoveto
          0 -19 0 1 20 vhcurveto
          2 -26 callgsubr
        </CharString>
        <CharString name="s_r">
          164 -19 22 -11 34 128 19 hstemhm
          0 31 36 38 119 17 11 71 hintmask 01011010
          123 119 rmoveto
          -33 105 20 35 20 23 -93 callsubr
          -39 -94 callsubr
          0 19 callgsubr
          vhcurveto
          hintmask 01011110
          -1 2 0 1 -1 2 rrcurveto
          hintmask 10111010
          102 41 9 111 0 vvcurveto
          -33 callsubr
          -16 -72 0 -61 7 -25 3 -20 callsubr
          9 -9 rrcurveto
          36 -38 22 -58 callgsubr
          63 -1 61 -32 callsubr
          4 13 -8 5 -6 -92 callsubr
          -37 -71 callgsubr
          hintmask 01111110
          -29 17 8 71 16 64 -10 callgsubr
          -6 7 -20 34 callgsubr
          rrcurveto
          hintmask 01011010
          -12 -33 1 -31 6 -27 rrcurveto
          0 -23 -146 -82 -22 vhcurveto
          -75 -93 rmoveto
          0 -19 0 2 20 vhcurveto
          1 -26 callgsubr
        </CharString>
        <CharString name="s_s">
          94 -8 34 hstem
          0 30 36 38 65 30 36 39 vstem
          384 52 callsubr
          -24 -23 -30 43 callgsubr
          -11 94 callsubr
          -2 -2 -18 -17 -30 -32 -8 -52 rrcurveto
          0 -15 -108 -69 -27 vhcurveto
          -33 105 20 35 21 23 8 10 2 13 -6 29 callsubr
          -6 -26 -11 -34 -17 -43 -1 -2 1 -2 2 -1 rrcurveto
          5 54 callsubr
          6 13 7 21 vhcurveto
          3 -20 4 43 callsubr
          12 -27 33 -71 callgsubr
          47 -4 24 25 12 22 10 18 -1 21 callgsubr
          2 -1 1 2 vvcurveto
          71 33 6 57 0 vvcurveto
          3 -20 4 -28 10 -33 rrcurveto
          -38 56 callsubr
          2 -17 4 -10 rrcurveto
          12 -27 34 -71 callgsubr
          46 -4 24 25 12 22 10 18 0 22 -11 35 callgsubr
          17 callgsubr
          27 21 22 22 56 callgsubr
          -336 -155 rmoveto
          0 -20 60 callgsubr
          16 14 16 5 5 -22 4 -32 -24 -2 rrcurveto
          169 hmoveto
          0 -19 0 1 20 vhcurveto
          1 17 16 14 16 5 5 -22 4 -32 -24 -2 rrcurveto
          endchar
        </CharString>
        <CharString name="s_z">
          166 58 callsubr
          -11 34 128 19 hstemhm
          0 31 36 38 16 58 75 70 hintmask 1001011010000000
          hintmask 1010111010000000
          335 -62 callsubr
          -6 97 callgsubr
          -33 callgsubr
          rrcurveto
          0 -10 -122 -97 -46 vhcurveto
          -33 105 20 35 20 23 -93 callsubr
          hintmask 1001011010000000
          -39 -94 callsubr
          0 19 callgsubr
          vhcurveto
          -1 2 0 1 -1 2 rrcurveto
          96 42 17 110 0 vvcurveto
          -33 callsubr
          hintmask 1101011110000000
          -9 -37 -4 -33 -28 vvcurveto
          -2 -19 -4 -56 -9 -55 rrcurveto
          -110 22 -8 -84 0 vvcurveto
          hintmask 1010011010000000
          -12 -64 callgsubr
          -74 callgsubr
          -24 -15 -64 12 -42 11 rrcurveto
          hintmask 1010111010000000
          3 9 63 callgsubr
          hintmask 1001011010000000
          18 -12 10 -58 callgsubr
          -287 45 -3 callgsubr
          16 5 rrcurveto
          hintmask 1101011110000000
          6 -22 4 -32 -25 -2 rrcurveto
          137 -172 25 callgsubr
        </CharString>
        <CharString name="seven">
          94 498 63 hstem
          43 301 vstem
          308 568 rmoveto
          -79 -15 -108 11 -30 3 rrcurveto
          -15 3 -30 3 -29 vvcurveto
          -36 36 -44 190 74 vhcurveto
          -8 -7 -6 -7 -3 -4 -88 -98 -87 -174 -26 -119 -6 -28 -15 -70 19 -21 16 -19 11 33 3 14 19 72 68 154 38 61 26 41 37 45 28 38 18 24 43 44 -20 40 rrcurveto
          -7 12 -15 0 -9 -1 rrcurveto
          endchar
        </CharString>
        <CharString name="six">
          79 0 23 267 23 230 27 hstemhm
          35 69 -58 57 139 36 -34 58 hintmask 11101100
          103 255 rmoveto
          2 15 3 15 4 17 43 199 55 36 19 6 3 1 31 6 -46 -111 rrcurveto
          0 -17 -36 26 -5 vhcurveto
          24 -5 39 37 -8 82 rrcurveto
          -1 12 -2 10 0 vvcurveto
          -6 28 -19 8 0 vvcurveto
          -21 12 -29 -12 0 vvcurveto
          0 vlineto
          hintmask 11110010
          -13 -5 -14 -9 -15 -12 -21 -18 -23 -26 -20 -37 -20 -37 -18 -47 -13 -59 -12 -57 -3 -49 4 -42 2 -29 6 -25 9 -22 6 -16 8 -15 9 -12 14 -18 16 -14 17 -8 rrcurveto
          -9 18 18 -4 18 hhcurveto
          15 14 2 6 14 hvcurveto
          17 6 14 10 11 13 18 20 12 26 8 29 7 28 3 30 -3 28 -1 14 -2 13 -4 13 -3 9 -3 9 -4 8 -7 12 -8 11 -10 8 -10 8 -11 6 -13 2 rrcurveto
          hintmask 11101100
          -1 -10 2 -13 hhcurveto
          -10 -12 -1 -4 -14 hvcurveto
          -51 -15 -16 -38 0 vvcurveto
          65 -232 rmoveto
          -33 4 -33 29 -7 77 rrcurveto
          -3 44 12 33 0 vvcurveto
          0 vlineto
          hintmask 11101010
          2 6 2 5 3 6 6 14 8 10 8 9 12 13 14 7 13 5 rrcurveto
          4 13 13 1 10 hhcurveto
          hintmask 11101100
          7 32 -7 -92 -3 hvcurveto
          -1 -53 -9 -48 -17 -31 rrcurveto
          0 -19 -36 -30 vhcurveto
          endchar
        </CharString>
        <CharString name="slash">
          -20 -22 603 hstem
          7 231 vstem
          236 514 rmoveto
          0 vlineto
          19 callgsubr
          1 vvcurveto
          1 1 0 2 1 vvcurveto
          3 18 -4 31 -24 11 -22 10 5 -30 -3 -11 -33 -111 -79 -218 -43 -102 -1 -2 -1 -3 -1 -4 -7 -18 -15 -31 -4 -38 -3 -13 3 -24 8 -3 26 -12 7 21 11 24 rrcurveto
          22 52 16 47 10 22 32 75 76 204 20 100 rrcurveto
          endchar
        </CharString>
        <CharString name="space">
          -17 endchar
        </CharString>
        <CharString name="sterling">
          84 -3 70 -48 75 -73 -21 242 31 29 31 167 62 hstemhm
          85 57 131 21 -12 38 hintmask 0010111010000000
          243 562 rmoveto
          -45 2 -34 -35 -19 -27 -19 -26 -14 -33 -9 -33 rrcurveto
          -1 -2 -1 -3 -3 vvcurveto
          -4 -14 -5 -21 -3 -28 rrcurveto
          0 vlineto
          -74 callsubr
          -2 -1 -2 -2 vvcurveto
          -56 hlineto
          -6 -4 -7 -8 2 hvcurveto
          hintmask 0101111010000000
          -9 2 6 -7 6 hhcurveto
          48 hlineto
          -1 -8 0 -10 -11 vvcurveto
          -55 18 callgsubr
          49 hlineto
          -4 1 -5 -5 vvcurveto
          2 -24 3 -25 6 -25 rrcurveto
          0 2 -7 3 -11 vhcurveto
          -1 1 -4 3 -7 vhcurveto
          3 -8 3 -10 5 -10 1 -2 -13 1 1 -2 -38 callgsubr
          1 -4 -4 0 -2 hhcurveto
          -26 3 -15 -6 -6 -3 -16 -8 -14 -16 -1 -37 rrcurveto
          0 0 -6 1 -10 vhcurveto
          3 -10 6 -17 15 -1 rrcurveto
          hintmask 0010111100000000
          11 -1 4 6 5 7 rrcurveto
          12 6 11 12 20 hhcurveto
          31 30 -10 -6 26 hvcurveto
          6 -1 6 -1 6 -1 rrcurveto
          0 vlineto
          hintmask 1001111100000000
          0 1 0 2 -1 vhcurveto
          2 2 0 -1 2 hvcurveto
          1 0 0 1 hhcurveto
          0 vlineto
          -1 3 4 0 3 hhcurveto
          11 -1 14 0 11 3 12 callgsubr
          2 -38 callgsubr
          0 vlineto
          13 7 10 14 22 vvcurveto
          13 -2 11 -3 9 vhcurveto
          -3 8 -4 5 -4 -1 rrcurveto
          -3 -1 -3 -3 -1 hvcurveto
          -1 -4 -1 -3 -1 -3 rrcurveto
          hintmask 0010111010000000
          -8 -14 -41 6 -35 8 rrcurveto
          -2 -16 3 1 -2 hvcurveto
          -14 31 -18 63 5 70 rrcurveto
          46 hlineto
          7 4 6 9 -2 hvcurveto
          9 -2 -6 6 -6 hhcurveto
          -38 hlineto
          2 11 1 10 2 8 rrcurveto
          39 hlineto
          7 4 7 9 -2 hvcurveto
          8 -2 -6 7 -6 hhcurveto
          -27 hlineto
          3 1 1 0 vhcurveto
          26 101 62 78 32 -19 rrcurveto
          20 -12 -29 -72 0 vvcurveto
          0 -20 -44 19 -26 vhcurveto
          0 vlineto
          5 -5 4 -4 3 -3 4 -2 8 -2 9 14 rrcurveto
          0 vlineto
          23 42 3 38 -4 29 rrcurveto
          0 vlineto
          -13 112 -64 0 0 vvcurveto
          endchar
        </CharString>
        <CharString name="t">
          -103 20 -21 398 22 -20 23 hstemhm
          1 76 48 14 92 17 hintmask 11011100
          hintmask 10111100
          239 477 rmoveto
          -1 70 callgsubr
          -13 -38 -5 5 18 5 20 5 20 rrcurveto
          10 33 -21 10 0 vvcurveto
          -20 10 -20 4 -11 72 callsubr
          hintmask 11011100
          -5 -14 -13 -40 -14 -59 rrcurveto
          -12 -18 -1 1 -19 hvcurveto
          -32 1 -29 5 -4 -3 rrcurveto
          -6 -6 0 -20 40 hhcurveto
          1 25 16 0 34 hhcurveto
          -12 -57 -11 -72 -5 -81 -48 callgsubr
          hintmask 10111100
          44 callsubr
          -10 17 rrcurveto
          endchar
        </CharString>
        <CharString name="t_t">
          68 154 19 224 22 -21 24 hstemhm
          0 76 49 13 35 74 49 13 92 17 hintmask 01011111
          hintmask 00111111
          410 477 rmoveto
          -2 70 callgsubr
          -14 -37 -4 4 18 5 20 5 20 rrcurveto
          11 -21 callgsubr
          2 rrcurveto
          -4 -3 -2 -4 -2 hvcurveto
          hintmask 11011111
          -5 -14 -13 -40 -13 -59 rrcurveto
          -12 -18 0 -19 -13 -12 0 -11 hhcurveto
          5 20 5 20 5 21 rrcurveto
          11 -21 callgsubr
          2 rrcurveto
          -4 -3 -2 -4 -2 hvcurveto
          -5 -14 -13 -40 -14 -59 -11 -1 -18 0 -19 1 -32 1 -29 5 -5 -4 rrcurveto
          -5 14 callgsubr
          20 -37 39 -8 0 vvcurveto
          36 -4 37 73 20 47 3 -25 6 -26 10 -20 rrcurveto
          20 -37 39 -8 0 vvcurveto
          53 -6 56 162 0 vvcurveto
          4 13 -9 5 -6 1 -1 -85 callsubr
          33 callgsubr
          hintmask 00111111
          3 62 11 85 25 111 30 1 38 3 18 5 61 17 -14 36 -9 17 rrcurveto
          hintmask 01011111
          -239 -290 rmoveto
          0 -1 -10 1 -15 vhcurveto
          -61 -156 -25 17 21 callsubr
          3 62 11 84 25 110 rrcurveto
          3 3 0 3 25 17 1 34 hhcurveto
          -12 -57 -12 -72 -5 -81 rrcurveto
          endchar
        </CharString>
        <CharString name="three">
          54 0 26 201 11 286 42 hstem
          22 86 116 35 vstem
          250 343 rmoveto
          2 7 2 -46 callsubr
          7 44 -1 57 -8 37 rrcurveto
          3 -11 47 -27 12 vhcurveto
          -13 7 -14 -3 -14 -12 -56 -36 -2 -64 17 -24 rrcurveto
          17 -26 13 39 0 vvcurveto
          45 113 13 -38 1 -4 4 -16 5 -41 -22 -66 -10 -25 -10 -24 -11 -22 -3 -6 -13 -26 13 -15 9 -11 16 -5 16 14 rrcurveto
          9 -68 -34 -78 0 vvcurveto
          0 vlineto
          -14 -32 -13 -22 -13 -16 106 callgsubr
          -4 17 -8 27 11 58 28 26 rrcurveto
          32 30 -17 23 0 vvcurveto
          -16 22 -19 -16 -11 -13 rrcurveto
          -38 -42 3 -73 -4 vvcurveto
          -74 callsubr
          3 -36 11 38 callgsubr
          36 25 26 39 9 13 8 14 8 16 rrcurveto
          0 vlineto
          7 callgsubr
          0 vlineto
          1 3 24 54 -4 67 -2 18 -3 19 -6 19 -4 16 -8 14 -9 13 rrcurveto
          endchar
        </CharString>
        <CharString name="tilde">
          -132 504 52 hstemhm
          10 111 -12 12 hintmask 11000000
          hintmask 10100000
          104 530 -101 callsubr
        </CharString>
        <CharString name="two">
          28 -1 82 443 42 hstem
          18 45 146 35 vstem
          203 75 rmoveto
          -21 -7 -57 -17 -62 -10 70 69 56 71 33 111 4 13 6 19 3 21 2 6 1 9 1 3 7 44 -1 57 -8 37 -1 3 -10 47 -27 12 -13 7 -14 -3 -15 -12 rrcurveto
          -55 -36 -2 -64 16 -24 rrcurveto
          18 -26 13 39 0 vvcurveto
          44 113 14 -38 1 -4 4 -16 5 -41 -23 -66 -26 -71 -32 -57 -42 -57 -9 -12 -20 -27 -16 -23 -7 -9 -6 -11 -5 -11 -9 -23 -7 -27 8 -22 12 -28 27 -8 7 -1 rrcurveto
          178 -23 19 47 -11 34 -9 27 -28 -9 -13 -6 rrcurveto
          endchar
        </CharString>
        <CharString name="u">
          50 -19 69 callsubr
          69 27 14 25 72 27 14 80 14 hintmask 0011110101000000
          -35 callsubr
          hintmask 1001110101000000
          -70 callgsubr
          hintmask 0101110111000000
          -97 callgsubr
          hintmask 0011111101000000
          12 -13 callgsubr
          hintmask 0011110101000000
          -97 callsubr
          29 2 23 46 15 44 rrcurveto
          hintmask 1001110101000000
          1 -18 3 -15 2 -10 -99 callgsubr
          hintmask 0011110101000000
          3 callsubr
          endchar
        </CharString>
        <CharString name="uacute">
          50 -19 -70 callsubr
          44 53 -4 callgsubr
          hintmask 0011101010100000
          -35 callsubr
          hintmask 1001101010100000
          -70 callgsubr
          hintmask 0101101011100000
          -97 callgsubr
          hintmask 0011101110100000
          12 -13 callgsubr
          hintmask 0011101010100000
          -97 callsubr
          29 2 23 46 15 44 rrcurveto
          hintmask 1001101010100000
          1 -18 3 -15 2 -10 -99 callgsubr
          hintmask 0011101010100000
          3 callsubr
          hintmask 0011111010100000
          -155 213 -103 callgsubr
        </CharString>
        <CharString name="ucircumflex">
          50 -19 -70 callsubr
          63 41 -98 callsubr
          -114 173 -107 callsubr
        </CharString>
        <CharString name="udieresis">
          50 -19 69 callsubr
          69 27 14 -8 42 -9 72 -35 42 20 14 80 14 hintmask 0011110010010000
          -35 callsubr
          hintmask 1001110010010000
          -70 callgsubr
          hintmask 0101110010110000
          -97 callgsubr
          hintmask 0011111010010000
          12 -13 callgsubr
          hintmask 0011110010010000
          -97 callsubr
          29 2 23 46 15 44 rrcurveto
          hintmask 1001110010010000
          1 -18 3 -15 2 -10 -99 callgsubr
          hintmask 0011110010010000
          3 callsubr
          hintmask 0011110100010000
          -206 222 rmoveto
          -11 3 -104 callsubr
          2 rrcurveto
          hintmask 0011110001010000
          70 -13 rmoveto
          -11 2 -104 callsubr
          3 rrcurveto
          endchar
        </CharString>
        <CharString name="ugrave">
          50 -19 -70 callsubr
          56 60 -98 callsubr
          -186 229 -102 callsubr
        </CharString>
        <CharString name="v">
          -62 1 29 hstem
          0 74 71 46 vstem
          190 262 rmoveto
          -4 21 -15 17 -18 7 -1 callsubr
          10 -73 callgsubr
          -19 34 callsubr
          -34 -94 9 -101 12 40 callgsubr
          75 2 33 215 5 34 rrcurveto
          3 0 3 -1 4 vhcurveto
          endchar
        </CharString>
        <CharString name="w">
          67 1 29 hstem
          0 73 64 62 vstem
          316 262 rmoveto
          -5 21 -14 17 -19 7 rrcurveto
          -3 2 -4 -3 -3 vvcurveto
          -1 -129 -41 -146 -16 2 rrcurveto
          -14 1 0 53 0 vvcurveto
          -2 79 callgsubr
          -19 -49 callsubr
          -5 -3 -2 -5 -14 -39 -7 -40 -3 -36 -12 -94 -16 -59 -11 callgsubr
          -15 1 0 53 0 vvcurveto
          -2 79 callgsubr
          -18 34 callsubr
          -34 -94 8 -101 13 40 callgsubr
          26 1 19 27 14 37 2 -9 22 -57 42 1 75 2 33 215 5 34 1 3 0 3 -1 4 rrcurveto
          endchar
        </CharString>
        <CharString name="x">
          -50 -4 26 132 19 hstem
          0 85 vstem
          232 173 rmoveto
          -2 -41 callgsubr
          -13 -36 -13 -28 -11 -22 rrcurveto
          0 -34 -65 -29 2 vhcurveto
          0 -22 1 -12 61 vhcurveto
          30 callgsubr
          1 22 -9 20 -16 12 -3 3 -4 -2 -1 -3 -14 -47 -19 -40 -21 -31 rrcurveto
          26 2 24 2 15 vhcurveto
          4 30 -25 -46 callsubr
          -20 9 -20 4 -11 1 -6 1 -4 -3 -1 -5 -14 -71 12 -74 14 -48 -20 -28 -16 -26 -5 -12 rrcurveto
          -1 -3 -1 -3 -3 vvcurveto
          76 callgsubr
          7 29 11 26 12 23 rrcurveto
          36 -65 42 0 0 vvcurveto
          57 -5 40 88 0 vvcurveto
          19 39 13 36 0 vvcurveto
          4 13 -9 5 -5 1 rrcurveto
          endchar
        </CharString>
        <CharString name="y">
          15 callsubr
          23 75 26 14 hintmask 1000101100010000
          hintmask 1010011100110000
          219 -19 rmoveto
          62 -1 62 -32 callsubr
          3 13 -8 -94 callgsubr
          -21 12 -3 40 5 20 callsubr
          hintmask 1001001100010000
          -86 callsubr
          hintmask 1000101101010000
          1 56 23 75 12 32 rrcurveto
          hintmask 1000101100110000
          12 -13 callgsubr
          -97 callsubr
          hintmask 1100101010110000
          -35 callgsubr
          hintmask 1010001100010000
          -80 callgsubr
          hintmask 1010011100110000
          2 42 callsubr
          hintmask 1100101010010000
          20 -13 11 -58 callgsubr
          -153 -67 callsubr
          endchar
        </CharString>
        <CharString name="y_j">
          238 53 callgsubr
          -2 32 -11 -21 311 -20 25 47 hstemhm
          0 70 -67 57 36 14 23 75 -17 58 -15 14 75 73 -14 73 -32 14 hintmask 010001101000011000000000
          hintmask 010100101000011000000000
          408 -19 rmoveto
          63 -67 callgsubr
          -75 callgsubr
          -48 29 47 179 19 43 rrcurveto
          hintmask 010100101001011010000000
          12 -56 callgsubr
          84 callsubr
          -20 -48 -11 -47 -4 -41 rrcurveto
          -62 -163 -75 callgsubr
          -20 12 -3 40 4 20 callsubr
          hintmask 010010101000011000000000
          7 60 19 69 11 24 rrcurveto
          12 -73 callgsubr
          -4 callsubr
          -3 -63 callsubr
          -9 -31 -92 -17 -29 callsubr
          hintmask 010001101010011000000000
          1 56 24 75 12 32 rrcurveto
          hintmask 010001101001011000000000
          11 -13 callgsubr
          -18 9 -18 4 -11 1 -6 1 -5 -3 -3 -5 -40 -95 1 -100 10 -35 rrcurveto
          0 16 -69 46 3 vhcurveto
          hintmask 111001100101011000000000
          28 2 22 41 15 42 -2 -27 -4 -40 -7 22 callgsubr
          hintmask 110100101000101000000000
          -12 -64 callgsubr
          85 callgsubr
          21 65 7 16 callgsubr
          23 -12 31 -15 24 -4 31 callgsubr
          rrcurveto
          hintmask 010100101000011000000000
          3 42 callsubr
          hintmask 111001101000101000000000
          20 -13 11 -58 callgsubr
          -342 -127 rmoveto
          27 callgsubr
          -11 -58 -16 -51 -24 3 rrcurveto
          189 hmoveto
          hintmask 010100101000101000000000
          0 -20 -78 callgsubr
          92 callgsubr
          54 126 rmoveto
          hintmask 111001101000101000000000
          -55 11 -29 -16 -16 -18 rrcurveto
          hintmask 111001010100011010000000
          -10 2 -9 2 -9 3 3 10 62 callsubr
          19 -13 11 -58 callgsubr
          41 40 73 51 23 hvcurveto
          -1 -22 -5 -52 -8 -51 rrcurveto
          hintmask 010001011000010100000000
          89 344 rmoveto
          7 -6 11 -1 0 vvcurveto
          41 -2 -2 20 0 vvcurveto
          hintmask 111001010100011010000000
          19 -58 20 -12 -15 vhcurveto
          -13 74 callgsubr
          endchar
        </CharString>
        <CharString name="yacute">
          50 -65 14 11 24 -3 -70 callsubr
          55 53 hstemhm
          0 70 -67 57 36 14 23 75 26 14 hintmask 1000101110001000
          hintmask 1010011110011000
          219 -19 rmoveto
          62 -1 62 -32 callsubr
          3 13 -8 -94 callgsubr
          -21 12 -3 40 5 20 callsubr
          hintmask 1001001110001000
          -86 callsubr
          hintmask 1000101110101000
          1 56 23 75 12 32 rrcurveto
          hintmask 1000101110011000
          12 -13 callgsubr
          -97 callsubr
          hintmask 1100101101011000
          -35 callgsubr
          hintmask 1010001110001000
          -80 callgsubr
          hintmask 1010011110011000
          2 42 callsubr
          hintmask 1100101101001000
          20 -13 11 -58 callgsubr
          -153 -67 callsubr
          112 543 -103 callgsubr
        </CharString>
        <CharString name="ydieresis">
          15 callsubr
          -5 42 -14 75 -33 42 17 14 hintmask 1000101100000100
          hintmask 1010011100010100
          219 -19 rmoveto
          62 -1 62 -32 callsubr
          3 13 -8 -94 callgsubr
          -21 12 -3 40 5 20 callsubr
          hintmask 1001001100000100
          -86 callsubr
          hintmask 1000101101000100
          1 56 23 75 12 32 rrcurveto
          hintmask 1000101100010100
          12 -13 callgsubr
          -97 callsubr
          hintmask 1100101010010100
          -35 callgsubr
          hintmask 1010001100000100
          -80 callgsubr
          hintmask 1010011100010100
          2 42 callsubr
          hintmask 1100101010100100
          20 -13 11 -58 callgsubr
          -153 -67 callsubr
          64 535 -36 callsubr
          hintmask 1000101100001100
          -75 callsubr
        </CharString>
        <CharString name="z">
          -20 58 callsubr
          151 19 hstemhm
          -65 58 128 17 hintmask 10111100
          149 -19 rmoveto
          62 -1 62 -32 callsubr
          3 13 -8 -94 callgsubr
          -29 17 9 71 15 64 4 16 -3 -79 callgsubr
          -4 10 -6 7 32 callsubr
          -5 -29 -11 -1 callgsubr
          -9 74 callsubr
          rrcurveto
          hintmask 11011100
          -1 -19 -5 86 callsubr
          -12 -67 83 -24 0 vvcurveto
          hintmask 10111100
          -74 callgsubr
          -25 -15 -64 12 -41 64 callsubr
          -151 -127 rmoveto
          hintmask 11011100
          81 callgsubr
          hintmask 10111100
          66 callgsubr
        </CharString>
        <CharString name="zero">
          143 -1 28 525 24 hstemhm
          45 57 -46 86 173 56 hintmask 11101000
          206 576 rmoveto
          -15 -18 -3 -8 -18 hvcurveto
          -17 -8 -18 -13 -15 -21 -1 -1 -14 -18 -13 -32 -7 -15 -6 -19 -5 -22 -4 -21 -2 -25 3 -26 rrcurveto
          -8 2 -9 1 -9 vhcurveto
          -7 -28 -4 -27 -3 -24 -3 -27 0 -25 2 -22 2 -28 6 -24 9 -21 6 -16 8 -14 9 -12 14 -17 16 -13 17 -9 rrcurveto
          -8 18 18 -4 18 hhcurveto
          12 12 1 4 11 hvcurveto
          2 6 1 5 8 hvcurveto
          15 7 22 14 22 30 23 30 23 45 16 67 rrcurveto
          0 vlineto
          0 5 22 4 33 vhcurveto
          2 16 2 19 1 21 1 21 0 22 -3 23 -1 18 -3 19 -4 18 -4 13 -4 14 -5 12 -8 19 -11 18 -14 16 -14 15 -17 13 -20 9 rrcurveto
          -27 12 -31 0 0 vvcurveto
          97 -302 rmoveto
          -38 -193 -63 -72 -52 21 rrcurveto
          hintmask 11011000
          -42 23 -29 76 47 174 rrcurveto
          0 3 11 5 14 vhcurveto
          6 17 11 51 -24 14 -22 14 -13 -24 -1 -3 rrcurveto
          18 5 21 12 25 vhcurveto
          45 100 65 -5 27 -8 rrcurveto
          hintmask 11101000
          0 vlineto
          0 12 -3 13 -11 vhcurveto
          75 -69 -42 -191 0 vvcurveto
          endchar
        </CharString>
      <CharString index="0">
        565 -29 callgsubr
        -13 23 callsubr
        -2 -6 -3 -15 -9 -31 -9 -41 -53 -131 -47 -98 -40 -74 -133 -32 -101 47 -20 54 -18 52 24 47 15 21 6 10 3 12 -1 12 rrcurveto
        -3 25 -14 11 -9 5 -4 2 -6 -1 -4 -3 -16 -14 -41 -42 4 -80 3 -83 107 -111 189 36 -90 -154 -55 -27 -21 -5 -6 -1 -3 -6 1 -5 10 -27 27 -9 11 -3 rrcurveto
        4 -1 4 1 4 1 39 15 64 114 58 118 18 6 20 7 19 8 -3 -32 -3 -33 -2 -31 -52 callgsubr
        -58 vhcurveto
        2 -7 5 -5 5 -4 11 -8 18 -12 18 -2 -10 callsubr
        12 -53 callsubr
        -188 -369 rmoveto
        25 52 23 51 18 43 -8 -41 -7 -43 -5 -43 -16 -8 -15 -6 -15 -5 rrcurveto
        return
      </CharString>
      <CharString index="1">
        305 569 rmoveto
        -62 28 -32 -86 -10 -29 -37 15 -20 32 -9 18 -5 11 -9 8 -11 4 -27 11 -17 -10 -8 -6 rrcurveto
        -2 -3 -1 -3 -3 vvcurveto
        3 -17 14 -60 74 -36 12 -6 14 -4 15 -2 -26 -98 -31 -131 -13 -120 rrcurveto
        0 -7 -62 13 -55 vhcurveto
        -40 11 -20 16 -7 7 -2 2 -4 0 -1 -3 rrcurveto
        -25 -51 34 -29 0 vvcurveto
        16 -14 56 -2 57 5 rrcurveto
        0 1 1 0 vhcurveto
        13 1 13 1 13 2 18 3 15 15 2 18 rrcurveto
        1 1 0 1 2 vvcurveto
        2 -2 1 -2 vhcurveto
        -24 -1 -22 -1 -19 1 rrcurveto
        76 10 167 79 253 vhcurveto
        19 10 19 15 19 21 4 4 3 5 1 5 rrcurveto
        10 35 -53 24 0 vvcurveto
        9 -63 rmoveto
        -6 -5 -7 -5 -7 -4 5 15 6 18 8 1 rrcurveto
        4 4 -2 -3 hvcurveto
        2 -8 -9 -7 0 vvcurveto
        return
      </CharString>
      <CharString index="2">
        632 -19 callsubr
        -1 -72 callsubr
        -27 -51 -39 -40 vhcurveto
        -32 -31 -38 -20 -31 hhcurveto
        -166 10 callgsubr
        47 112 101 39 31 9 5 2 3 5 -2 5 -7 18 rcurveline
        -2 4 -3 3 -5 1 -14 4 -10 6 -6 7 -73 callsubr
        -32 14 -74 -21 -51 -81 rrcurveto
        0 -50 -77 40 -46 vhcurveto
        -168 -70 -131 51 -21 64 -18 52 26 46 15 21 7 10 3 12 -1 12 -3 28 -15 10 -8 75 callgsubr
        -3 -3 -15 -12 -44 -43 1 -82 2 -98 145 -137 263 114 rrcurveto
        13 -6 17 -4 21 -3 rrcurveto
        0 -130 -11 -78 -119 vhcurveto
        -79 -120 27 -164 186 1 rrcurveto
        120 1 74 159 0 vvcurveto
        24 43 15 43 0 vvcurveto
        4 13 -9 5 -6 2 rrcurveto
        -145 277 rmoveto
        24 38 46 51 14 -6 rrcurveto
        0 -9 -93 -97 -59 vhcurveto
        19 callgsubr
        -1 vhcurveto
        -3 32 26 37 0 vvcurveto
        return
      </CharString>
      <CharString index="3">
        5 12 3 11 11 vvcurveto
        2 58 -29 -41 callsubr
        -52 23 -132 -114 -65 -149 -118 -20 -89 43 -20 50 -21 53 23 46 13 21 7 10 2 12 -2 12 -4 26 -13 10 -10 5 -5 2 -5 0 -4 -4 -16 -14 -39 -43 7 -79 rrcurveto
        6 -80 102 -104 173 23 -18 -51 -11 -53 4 -53 return
      </CharString>
      <CharString index="4">
        rmoveto
        -13 -4 -9 -11 -15 -7 -15 -8 -11 9 -6 -5 rrcurveto
        -8 -8 19 -8 0 vvcurveto
        61 -25 41 41 -6 14 rrcurveto
        -11 23 -27 -11 0 vvcurveto
        endchar
      </CharString>
      <CharString index="5">
        19 callsubr
        -75 callgsubr
        -53 -43 callsubr
        -25 14 0 vvcurveto
        -83 callsubr
        -9 -20 -7 -20 18 callsubr
        16 -14 -88 callgsubr
        return
      </CharString>
      <CharString index="6">
        hintmask 10101000
        667 173 rmoveto
        -1 -41 callgsubr
        -11 -29 -9 -23 -9 -19 rrcurveto
        0 -17 -43 -62 -33 vhcurveto
        -17 -10 -14 -5 -19 -3 rrcurveto
        96 197 52 262 0 vvcurveto
        16 62 -19 21 0 vvcurveto
        23 -18 -23 3 -16 hhcurveto
        -7 -4 -4 -6 -1 hvcurveto
        hintmask 10111100
        -187 -537 -44 8 0 vvcurveto
        -13 12 19 123 0 vvcurveto
        10 71 18 89 28 112 4 13 -9 13 -13 1 rrcurveto
        1 -9 -8 0 -6 hhcurveto
        96 callgsubr
        97 callsubr
        -57 -206 51 -88 40 -71 59 -13 20 -3 rrcurveto
        4 108 callgsubr
        hvcurveto
        5 8 7 17 -12 25 -5 11 -9 8 -11 5 -23 10 -46 26 -12 54 -15 69 91 121 190 24 -17 -65 -25 -101 -19 -98 rrcurveto
        0 -27 -123 26 -31 vhcurveto
        0 39 -45 30 10 vhcurveto
        63 40 76 232 53 140 rrcurveto
        hintmask 01101000
        -22 -93 -45 -176 -55 -135 -77 -14 -48 -22 -29 -28 rrcurveto
        hintmask 10101000
        -69 -71 45 -44 0 vvcurveto
        70 -72 110 133 0 vvcurveto
        23 29 21 35 20 38 40 7 20 11 21 11 rrcurveto
        52 28 29 60 0 vvcurveto
        15 32 10 28 0 vvcurveto
        4 13 -9 5 -6 1 rrcurveto
        -311 -301 rmoveto
        0 -56 -72 -29 39 vhcurveto
        -22 29 58 47 0 vvcurveto
        27 25 43 15 34 8 return
      </CharString>
      <CharString index="7">
        41 -363 rmoveto
        -37 -266 -114 32 0 vvcurveto
        -68 14 -74 198 95 173 19 7 19 9 20 10 rrcurveto
        0 41 19 35 34 vhcurveto
        10 10 10 12 8 12 22 -17 callsubr
        return
      </CharString>
      <CharString index="8">
        4 -12 6 -96 callsubr
        return
      </CharString>
      <CharString index="9">
        646 561 rmoveto
        -19 -79 callsubr
        -12 -45 -48 -188 -18 -182 rrcurveto
        -32 171 -43 125 0 vvcurveto
        0 vlineto
        -2 6 -3 4 -5 3 -9 5 -11 4 -13 3 rrcurveto
        12 callsubr
        -2 hvcurveto
        -306 -34 -57 -206 51 -88 41 -70 59 -14 19 -2 4 -1 5 2 2 4 6 8 6 16 -11 26 -6 10 -9 9 -11 5 -23 9 -45 27 -13 54 -15 70 95 125 199 20 rrcurveto
        -79 -409 -85 -70 -27 -12 -5 -3 -2 -6 3 -4 rrcurveto
        -31 19 37 -4 19 hhcurveto
        11 1 10 5 7 8 47 56 51 216 31 152 45 -107 36 -179 11 -56 3 -18 4 -20 8 -18 2 -6 9 callsubr
        19 -13 18 -1 -10 callsubr
        return
      </CharString>
      <CharString index="10">
        13 30 -23 13 0 vvcurveto
        -23 callgsubr
        -19 -44 -10 -44 -5 -39 rrcurveto
        -52 -10 -30 -92 -18 -29 callsubr
        2 56 23 75 12 32 rrcurveto
        return
      </CharString>
      <CharString index="11">
        38 304 rmoveto
        5 2 5 3 6 hhcurveto
        11 -2 18 -3 18 -10 rrcurveto
        0 24 -13 -13 -30 vhcurveto
        -18 -43 -48 -179 49 -29 rrcurveto
        0 37 2 63 166 vhcurveto
        1 2 2 1 2 -1 6 -1 8 -5 -4 -13 rrcurveto
        0 -61 -174 -62 1 vhcurveto
        0 -23 -1 -36 38 vhcurveto
        -9 9 -7 11 -3 12 -10 36 -5 108 47 110 rrcurveto
        return
      </CharString>
      <CharString index="12">
        rmoveto
        0 -3 -93 -93 -58 vhcurveto
        -13 -7 -12 -7 -13 -6 35 60 75 122 24 -11 rrcurveto
        return
      </CharString>
      <CharString index="13">
        -46 callgsubr
        -75 callgsubr
        return
      </CharString>
      <CharString index="14">
        0 vvcurveto
        17 76 -61 2 0 vvcurveto
        -115 3 -50 -199 -13 -57 -122 -41 -96 40 -19 49 -16 44 20 39 12 18 6 8 2 11 -1 10 -3 21 -12 9 -7 75 callgsubr
        -4 -3 -13 -11 -34 -37 4 -67 rrcurveto
        4 -75 102 -96 return
      </CharString>
      <CharString index="15">
        -21 -114 41 -36 0 vvcurveto
        42 -41 24 5 0 vvcurveto
        19 2 21 58 13 41 rrcurveto
        return
      </CharString>
      <CharString index="16">
        -9 rrcurveto
        36 -38 23 -58 callgsubr
        return
      </CharString>
      <CharString index="17">
        9 44 3 25 1 13 rrcurveto
        7 0 7 -2 7 vhcurveto
        -20 74 -71 -8 0 vvcurveto
        -19 -1 -17 -14 -14 -18 rrcurveto
        12 callgsubr
        vhcurveto
        10 -53 callsubr
        -19 93 callsubr
        -4 67 callsubr
        0 -80 16 -45 vhcurveto
        2 -6 4 -6 4 -4 10 -10 19 -15 26 -4 7 -1 5 6 -2 6 -12 33 -24 102 48 215 3 11 35 107 43 8 -18 callgsubr
        return
      </CharString>
      <CharString index="18">
        -8 -28 -33 -98 -19 1 rrcurveto
        -22 1 18 107 0 vvcurveto
        21 -53 callgsubr
        return
      </CharString>
      <CharString index="19">
        7 -99 callsubr
        return
      </CharString>
      <CharString index="20">
        -11 9 -91 callgsubr
        62 -1 return
      </CharString>
      <CharString index="21">
        -2 -85 callsubr
        return
      </CharString>
      <CharString index="22">
        -18 10 -19 3 -11 2 rrcurveto
        return
      </CharString>
      <CharString index="23">
        -56 -83 callgsubr
        return
      </CharString>
      <CharString index="24">
        54 -153 -2 callsubr
        return
      </CharString>
      <CharString index="25">
        46 callsubr
        -62 callgsubr
        return
      </CharString>
      <CharString index="26">
        0 vvcurveto
        -34 20 -52 -26 0 vvcurveto
        -36 -22 -20 -82 0 vvcurveto
        36 callgsubr
        41 -41 25 5 0 vvcurveto
        return
      </CharString>
      <CharString index="27">
        -13 -64 callgsubr
        45 -14 33 57 21 -72 callgsubr
        -41 11 rrcurveto
        return
      </CharString>
      <CharString index="28">
        16 -10 13 -23 29 -1 -14 callgsubr
        return
      </CharString>
      <CharString index="29">
        75 callsubr
        -38 callsubr
        return
      </CharString>
      <CharString index="30">
        0 176 -35 34 301 vhcurveto
        24 209 -62 62 -30 17 rrcurveto
        return
      </CharString>
      <CharString index="31">
        -3 -5 -2 -63 callsubr
        return
      </CharString>
      <CharString index="32">
        -38 -71 callgsubr
        return
      </CharString>
      <CharString index="33">
        41 callsubr
        30 -15 25 -4 -61 callgsubr
        return
      </CharString>
</ttFont>
